<svg width="360" height="62" viewBox="0 0 360 62" fill="none" xmlns="http://www.w3.org/2000/svg">
<path d="M31.33 55.44L30.63 55.51L30.35 55.72H30.21V55.86L29.58 56.14L29.16 56.07L28.18 54.39L27.83 54.18L27.2 53.34L27.41 52.99V52.78L27.2 52.43V52.29L26.78 51.87L26.43 50.75L23.07 44.24L22.58 43.75L21.67 43.19L21.39 42.91L19.01 41.44L17.19 39.9L16.84 39.69L16.77 39.55L14.81 38.85L13.97 38.78L13.9 38.64H13.48L12.15 38.5L11.38 38.92L10.61 40.39L10.4 40.6L10.26 40.88L10.12 41.09L9.77 41.72L9.56 41.86L9.49 42.07L9.21 42.56L8.93 43.33L8.3 43.89L7.95 45.01L7.46 45.85L7.18 46.27L7.04 46.48L6.55 47.67L5.64 49.49V49.77L5.22 50.68L5.08 51.45L4.59 52.43L4.52 53.34L4.87 54.6L4.66 55.37L3.75 56.91L3.47 57.05L3.12 57.26H2.98L2.56 57.19L2.07 57.12L0.6 54.88V54.6L0.74 54.39L1.02 54.11L1.23 53.34L1.79 52.5L2.07 51.94L2.28 51.59V51.38L3.12 49.35L4.8 46.48L4.94 46.34L5.01 46.27L5.71 44.31L6.83 42.84L6.9 42.35L7.04 42.28L7.67 41.72L7.81 40.95L7.67 40.67L7.81 39.9L7.18 38.99L6.76 38.92L6.55 38.71L6.41 38.5V38.29V38.08L6.69 37.87L7.11 37.8L7.53 37.31H8.02L8.51 36.68L8.72 36.61L9.14 36.4H9.63L9.98 36.33L10.75 36.12L11.24 36.05L11.66 35.35L12.64 34.51L13.2 33.53L15.02 31.57L15.58 30.52L15.93 30.59L17.61 28.63L18.1 28.28L18.45 28V26.95L18.17 25.48L18.24 24.5L18.38 24.43L18.24 24.29L18.1 23.59L18.03 23.17V22.47L17.96 22.05V21.49L17.75 20.58V20.3L17.82 20.02L17.96 19.67L17.75 19.53L17.82 17.99L17.68 17.57L17.61 15.33L17.54 14.7L17.4 14.28L17.33 12.74L18.24 12.39L18.45 12.25L18.52 12.11L18.66 11.69L19.43 11.34L19.64 10.99L20.9 11.34L21.39 12.95L21.53 14.84L21.6 15.26V15.68L21.95 19.6L21.88 19.81V20.23L21.95 22.61L22.16 23.52L22.09 23.73L22.23 24.01L24.26 22.47L24.33 22.4L24.68 22.33L26.64 20.93L26.85 20.79H27.27L27.48 20.72V20.65L27.62 20.51L27.97 19.95L29.02 19.74L28.95 20.65L28.6 20.58L28.11 21.07L27.97 21.28L27.76 21.21L26.5 22.75L26.36 22.89L25.87 23.03L25.38 23.17L25.17 23.45L24.89 23.66L23.84 24.78L23.63 24.99L23.35 25.27L22.79 25.76L22.72 27.37L22.65 27.65L22.72 27.93V28.63L23.07 29.33L23.14 30.24L23.28 30.66L23.35 31.15L23.77 32.27L25.17 37.52L25.87 39.06L26.71 41.58L26.92 42L27.06 42.28L28.11 45.15L28.6 45.71L29.23 46.13L29.51 47.32H29.65V47.67L29.86 48.65L31.26 51.03L31.33 51.1L31.68 51.73L31.96 52.22L32.73 53.55L32.87 53.9L32.73 54.18L32.52 54.46L31.33 55.44ZM20.83 37.66L20.55 36.33L20.13 35.35V34.58L19.85 34.44L19.71 34.09V33.88L19.57 33.81L19.29 32.34V31.64L19.01 30.66L18.87 30.45L18.73 30.31L18.52 30.24H18.38L18.03 30.59L16.21 33.04L15.58 33.46L14.25 35.42L14.18 35.63L14.11 35.91L15.16 36.26L16.98 36.68L17.19 36.82L17.33 36.89H17.4L17.68 36.82V37.03L18.73 37.45L19.08 37.66L19.5 37.94L20.76 39.13L20.9 39.2L21.04 39.27L21.25 39.2L21.32 38.92L21.25 38.57L20.83 37.66ZM34.9492 49.49L35.1592 49.21L34.9492 48.79L35.1592 48.65V48.44H35.2292V48.16L35.9992 46.97L42.2992 39.83L42.4392 39.9L42.5792 39.76L43.9792 37.66L44.8192 36.75L44.9592 36.47L45.2392 36.12L47.5492 33.32L49.5792 31.22L50.8392 30.59L50.7692 31.57L50.2092 32.62L49.6492 32.9L49.3692 33.25L49.0892 33.74L49.2292 34.09H49.2992L49.4392 33.95H49.5792L49.8592 33.6L54.1292 31.15L54.6892 31.08L55.4592 30.73L56.5792 30.8L56.9992 30.87L57.2792 31.01H57.4192L57.6292 30.94L57.8392 30.66L57.9092 30.45V30.31L57.6992 29.33L57.7692 28L57.6292 27.86V26.25L57.8392 25.34L57.7692 24.71V24.5L57.6992 23.45L57.7692 23.52L57.8392 23.38V21.42L57.7692 21.28L57.8392 21.21L58.0492 20.58L57.9092 18.9L57.9792 16.45L57.8392 16.38L58.1192 15.47L58.2592 13.16L58.3292 12.95H58.5392L58.8892 10.08L58.7492 8.61L58.8192 7.84L58.8892 6.86V6.23L59.1692 5.53L59.9392 5.11L60.2892 5.04L60.7792 4.9H61.0592L62.3192 3.99L63.0192 3.71L63.7192 4.06L63.8592 4.9L63.6492 5.32L63.8592 5.88L63.7192 6.44L63.6492 6.79L63.5092 7.14L63.4392 7.42V7.84L62.8792 9.87L62.8092 10.22V10.36L62.9492 10.78L62.6692 11.9L62.8092 12.6L62.5992 12.88L62.4592 13.44L62.5292 14.91L62.5992 15.19V15.89L62.4592 16.73L62.5992 16.94L62.7392 17.08V17.99L62.8092 18.2V18.55L63.0192 18.97L63.1592 20.23L62.9492 20.86L62.7392 21.56V21.84L62.6692 22.33L62.7392 23.1L62.1092 24.15L62.2492 24.5L62.1092 26.32L61.1992 31.57L61.3392 35.21L61.2692 36.19L61.6892 43.61L61.8992 43.68L61.9692 44.17L62.0392 45.57L62.8092 49.28L63.0892 50.33L63.3692 50.68L63.2992 50.96L63.7192 51.59V51.73L63.8592 52.15L65.4692 55.3L65.3992 55.58L65.1192 55.93L64.7692 56.07L64.5592 56L64.4192 55.93L63.5792 55.16L62.3192 55.65L61.5492 55.02L61.4092 54.46L61.0592 54.18L60.7792 53.41L60.4992 53.34L60.2192 53.13L60.0092 52.78L59.6592 52.22L59.5892 51.73L59.3792 51.52L58.7492 50.26L58.5392 49.98H58.3992L58.1192 49.28L57.6992 48.3L57.7692 48.16H57.8392L57.5592 47.88L57.3492 47.53L56.7192 47.74L56.4392 48.23L56.2292 48.51L56.1592 48.72L55.8792 49.21L55.8092 49.28L55.6692 49.35L55.4592 49.7L54.3392 51.17L50.5592 55.37L49.5092 55.86L46.7092 58.45L46.5692 58.52L46.2192 58.66L45.9392 58.73L45.7992 58.87L45.7292 58.94L45.3792 59.15L45.0292 59.43L44.8192 59.5L43.2792 60.13L42.0892 60.41L40.7592 60.2L39.2892 59.64L38.7292 59.01L37.9592 57.47L37.3292 54.81L37.5392 53.48L37.2592 52.85L37.1892 51.52L35.9292 50.96L35.5092 50.47L35.1592 50.12L34.9492 49.49ZM40.0592 53.34L40.1992 54.53L40.8292 55.72L41.5992 56.42H41.7392L42.0892 56.7H43.7692L44.1892 56.84L46.6392 55.93L47.1292 55.86L48.9492 54.74L49.1592 54.53L49.4392 54.32L49.5092 54.18L50.4192 53.41L50.4892 53.34L50.6292 52.99L52.2392 51.52L52.8692 50.75L53.2192 50.26L53.4292 49.98L54.4092 48.65L54.8292 48.23L54.7592 48.16H54.8992L55.0392 48.02L55.1792 47.74L55.3892 47.11L55.7392 46.83L55.9492 45.99L56.7892 45.01L56.8592 44.73V44.59L56.7192 44.31H56.9292L57.2792 42.98L57.1392 42L56.9992 38.64L56.7892 38.36L56.7192 37.94L56.4392 38.01L56.5092 37.73H56.4392L56.2992 37.94L55.8792 38.36L55.7392 38.43L55.3892 38.85L53.1492 41.37L51.8192 42.42L48.8092 45.43L48.1792 45.78L47.6192 46.34L47.5492 46.48L44.5392 48.72L43.8392 49.21L43.6992 49.35L43.3492 49.63L43.1392 49.91L42.0892 50.75L41.1092 51.17L40.3392 51.52L40.2692 51.66L40.1992 51.87L40.0592 53.34ZM40.9692 47.74L41.1792 47.81V47.95L42.7192 47.74L43.8392 47.11L44.5392 46.97L44.6092 47.04L44.8892 46.69L45.1692 46.62L45.7292 46.13L46.7792 45.57L47.8292 44.87L49.6492 43.19L49.9292 43.05L50.1392 42.84L50.4892 42.63L51.6792 41.51L51.8892 41.3L52.1692 41.09L52.2392 41.02L52.3792 40.81L52.4492 40.74L52.5892 40.67L52.9392 40.39L54.4092 38.85L54.7592 38.36L54.8292 38.15H55.0392L55.7392 37.31L55.8792 37.17L56.0892 37.03L56.2292 36.96L56.7192 36.47L56.7892 36.19L56.6492 35.84L56.5092 35.56L56.2992 35.35L56.0192 35.07L55.8792 35L55.5292 34.79L55.1792 34.3L54.6892 34.16L54.5492 34.23L54.3392 34.3L53.6392 34.09L52.5192 34.23L50.2092 35.42L48.6692 36.61L46.8492 37.73L46.7092 38.08L46.0792 38.5L45.9392 38.85L45.6592 38.92H45.5192L45.3792 39.06L45.3092 39.27L44.9592 39.41L44.1892 40.6L44.0492 40.95L43.7692 41.23L43.3492 41.65L43.0692 42.35L42.9992 42.7L42.7892 42.84L41.8092 44.52L41.0392 46.62L40.9692 47.74ZM92.5745 27.37V28.84L92.5045 29.54L92.5745 29.89L92.6445 30.24L92.5045 31.71L92.3645 32.2L92.2945 32.27L92.5045 32.34L92.3645 34.16L92.7145 35.63L92.6445 37.17L92.5745 37.45L92.6445 37.59L92.5745 39.34L92.7145 40.25V41.51L92.5045 42.56L92.7845 42.7L92.8545 43.61L93.1345 44.94L92.8545 45.01L93.0645 45.22L93.4145 46.55L93.1345 46.62L93.4145 46.9L93.5545 48.23L94.3245 49.7V49.91H94.6045L95.0245 51.17L95.6545 52.57V52.71L96.4945 54.04L97.3345 54.46L98.3145 54.95L99.9245 54.53L100.205 54.88L99.5745 55.65L98.1045 56.14L97.4745 56.42L96.5645 56.56L95.7945 56.42L95.3745 56.21L94.4645 55.86L94.0445 55.23L93.3445 54.88L92.0145 54.11L91.5945 53.2L91.1745 52.36L90.0545 51.03L89.7045 50.68L89.6345 50.19L89.2845 49.77L89.3545 49.35L88.7945 47.74L88.4445 46.62V45.57L88.6545 45.43L88.3045 44.45L88.2345 43.47L88.0245 42.35L87.9545 41.3L87.8145 40.25L88.0245 40.11L87.8145 39.97L87.7445 39.13L87.1845 40.67L86.4845 42L85.7845 43.47L85.3645 44.1H85.2245L85.1545 44.45L85.0145 44.8L84.3145 46.2H84.1745V46.41H84.3145L83.7545 47.6L83.0545 49L82.2145 50.4L81.7245 51.38L80.9545 52.15L79.7645 53.9L79.2745 54.46L78.7845 54.81L77.7345 55.58L76.6845 56.07L75.6345 56.56L74.9345 56.7L74.3045 56.49L74.2345 56.63L72.9745 56.49L72.1345 55.86L71.5045 54.95L71.1545 54.18L71.0145 53.83L71.0845 53.48L70.9445 52.64L70.8745 51.87L70.8045 50.4L70.8745 49.14L71.2945 48.86L71.0845 48.72L71.0145 48.02L71.1545 47.39L71.5045 47.25L71.2245 47.11V46.48L71.2945 45.85V44.17L71.7145 43.4L71.7845 42.63L72.0645 42.56V41.72L72.1345 40.88L72.2745 40.11L72.4845 39.27V37.73V36.12L72.3445 36.05L72.5545 35.91L72.1345 34.51L72.2745 33.04L71.9945 31.92L71.7845 31.5L71.4345 31.15L70.6645 30.59L69.6845 30.66L68.3545 31.43L68.1445 31.29L68.0045 31.57L67.0945 32.27L66.1845 32.69L65.9745 32.62L65.3445 33.25L64.9245 33.11L64.7845 32.9L65.3445 32.2L66.1145 31.64H66.1845L67.5845 30.52L68.9845 29.47L70.4545 28.35L71.5045 27.65L72.7645 27.02L73.1145 26.88H73.4645H74.3745L74.8645 26.95L75.3545 27.02L75.6345 27.72H75.7745L76.1945 28.42L76.3345 29.54L76.1245 30.66L75.9845 30.73V32.97V34.58L75.7745 35.42L75.5645 36.19L75.1445 37.94L74.8645 38.22L75.0745 38.43L75.0045 39.27L74.8645 40.11L75.0745 40.39L75.0045 40.67L74.7245 42.21L74.1645 43.96V45.15L73.9545 46.34L73.8145 46.41V48.72L74.0245 49.7V50.89L74.5145 52.08L74.9345 52.78L75.5645 53.2L76.1945 53.55H76.8945L77.5945 53.34L77.8045 53.55L78.7145 52.92L79.3445 52.22L79.9745 51.38L80.6745 50.54L81.0245 49.77L81.3745 48.93L81.8645 48.23L82.2845 47.53L82.6345 46.55L83.0545 45.57L83.4045 44.59L83.8245 43.61L84.3145 42.98L85.1545 41.3L85.4345 39.55H85.5745L86.2045 38.01L86.9045 36.4L87.2545 34.58L87.5345 32.83V32.55L87.6045 32.13L87.8845 30.66L88.3745 29.19L88.7945 28.63L89.6345 28.28L90.4745 27.93L91.5245 27.65L92.5745 27.37ZM110.482 60.83V61.18L108.102 60.41L107.752 60.13L106.982 59.99L106.702 59.71L106.632 59.57L106.212 58.94L105.932 58.8L105.792 58.59L105.512 58.17L104.882 57.54L104.812 57.26L102.852 56L102.502 55.58L102.082 54.25L102.292 53.27L102.152 53.2L102.222 52.78L102.152 52.71L102.012 50.19L102.292 49.07L102.362 47.25V46.97L102.502 46.76L102.712 45.01V42.28H102.572L102.502 40.53L102.782 38.29L102.572 37.87L102.502 31.43L102.292 30.66L102.572 29.12L102.712 25.13V24.92L102.852 24.29V19.25L102.992 18.41L102.782 17.08L102.712 14.28L102.642 14.07L102.502 13.79L102.362 13.51H102.222L102.292 11.06V10.78L102.502 9.94L102.012 8.96V8.05L101.942 7.91L101.872 7.35V6.3L101.802 5.74L101.872 5.53L102.012 5.25L102.152 5.04L103.062 4.13L103.762 3.99L104.252 3.85V3.78L104.392 3.71H104.672L104.952 3.99L104.882 4.06L105.092 4.9L105.232 6.16L105.722 7.42V9.1L105.862 10.5L106.562 11.41L107.332 11.62L107.542 12.11V13.51L107.192 13.86L107.332 14.35V14.56V14.7L107.262 14.84L107.192 15.05L106.702 18.97V20.44L106.422 21.28V23.59L106.352 23.73L106.282 24.22V25.41L106.352 25.62L106.282 25.76V28.56L106.212 28.7L106.142 29.19L106.352 29.26L106.282 30.31L106.142 30.87L106.002 34.51L106.142 37.1L105.932 38.01L106.072 39.69L106.002 40.18L106.142 40.81L106.002 41.23L106.212 46.76L106.702 49.91L106.492 51.73L106.772 52.43L106.562 53.2L106.982 53.97L107.052 54.53V54.74L107.262 55.58L108.032 57.4L108.662 57.89L109.222 59.08L109.502 59.64L109.852 60.13L110.482 60.83ZM125.956 35.91L124.416 36.19L121.476 36.26L120.356 36.19L120.146 35.98L119.586 36.05L119.796 36.19L119.656 36.33L119.446 36.26L119.236 38.15L119.376 38.57L119.096 43.4L119.236 43.54L119.306 43.61L119.236 46.27L119.166 46.41L119.026 46.62V46.76L119.236 47.04L119.306 47.46L119.166 50.61L119.306 50.89L119.236 51.03L119.166 51.31L118.816 52.71L119.096 53.27V54.25L119.236 54.32L119.306 54.6V54.74L119.376 55.23V55.44H119.236L119.376 55.58L119.306 55.86L118.046 56L116.786 56.63L116.366 56.84L116.086 56.91L115.806 56.84L115.666 56.56V55.93V55.51L115.876 55.16V54.11L115.946 53.76V53.27V52.5L116.016 52.29V52.08L115.946 51.87L115.736 51.31L115.806 50.12L115.946 49.77V49.56L115.876 49.28L115.806 49.07L115.386 47.46L115.456 46.06L115.316 45.92L115.526 45.85V44.94L115.666 42.91L116.086 42.63L115.876 41.65L115.806 39.34L115.876 36.96L114.476 36.82L114.056 36.61L113.356 36.68L111.746 36.89L110.976 36.61L110.486 35.84L109.716 35.63L109.366 35.35L109.716 35.07L110.136 35.14L112.866 35.07L113.776 34.93L114.896 34.86L115.666 34.72L115.736 34.51L115.946 34.44L116.296 33.81L116.016 33.04L115.946 32.62V32.41L116.086 32.06L115.946 31.43L116.086 31.36L116.016 31.29L115.806 30.87L115.876 30.52L115.526 26.18V25.97L115.386 25.48L115.876 24.64L115.736 24.29L115.526 24.08L115.386 23.66V21.49L115.246 21.42L115.106 20.86L114.896 20.58L115.176 19.74L116.156 19.46L116.716 18.9L116.856 17.78L116.646 16.94L116.996 15.12L116.926 14.98V14.28L117.136 11.69L116.926 10.85V10.57L116.786 10.22L116.226 10.08L115.946 9.94L115.666 9.87L115.176 10.01L114.826 9.24L114.756 8.26L115.036 7.56L114.896 6.3L114.966 6.09L115.036 5.88L115.176 5.74L115.246 5.11L115.036 4.9V4.55H114.896L115.596 3.5L116.506 3.08L116.926 2.66L117.416 2.17L118.396 0.769998L118.886 0.839997L119.026 1.4L119.096 2.52L119.236 2.87L119.166 3.71L119.376 4.41L119.446 4.83L119.376 5.04L119.306 5.25L119.446 5.67L119.516 5.88L119.446 6.02L119.236 6.37L119.516 7L119.236 8.54L119.516 9.52L119.586 10.85L119.516 11.2L119.726 11.62L119.516 15.82L119.796 16.1L119.586 16.8L119.726 16.87L119.516 17.01H119.726L119.376 19.32L119.586 21L119.376 21.56L119.516 22.26L119.376 23.38L119.516 24.36L119.236 26.18L119.306 26.53L119.446 27.02L119.516 27.09L119.586 28.14L119.236 29.4V33.53L118.956 33.81L118.816 34.09L119.166 34.37L119.376 34.65L120.286 34.79L120.776 34.65L121.196 34.86L122.386 34.58L124.136 34.72L125.186 35.28L125.956 35.91ZM151.583 54.88L151.233 55.44L151.023 55.65L150.813 55.72L150.463 55.79L150.183 56L149.553 56.49L147.593 56.7L147.033 56.49L145.423 55.16L145.283 54.67L144.723 54.11L144.583 53.9L144.373 53.83L143.673 52.36L143.533 51.52L143.043 51.17L142.903 50.75H142.693L142.063 46.41L141.783 45.64L141.573 39.97L141.713 39.62L141.643 39.34L141.573 39.2V38.29L141.783 37.17L141.433 35.14V33.18L141.013 33.11L140.873 33.18L140.383 34.3L139.613 37.1L139.543 37.87L138.773 40.46L138.073 43.54L137.863 45.99L137.303 47.04L137.093 48.58L136.253 50.82L135.833 51.45L135.343 52.71L135.203 52.85L135.133 53.13V53.27L134.853 54.25L134.293 54.88L134.083 55.58L134.013 55.65L133.523 56.35L133.383 56.7L132.193 57.68L131.423 58.03L130.863 58.45L130.373 58.66L130.163 58.87L129.673 58.73L129.113 58.59L128.413 57.26L128.203 56.14L127.713 55.02L127.853 53.62L127.713 52.22L127.573 47.53L127.643 47.25V46.97V46.9L127.573 45.92L127.713 44.31L127.853 43.96V42.84L127.783 42.42L127.923 41.93L128.063 41.09L127.993 38.99L128.203 37.73L128.273 34.02L128.133 33.67L128.273 32.97L128.343 32.41L128.483 31.92V29.68L128.833 25.2L129.043 24.92V21.14L129.183 20.72V19.04H129.043L128.973 18.83L129.043 18.55L129.253 17.85L128.833 16.87L128.973 16.8L128.693 14.91L128.763 12.53L128.623 11.97L128.483 8.75L128.273 8.05L128.203 7.91L127.923 6.02L129.183 4.69L130.023 4.27H130.163V4.13L131.003 3.15L132.123 3.36L132.753 6.09L132.963 10.99L133.033 11.41L132.963 11.9L132.893 12.25L132.753 12.53L132.683 13.86L132.823 14.77L132.683 17.22L132.403 18.76L132.333 20.93V21.21L132.263 21.63L132.193 22.19L132.123 22.33L131.913 26.39L131.983 29.19L131.913 29.33L132.053 29.54L131.773 32.69L131.633 33.25V36.26L131.563 36.61L131.493 36.75L131.143 41.51L131.213 41.93V46.9L131.353 47.25L131.283 49.35L131.563 51.1L131.493 51.59L132.123 54.11L132.963 53.41L133.943 51.66V50.89L134.503 50.12L134.643 49.84V49.7V49.56L134.503 49.42L134.643 48.79L135.413 47.11L136.603 43.82L136.673 42.56H136.883L137.513 39.97L139.193 34.09L139.543 33.39V33.25L139.823 32.76L140.033 32.2L141.013 29.19L142.203 28.14L142.413 27.86L142.833 27.58L144.093 26.67L144.653 26.81L144.793 26.95L145.423 28.7L145.563 29.54L145.773 35.42H145.703V38.29L145.633 38.71L145.703 39.2L145.843 40.11L145.773 41.65L145.983 42L146.053 42.42L146.403 46.55L146.963 48.58L147.523 49.91L149.063 52.36L149.203 52.43V52.57L149.413 52.85L150.673 53.83L150.743 53.97L151.023 54.32L151.583 54.88ZM176.792 38.99L176.302 40.32V40.81L176.092 41.23L175.952 41.44H175.882L176.162 42.28L174.482 45.22L174.342 45.36L174.202 45.71L173.922 46.2L173.082 47.11L172.172 48.44L172.032 48.79L171.262 49.56L170.772 50.33L170.142 50.82L169.722 51.38L169.582 51.45L169.512 51.59L168.812 52.22L168.322 52.85L168.182 53.06L167.762 53.41L164.402 55.3L163.352 55.51L161.952 56.07H158.942L157.542 55.72L156.352 55.23L155.232 54.18L154.952 53.83L154.462 53.34L154.042 52.92L153.762 52.01L153.482 51.59L153.412 51.45V51.1L153.062 50.05V48.93L152.922 48.58L153.062 47.32V46.69L153.132 46.34L153.412 45.15L153.482 44.38L153.412 43.96L153.272 43.68L152.922 43.47L152.712 42.56L152.082 41.65V40.11L152.152 39.48L152.292 39.27L152.572 38.43L153.412 36.82L154.882 34.79L156.632 32.97L156.842 32.55H157.052V32.41L157.682 31.85L159.362 30.59L159.852 30.31L160.272 30.03L164.332 28L165.382 27.79L165.732 27.58L166.362 27.37L166.992 27.16L167.762 27.3L168.672 26.95L169.512 27.02L170.702 27.44L171.122 28.42L171.822 28.91L172.172 29.26L172.522 29.54L172.732 29.82L173.012 30.03L173.152 30.38L173.642 30.87L173.852 31.01L174.062 31.36L174.692 32.13L175.042 31.99L174.902 31.64L174.972 31.5L175.112 31.36L175.392 31.29H175.602L175.882 31.5L176.232 32.06L176.652 33.18L176.932 34.3V35L177.072 35.42L177.142 36.4L177.002 36.47L177.072 37.17L176.932 38.85L176.792 38.99ZM174.552 35.63L174.412 35.14L174.062 34.72L173.782 33.6H173.712L173.362 33.18L172.942 32.48L171.612 30.94L171.192 30.8L171.122 30.66L170.282 30.31L170.142 30.17H170.002L169.372 29.68L169.022 29.61L168.812 29.82L168.742 30.1H168.602L167.902 29.61L167.132 29.54L166.922 29.61L166.712 29.54L166.362 29.47L166.222 29.33L165.522 29.47L164.332 29.96L164.052 30.17L163.772 30.38L163.632 30.45V30.52L163.142 31.08L163.002 31.15L162.652 31.71L161.882 32.55L161.252 32.97L159.852 34.58L159.572 34.86V35L158.802 36.19L158.662 36.4L158.592 36.61L158.452 36.68L157.752 37.38L157.332 38.57L156.912 39.27L156.562 39.69L156.422 39.76L156.282 40.39L156.002 41.37V41.51L155.862 42.07L156.072 42.35V42.63L156.492 42.77L156.632 42.91L157.822 43.75L158.172 43.96H158.242L158.452 43.89L158.662 43.82L159.222 44.03L159.922 45.92L158.102 46.2L157.612 46.55L156.422 46.69L155.862 46.9V47.81L156.002 48.09L156.352 48.72L156.912 49.84L157.122 50.12L157.192 50.4L158.032 51.38L158.242 51.45L158.802 51.52L159.292 51.73L159.992 52.43L161.182 52.5L162.372 52.78L163.982 52.57L164.332 52.5L164.962 52.64L165.802 52.08L166.082 52.01L166.502 51.87L166.922 51.66L167.202 51.52L167.552 51.31L168.252 50.82L168.462 50.68L168.812 50.4H168.952L169.442 49.84L169.582 49.63L170.072 49.21L170.492 48.72L170.912 48.23L171.122 48.09L171.402 47.67L171.612 47.32L171.752 47.11L172.732 45.64L173.922 43.05V42.91L174.202 42.07L174.552 41.02L174.832 39.55L174.902 38.92L175.042 38.64L174.972 38.08L174.832 37.66L174.762 37.45L174.692 36.61L174.622 36.26L174.552 35.84L174.412 35.77L174.552 35.63ZM160.692 31.78L160.272 31.57L157.822 33.46L157.332 34.09L157.262 34.37L156.772 34.72L156.212 35.49L156.002 35.84L155.862 35.98L155.722 36.12L154.882 37.24L154.462 38.29L154.532 40.74L154.812 40.88L155.022 40.67L154.952 40.6H155.162L155.862 38.99L156.002 38.71L156.422 38.15V38.08L156.632 37.59L156.982 36.61L157.262 36.47L157.612 35.84L157.752 35.28L158.312 34.86L158.452 34.72L158.872 34.23L159.082 33.88L159.852 33.04L159.922 32.9L160.202 32.62L160.272 32.48L160.412 32.27L160.622 31.99L160.692 31.78ZM204.682 38.99L204.192 40.32V40.81L203.982 41.23L203.842 41.44H203.772L204.052 42.28L202.372 45.22L202.232 45.36L202.092 45.71L201.812 46.2L200.972 47.11L200.062 48.44L199.922 48.79L199.152 49.56L198.662 50.33L198.032 50.82L197.612 51.38L197.472 51.45L197.402 51.59L196.702 52.22L196.212 52.85L196.072 53.06L195.652 53.41L192.292 55.3L191.242 55.51L189.842 56.07H186.832L185.432 55.72L184.242 55.23L183.122 54.18L182.842 53.83L182.352 53.34L181.932 52.92L181.652 52.01L181.372 51.59L181.302 51.45V51.1L180.952 50.05V48.93L180.812 48.58L180.952 47.32V46.69L181.022 46.34L181.302 45.15L181.372 44.38L181.302 43.96L181.162 43.68L180.812 43.47L180.602 42.56L179.972 41.65V40.11L180.042 39.48L180.182 39.27L180.462 38.43L181.302 36.82L182.772 34.79L184.522 32.97L184.732 32.55H184.942V32.41L185.572 31.85L187.252 30.59L187.742 30.31L188.162 30.03L192.222 28L193.272 27.79L193.622 27.58L194.252 27.37L194.882 27.16L195.652 27.3L196.562 26.95L197.402 27.02L198.592 27.44L199.012 28.42L199.712 28.91L200.062 29.26L200.412 29.54L200.622 29.82L200.902 30.03L201.042 30.38L201.532 30.87L201.742 31.01L201.952 31.36L202.582 32.13L202.932 31.99L202.792 31.64L202.862 31.5L203.002 31.36L203.282 31.29H203.492L203.772 31.5L204.122 32.06L204.542 33.18L204.822 34.3V35L204.962 35.42L205.032 36.4L204.892 36.47L204.962 37.17L204.822 38.85L204.682 38.99ZM202.442 35.63L202.302 35.14L201.952 34.72L201.672 33.6H201.602L201.252 33.18L200.832 32.48L199.502 30.94L199.082 30.8L199.012 30.66L198.172 30.31L198.032 30.17H197.892L197.262 29.68L196.912 29.61L196.702 29.82L196.632 30.1H196.492L195.792 29.61L195.022 29.54L194.812 29.61L194.602 29.54L194.252 29.47L194.112 29.33L193.412 29.47L192.222 29.96L191.942 30.17L191.662 30.38L191.522 30.45V30.52L191.032 31.08L190.892 31.15L190.542 31.71L189.772 32.55L189.142 32.97L187.742 34.58L187.462 34.86V35L186.692 36.19L186.552 36.4L186.482 36.61L186.342 36.68L185.642 37.38L185.222 38.57L184.802 39.27L184.452 39.69L184.312 39.76L184.172 40.39L183.892 41.37V41.51L183.752 42.07L183.962 42.35V42.63L184.382 42.77L184.522 42.91L185.712 43.75L186.062 43.96H186.132L186.342 43.89L186.552 43.82L187.112 44.03L187.812 45.92L185.992 46.2L185.502 46.55L184.312 46.69L183.752 46.9V47.81L183.892 48.09L184.242 48.72L184.802 49.84L185.012 50.12L185.082 50.4L185.922 51.38L186.132 51.45L186.692 51.52L187.182 51.73L187.882 52.43L189.072 52.5L190.262 52.78L191.872 52.57L192.222 52.5L192.852 52.64L193.692 52.08L193.972 52.01L194.392 51.87L194.812 51.66L195.092 51.52L195.442 51.31L196.142 50.82L196.352 50.68L196.702 50.4H196.842L197.332 49.84L197.472 49.63L197.962 49.21L198.382 48.72L198.802 48.23L199.012 48.09L199.292 47.67L199.502 47.32L199.642 47.11L200.622 45.64L201.812 43.05V42.91L202.092 42.07L202.442 41.02L202.722 39.55L202.792 38.92L202.932 38.64L202.862 38.08L202.722 37.66L202.652 37.45L202.582 36.61L202.512 36.26L202.442 35.84L202.302 35.77L202.442 35.63ZM188.582 31.78L188.162 31.57L185.712 33.46L185.222 34.09L185.152 34.37L184.662 34.72L184.102 35.49L183.892 35.84L183.752 35.98L183.612 36.12L182.772 37.24L182.352 38.29L182.422 40.74L182.702 40.88L182.912 40.67L182.842 40.6H183.052L183.752 38.99L183.892 38.71L184.312 38.15V38.08L184.522 37.59L184.872 36.61L185.152 36.47L185.502 35.84L185.642 35.28L186.202 34.86L186.342 34.72L186.762 34.23L186.972 33.88L187.742 33.04L187.812 32.9L188.092 32.62L188.162 32.48L188.302 32.27L188.512 31.99L188.582 31.78ZM206.463 49.49L206.673 49.21L206.463 48.79L206.673 48.65V48.44H206.743V48.16L207.513 46.97L213.813 39.83L213.953 39.9L214.093 39.76L215.493 37.66L216.333 36.75L216.473 36.47L216.753 36.12L219.063 33.32L221.093 31.22L222.353 30.59L222.283 31.57L221.723 32.62L221.163 32.9L220.883 33.25L220.603 33.74L220.743 34.09H220.813L220.953 33.95H221.093L221.373 33.6L225.643 31.15L226.203 31.08L226.973 30.73L228.093 30.8L228.513 30.87L228.793 31.01H228.933L229.143 30.94L229.353 30.66L229.423 30.45V30.31L229.213 29.33L229.283 28L229.143 27.86V26.25L229.353 25.34L229.283 24.71V24.5L229.213 23.45L229.283 23.52L229.353 23.38V21.42L229.283 21.28L229.353 21.21L229.563 20.58L229.423 18.9L229.493 16.45L229.353 16.38L229.633 15.47L229.773 13.16L229.843 12.95H230.053L230.403 10.08L230.263 8.61L230.333 7.84L230.403 6.86V6.23L230.683 5.53L231.453 5.11L231.803 5.04L232.293 4.9H232.573L233.833 3.99L234.533 3.71L235.233 4.06L235.373 4.9L235.163 5.32L235.373 5.88L235.233 6.44L235.163 6.79L235.023 7.14L234.953 7.42V7.84L234.393 9.87L234.323 10.22V10.36L234.463 10.78L234.183 11.9L234.323 12.6L234.113 12.88L233.973 13.44L234.043 14.91L234.113 15.19V15.89L233.973 16.73L234.113 16.94L234.253 17.08V17.99L234.323 18.2V18.55L234.533 18.97L234.673 20.23L234.463 20.86L234.253 21.56V21.84L234.183 22.33L234.253 23.1L233.623 24.15L233.763 24.5L233.623 26.32L232.713 31.57L232.853 35.21L232.783 36.19L233.203 43.61L233.413 43.68L233.483 44.17L233.553 45.57L234.323 49.28L234.603 50.33L234.883 50.68L234.813 50.96L235.233 51.59V51.73L235.373 52.15L236.983 55.3L236.913 55.58L236.633 55.93L236.283 56.07L236.073 56L235.933 55.93L235.093 55.16L233.833 55.65L233.063 55.02L232.923 54.46L232.573 54.18L232.293 53.41L232.013 53.34L231.733 53.13L231.523 52.78L231.173 52.22L231.103 51.73L230.893 51.52L230.263 50.26L230.053 49.98H229.913L229.633 49.28L229.213 48.3L229.283 48.16H229.353L229.073 47.88L228.863 47.53L228.233 47.74L227.953 48.23L227.743 48.51L227.673 48.72L227.393 49.21L227.323 49.28L227.183 49.35L226.973 49.7L225.853 51.17L222.073 55.37L221.023 55.86L218.223 58.45L218.083 58.52L217.733 58.66L217.453 58.73L217.313 58.87L217.243 58.94L216.893 59.15L216.543 59.43L216.333 59.5L214.793 60.13L213.603 60.41L212.273 60.2L210.803 59.64L210.243 59.01L209.473 57.47L208.843 54.81L209.053 53.48L208.773 52.85L208.703 51.52L207.443 50.96L207.023 50.47L206.673 50.12L206.463 49.49ZM211.573 53.34L211.713 54.53L212.343 55.72L213.113 56.42H213.253L213.603 56.7H215.283L215.703 56.84L218.153 55.93L218.643 55.86L220.463 54.74L220.673 54.53L220.953 54.32L221.023 54.18L221.933 53.41L222.003 53.34L222.143 52.99L223.753 51.52L224.383 50.75L224.733 50.26L224.943 49.98L225.923 48.65L226.343 48.23L226.273 48.16H226.413L226.553 48.02L226.693 47.74L226.903 47.11L227.253 46.83L227.463 45.99L228.303 45.01L228.373 44.73V44.59L228.233 44.31H228.443L228.793 42.98L228.653 42L228.513 38.64L228.303 38.36L228.233 37.94L227.953 38.01L228.023 37.73H227.953L227.813 37.94L227.393 38.36L227.253 38.43L226.903 38.85L224.663 41.37L223.333 42.42L220.323 45.43L219.693 45.78L219.133 46.34L219.063 46.48L216.053 48.72L215.353 49.21L215.213 49.35L214.863 49.63L214.653 49.91L213.603 50.75L212.623 51.17L211.853 51.52L211.783 51.66L211.713 51.87L211.573 53.34ZM212.483 47.74L212.693 47.81V47.95L214.233 47.74L215.353 47.11L216.053 46.97L216.123 47.04L216.403 46.69L216.683 46.62L217.243 46.13L218.293 45.57L219.343 44.87L221.163 43.19L221.443 43.05L221.653 42.84L222.003 42.63L223.193 41.51L223.403 41.3L223.683 41.09L223.753 41.02L223.893 40.81L223.963 40.74L224.103 40.67L224.453 40.39L225.923 38.85L226.273 38.36L226.343 38.15H226.553L227.253 37.31L227.393 37.17L227.603 37.03L227.743 36.96L228.233 36.47L228.303 36.19L228.163 35.84L228.023 35.56L227.813 35.35L227.533 35.07L227.393 35L227.043 34.79L226.693 34.3L226.203 34.16L226.063 34.23L225.853 34.3L225.153 34.09L224.033 34.23L221.723 35.42L220.183 36.61L218.363 37.73L218.223 38.08L217.593 38.5L217.453 38.85L217.173 38.92H217.033L216.893 39.06L216.823 39.27L216.473 39.41L215.703 40.6L215.563 40.95L215.283 41.23L214.863 41.65L214.583 42.35L214.513 42.7L214.303 42.84L213.323 44.52L212.553 46.62L212.483 47.74ZM284.612 17.29L284.472 18.62H284.542L284.612 18.76L284.542 19.04L284.402 19.46L284.332 19.95L284.122 20.3L283.842 21.56L282.372 23.24L282.022 23.73L281.952 24.01L281.042 24.85L280.552 25.13L280.412 25.2L280.272 25.27L278.732 26.18L278.172 26.11L277.612 26.67L277.402 26.81L276.912 27.23L276.702 27.3L276.492 27.37L276.212 27.3V27.16L276.002 27.3L274.182 27.65L273.972 27.79L273.692 27.86H273.482L272.642 28.07L272.502 28.14L272.362 28.21L272.292 28.35L270.402 28.49L269.142 29.05L267.672 28.91L267.252 28.77H266.762L266.412 28.63H266.272L265.922 28.7L265.712 28.98V29.68L265.572 29.82V30.03V30.24L265.432 30.38L265.362 31.08L265.082 31.5V32.48L264.942 32.9L264.872 34.16L264.592 35.35L264.662 36.05L264.312 36.96V37.59L264.172 38.15L263.962 38.5L263.892 39.27L263.822 40.25L263.472 41.3L263.402 41.58L263.542 42.21L262.912 44.45L262.492 50.19L262.282 55.02L262.352 55.65L262.282 55.79L261.862 56.14L261.512 56.21L260.882 56.28V56.49L259.412 57.26H258.992L258.852 57.12L258.712 56.56L258.642 54.39L258.502 53.41L258.642 52.57L258.222 50.47L258.502 49.7L258.432 49.49L258.292 49.07L258.082 48.44L258.012 47.81L257.662 45.85L257.732 45.01L257.662 44.73V44.66V44.52L257.732 44.24V44.1V43.96L257.522 43.61L257.452 41.79L257.592 41.65V41.44L257.312 40.53V40.39L257.382 40.25L257.522 40.04L257.872 39.27L257.242 38.5L257.312 37.59L257.382 37.38V37.17L257.312 36.54L257.452 36.19L257.382 35.98L257.172 35.7L257.032 35.63L257.102 34.72L257.172 34.44L257.102 34.3L256.892 34.02L256.752 32.06H256.892V31.57L256.612 30.73L256.822 29.47L256.752 28.7L256.052 26.67L256.262 26.46L257.312 26.95L258.082 26.67L258.292 26.25L258.432 25.13L258.572 24.57V24.36H258.362L258.222 24.29L257.732 23.59L257.312 22.68L256.192 22.33L255.562 22.12L255.422 21.98L254.862 21.7L254.092 20.51L253.882 19.67L254.022 19.46V19.32V19.18L253.952 19.04L253.812 18.83V17.78L254.092 17.01L254.302 16.59L254.442 16.38L256.612 13.79L258.082 12.88H258.432L259.062 12.32L260.112 11.9L261.022 11.27L264.732 9.73L265.642 9.59L266.062 9.52L266.552 9.24H266.692V9.17L269.282 8.54L269.212 8.68L269.492 8.75H269.632L269.982 8.47L270.822 8.19H271.102L271.382 8.05L276.002 8.26L276.072 8.12H276.282L277.402 8.4L280.622 10.29L281.462 11.48L281.742 11.55L281.952 11.76L282.162 11.9L283.002 12.6L283.282 13.09L283.562 13.93L283.632 14L283.282 14.42V14.56L283.492 14.77L283.982 14.98L284.262 15.19L284.402 15.4L284.472 15.54L284.542 15.75L284.472 16.8L284.612 17.29ZM281.112 17.01L280.622 16.38V15.89L280.482 15.68V15.33L280.062 14.56L279.782 14.21L279.502 13.65L279.222 13.44L278.942 13.09L278.452 12.6L278.312 12.53V12.46L278.172 12.32L278.032 12.25L277.822 11.97L277.262 11.62L277.122 11.48L276.772 11.27L275.372 10.5L274.182 10.08H273.832L273.202 9.87L272.922 10.08L271.172 9.8L270.962 9.94L269.702 9.87V9.94L269.072 10.15H268.862L268.232 10.08V10.22H267.882L267.392 10.5L266.202 10.85L265.642 10.78L265.502 10.92L264.242 11.55L263.472 11.62L260.882 12.74L260.322 13.23L259.552 13.72L259.132 14.14L258.642 14.7L258.152 14.98L257.942 15.12H258.152L257.872 16.24L258.012 16.45L258.152 16.59V16.8L258.572 17.43L260.112 18.69L260.392 18.83L260.462 18.9L262.002 19.74L262.212 20.09V20.23L261.512 20.86L260.742 21.14L260.392 21.49L260.252 21.63L259.622 21.98L258.992 22.4L259.202 23.17L259.272 23.38L259.062 24.43L258.992 24.64L258.922 25.13V26.46L259.132 27.3L259.202 28.7L258.922 29.4H259.062V29.61V29.82L259.202 30.45L259.412 31.01L259.482 31.57L259.552 31.78L259.342 32.69L259.622 33.32V34.16L260.042 35.14L259.902 35.98L260.042 36.47L260.252 38.29L260.532 39.48L260.742 39.9L261.372 39.83L261.442 39.41L261.582 39.27L261.862 36.12L262.212 35.21L262.562 32.83L262.772 32.2V31.92L262.702 31.57V31.43L262.562 31.29L262.632 30.52L262.912 29.82V29.61L262.772 29.12L262.702 28.98V27.93L261.792 28.14L261.302 27.79L261.232 27.44L261.302 27.23L261.652 26.88L262.002 26.81L262.562 27.02L262.912 26.81L262.982 26.6L262.912 26.32L262.702 25.76L262.772 24.99L262.562 24.85L262.422 21.63L263.402 21.28L264.032 20.93L264.732 20.58L265.012 20.65L265.782 21.07V21.35L265.852 21.56L266.202 24.5L265.922 25.34L266.132 27.09L267.042 27.3L269.702 27.37L269.912 27.23L270.402 27.16L270.962 27.09L273.482 26.6L273.902 26.53L274.252 26.39L274.812 26.18H275.442L275.512 25.97H275.722L276.072 25.76L276.492 25.62L277.752 24.78L278.382 24.57V24.36L278.452 24.29L278.872 24.01L279.782 23.24L279.852 23.1L279.922 22.54L280.132 22.4L280.342 21.98L280.622 21.84L280.482 21.42L281.112 20.16L281.042 19.81L281.112 19.46L281.182 18.76L281.112 18.13L280.972 17.78L281.042 17.5L281.112 17.01ZM296.761 60.83V61.18L294.381 60.41L294.031 60.13L293.261 59.99L292.981 59.71L292.911 59.57L292.491 58.94L292.211 58.8L292.071 58.59L291.791 58.17L291.161 57.54L291.091 57.26L289.131 56L288.781 55.58L288.361 54.25L288.571 53.27L288.431 53.2L288.501 52.78L288.431 52.71L288.291 50.19L288.571 49.07L288.641 47.25V46.97L288.781 46.76L288.991 45.01V42.28H288.851L288.781 40.53L289.061 38.29L288.851 37.87L288.781 31.43L288.571 30.66L288.851 29.12L288.991 25.13V24.92L289.131 24.29V19.25L289.271 18.41L289.061 17.08L288.991 14.28L288.921 14.07L288.781 13.79L288.641 13.51H288.501L288.571 11.06V10.78L288.781 9.94L288.291 8.96V8.05L288.221 7.91L288.151 7.35V6.3L288.081 5.74L288.151 5.53L288.291 5.25L288.431 5.04L289.341 4.13L290.041 3.99L290.531 3.85V3.78L290.671 3.71H290.951L291.231 3.99L291.161 4.06L291.371 4.9L291.511 6.16L292.001 7.42V9.1L292.141 10.5L292.841 11.41L293.611 11.62L293.821 12.11V13.51L293.471 13.86L293.611 14.35V14.56V14.7L293.541 14.84L293.471 15.05L292.981 18.97V20.44L292.701 21.28V23.59L292.631 23.73L292.561 24.22V25.41L292.631 25.62L292.561 25.76V28.56L292.491 28.7L292.421 29.19L292.631 29.26L292.561 30.31L292.421 30.87L292.281 34.51L292.421 37.1L292.211 38.01L292.351 39.69L292.281 40.18L292.421 40.81L292.281 41.23L292.491 46.76L292.981 49.91L292.771 51.73L293.051 52.43L292.841 53.2L293.261 53.97L293.331 54.53V54.74L293.541 55.58L294.311 57.4L294.941 57.89L295.501 59.08L295.781 59.64L296.131 60.13L296.761 60.83ZM331.136 53.69V54.04L330.786 54.25L330.436 54.53L328.756 55.72L327.356 56.28L327.076 56.35L327.006 56.14H326.376L325.396 55.37L324.276 53.69L323.716 53.06L323.366 51.94L322.526 50.47L322.316 50.19L322.246 49.84L321.896 49.56L321.826 49.28L321.616 48.72L321.546 47.95L320.986 46.83L320.916 45.71L320.706 45.43L320.496 44.8L320.426 44.17L320.006 43.61H319.796H319.656L319.446 43.89V44.1H319.306V44.24L319.166 44.59L317.626 46.97L316.226 48.44L316.016 48.93L314.406 50.33L313.846 51.1L313.076 51.52L312.586 52.08L311.326 52.85L310.696 53.06L310.346 53.34L309.646 53.62L309.436 53.9L309.016 53.97L307.826 54.88L307.056 55.02L305.936 55.65L303.626 56.42L302.926 56.35L302.506 56.7L301.806 56.49L300.266 55.58L299.706 55.09H299.426L299.076 55.3L298.586 55.72L298.096 55.65L297.816 55.79L296.906 55.44L295.436 54.67L294.946 53.62L295.086 51.52L295.296 51.24V51.03L296.346 49.56L296.556 49.35L296.906 48.86L297.466 47.74L299.706 45.71L299.986 45.57L300.056 45.43L300.546 45.15L300.896 44.66L301.596 44.17L302.366 43.4L303.556 42.7L303.836 42.49L303.976 42.42L304.046 42.21L304.256 42.14L304.746 41.72L304.886 41.65L304.956 41.37L305.236 40.95L306.146 40.46H306.496L307.546 39.76L308.316 39.55L308.806 39.2L309.226 39.06V38.92L310.556 38.43L310.626 38.36L311.046 38.15L311.816 37.8L313.426 37.38L313.916 37.17L316.156 37.24L317.346 37.94L317.976 38.43L318.256 38.92H318.466L317.976 38.08L317.836 36.82L317.346 36.05L316.786 34.44L316.296 33.53L315.246 32.62L313.776 32.48L313.216 32.83L310.696 35.7L309.716 36.54L309.366 36.82L309.086 36.89L308.876 36.82L308.666 36.61V36.47L309.296 35.98V35.84L309.366 35.63L309.576 35.35L310.276 34.51L311.186 33.67L312.096 32.55L315.176 29.75L315.876 29.68L316.856 29.05L317.066 28.91H317.276L317.486 28.98L317.696 29.12L318.466 29.19L319.796 30.52L320.356 31.43L321.126 33.32L321.406 33.67L322.246 36.05V36.33L322.386 36.75L322.526 37.87L322.806 38.5V38.78L322.946 39.34L323.016 39.83L323.156 40.39L323.716 42.21L323.996 42.7L324.066 43.61L324.626 44.59L324.696 45.85L325.046 46.55L325.536 48.3L326.726 50.82L327.146 51.31L327.286 51.59L327.706 52.08L327.776 52.71L329.386 53.97L330.296 53.83L330.436 53.76L330.576 53.69H330.926H331.136ZM317.556 39.13L316.926 38.64L316.436 38.22L315.946 38.08L314.406 37.94L312.726 38.36L312.166 38.57L311.466 38.85L311.186 39.06L310.976 39.13L308.386 40.39L308.106 40.6L307.966 40.81L307.546 40.95L307.196 41.09L307.056 41.3L306.566 41.65L306.496 41.79L306.356 41.86L306.216 42L305.866 42.28L304.536 43.82L304.396 44.17L304.256 44.66L303.906 44.94L303.836 45.22L303.346 46.27L303.136 46.41L302.996 46.83L302.646 47.39L302.716 48.23L302.296 48.93L302.156 49.91L302.296 51.31L302.716 52.22L303.136 52.43L303.486 53.2L304.326 53.76L305.306 53.9L306.706 53.76L308.456 53.13L308.736 52.85L309.296 52.71L310.696 51.94L312.096 50.61L312.306 50.54L312.446 50.4L314.686 47.67L314.826 47.46L315.176 47.18L315.386 46.83L315.946 45.99L316.506 44.59L316.786 44.1L316.996 43.75V43.61L317.136 43.33L317.486 42.35V42L317.556 41.79L317.696 41.58V39.9L317.556 39.48V39.13ZM300.686 46.34L299.776 47.32L299.216 47.67L299.006 47.95L298.866 48.3L298.586 48.86L298.376 49.07V49.7L298.306 49.91L298.166 50.19L297.816 50.54L297.676 51.24L297.816 51.59L298.026 52.22L298.446 52.64L298.376 52.43H298.936L299.216 52.36L299.496 52.01L299.566 51.66V51.38L299.636 51.17L300.126 49.91L300.266 49.42L300.546 49.07V49L300.686 48.79L300.756 48.51L300.966 47.88L302.016 46.34L302.296 45.78L302.156 45.64L301.946 45.5L301.596 45.64L301.386 45.85V45.92L300.686 46.34ZM359.232 57.54H359.022L359.162 57.61L358.812 57.82L358.392 57.89L357.902 57.4L357.272 57.12L356.642 56.28L355.872 55.79L355.032 55.44L354.612 54.81L353.002 53.76L352.862 53.41L352.722 53.34L352.932 53.2L352.652 51.87L352.162 51.24L352.092 50.12V49.63L352.162 49.21L352.092 48.72L351.462 46.41L351.042 44.38L351.182 43.96L351.042 43.19L350.902 41.93L351.112 34.3L350.972 32.9L350.762 32.2L350.062 33.11L348.382 37.03L348.172 37.38L347.962 37.73L347.472 38.57L347.262 39.06L347.472 39.27L344.742 44.03L344.672 44.17L344.392 45.08L343.622 46.34L343.552 46.41V46.69L343.482 47.04L342.432 48.72H342.362L342.222 49.07L341.872 49.49L341.452 50.54L341.382 50.61L340.892 51.52L340.542 51.8L340.332 52.78L339.352 54.67L338.722 55.37L338.022 55.44L337.812 55.79L336.972 56.28L335.922 56.21L335.712 56.28L335.572 56.35H335.362L335.012 56.28L334.732 56V55.65L334.522 54.81L334.242 51.24H334.452L334.312 50.89L334.382 50.26V48.37L334.032 47.39L334.242 46.34L333.962 44.59V43.33L334.032 43.05V42.28L334.102 41.86L334.312 39.41L333.962 38.36L334.102 38.15L334.242 36.4L334.102 35.91L334.242 35.56L334.102 34.51L334.172 29.05L334.312 28.98L334.522 28.07L335.082 27.65L338.652 26.81L339.072 27.3L339.212 28.14L339.142 29.4L339.072 30.1L339.142 30.24L338.932 30.52L338.582 31.78L338.372 32.41L338.232 32.9L338.092 33.18L337.742 36.47L337.532 37.31L337.462 38.85L337.322 39.13L337.252 39.41V39.55L337.182 41.02L337.532 46.41L337.322 47.32L337.462 47.53V48.37L337.532 48.51L337.672 49.98V50.4L337.742 50.61L338.092 50.82H338.512L339.422 50.33L339.702 49.84L339.842 49.63L339.982 48.93L340.752 48.09L341.802 46.41V46.13L341.872 46.06L343.062 44.59L343.482 43.26L344.602 41.3L345.302 40.39L346.352 38.08V38.01L346.562 37.59L346.842 36.75L346.912 36.54L347.262 36.19L347.612 35.77L347.752 35.28L348.242 33.67L348.872 32.27L349.852 29.19L350.762 27.72L352.582 26.81H352.862L353.212 26.67L354.682 26.46L354.822 27.51L354.612 27.86L354.542 28.07L354.612 28.35L355.032 31.01L354.962 31.22L354.892 31.85L354.612 32.62L354.822 35.56L354.612 36.47V37.03L354.542 37.24L354.472 38.36L354.892 39.76L355.452 45.36L355.942 48.79L356.082 49.35L356.292 50.26V51.59L356.572 52.29L356.852 52.78L357.062 53.27L357.272 53.76L357.832 55.16L358.882 57.19L359.232 57.54Z" fill="#1E1E1E"/>
</svg>
