<svg width="326" height="92" viewBox="0 0 326 92" fill="none" xmlns="http://www.w3.org/2000/svg">
<path d="M31.64 42.07L31.36 44.94L31.01 46.27L30.73 46.9L30.52 47.04L30.38 47.18L30.31 47.32V47.53L29.47 49.14L29.33 49.21L29.12 49.63L27.79 50.96L27.16 51.31L26.67 51.87L26.39 52.22L26.04 52.5L25.55 52.78L24.64 53.2L24.57 53.34L23.38 53.9L23.31 53.97L23.1 54.32L22.33 54.74L21 55.16L20.51 55.37L19.95 55.58L19.6 55.79L18.41 56.21L17.64 56.14H17.5L17.36 56.21L17.08 56.35L12.88 56.63H12.53L12.18 56.7L10.78 56.49L10.43 56.56L10.08 56.35L8.12 56.21L7.98 56.07L7.49 55.93L7.35 55.86H6.37L4.76 55.3H4.48L3.64 54.74L3.08 54.67L2.94 54.46L2.87 54.32L1.75 53.76L1.12 53.2L0.7 52.57L0.77 52.22L0.84 52.08L1.96 51.1L2.03 50.89L2.31 50.75L2.59 50.54L3.08 50.82L2.94 51.24V51.38L3.01 51.8L3.85 52.64L5.88 53.69L6.16 53.76L6.51 53.9L6.86 54.04H7.07L8.54 54.39L8.75 54.53H9.17L13.02 55.02H13.86L14.42 55.09L14.84 54.95L15.61 55.02L17.92 54.74L18.27 54.81L18.48 54.74L18.76 54.67L20.86 54.11L24.08 52.57L24.99 51.66L25.27 51.8L25.76 50.89L26.18 50.54L26.53 50.19L26.81 49.77L26.95 49.63L27.3 49L27.58 48.3L27.65 47.39L28 47.18L28.28 43.61L27.86 41.65L27.3 40.67L27.23 40.6L27.16 40.39L26.81 39.76L26.67 39.55L26.53 39.34L26.46 39.2L26.53 38.99L25.41 38.29L24.71 37.31L24.08 36.96L23.73 36.89L23.66 36.68L23.52 36.54L23.38 36.47H23.17L22.54 36.12L22.05 35.98L21.77 35.77L21.7 35.7L21.56 35.49L19.25 34.72L19.18 34.65L19.11 34.58L17.92 34.3L15.26 34.37L14.42 33.88L14.28 33.25L14.98 32.06L15.05 31.92L15.19 31.85L15.26 31.29L15.54 31.15L15.89 30.1L16.38 29.68L16.45 29.05L16.66 28.84L16.73 28.63L16.94 28.35L17.29 27.72L17.43 27.51L17.99 26.74L18.48 26.25L18.62 26.18L19.67 24.29L19.88 23.52L17.99 22.68L16.03 21.98L15.82 21.84L15.61 21.7L15.4 21.77L13.44 20.72L12.81 20.65L12.6 20.51L12.32 20.37V20.23L11.69 19.95L9.94 19.04L8.96 18.69L8.89 18.83L8.33 18.76L7.98 19.04L8.26 19.95V21.07L8.33 21.28L8.4 21.35L8.75 24.22L8.82 24.78L8.96 25.06L9.1 27.02L9.45 27.65L9.59 28.56L9.8 28.91L10.15 29.12L10.01 29.75L10.29 30.87L10.22 32.55L10.71 33.11H11.06V33.25L11.34 34.02L11.2 35L11.27 35.14L11.13 36.54L11.2 36.89L10.85 39.97L10.57 45.36L10.36 46.13L10.43 46.27L10.36 46.83L10.29 47.74L10.36 48.16L10.22 49.49L10.36 49.91V50.75L8.61 52.36L8.26 52.43L7.49 52.36L7 51.94L7.56 49L7.77 47.04V46.62L7.98 46.13L8.05 45.85L7.98 45.71V45.5L8.12 40.39V40.32L7.98 39.97V37.24L7.77 36.47L7.42 32.97V32.76V32.69L7.56 32.34L7.63 32.13L7.49 31.92L7.28 31.85L7.35 31.01L7.21 30.8L7.14 30.73L7.07 29.47L7.14 29.12V28.98L7 28.77L7.07 28.49L7 28.42L6.93 28.07L6.3 25.9L5.95 23.45L5.88 23.24L5.81 23.03L5.25 20.51V19.88L5.04 19.25L4.97 19.04L4.76 18.48L4.69 18.41L4.55 18.06L4.48 17.92V17.5L3.78 16.03L3.64 15.68L3.5 15.47L3.43 15.33L1.89 12.39L2.17 11.97L2.52 11.83L2.66 11.2L3.01 10.92L3.29 10.5L3.64 10.29L4.69 10.78L6.51 11.97V12.04L6.65 12.18L9.24 13.79L10.85 14.56L14.21 16.45L14.84 16.87L15.19 17.08L19.11 19.04L21.28 19.95L22.89 20.37L23.66 20.79L23.94 21.07L24.36 21.77L24.43 21.98V22.19L24.29 22.4L23.1 23.87L22.68 24.71H22.61L22.47 24.92L22.19 25.13L21.07 26.53L20.86 27.09L19.04 29.82L18.83 30.8L19.04 31.08L19.67 31.22L21 31.36L22.47 31.78L23.59 32.34L23.94 32.55L24.29 32.69L24.57 32.83L24.71 32.9L26.18 33.74L26.32 33.95L26.53 34.02L27.02 34.37L27.44 34.51L27.72 34.72L28.63 35.49L28.77 35.63L28.98 35.84L29.4 36.4L29.75 36.61L29.82 36.68L30.24 37.45L30.52 37.94L30.59 38.15L31.08 38.92L31.36 40.25L31.43 41.37L31.64 42.07ZM12.53 27.09L12.25 28L11.83 28.56V28.77L11.48 28.98L11.55 28.49L11.76 28.35L11.62 27.72L11.69 26.74L11.97 26.18L11.83 25.76L11.97 25.41L11.83 25.27L11.62 24.5L10.92 23.24L11.06 22.96L11.83 22.75L12.11 23.17L12.18 23.31L12.25 23.45L12.53 25.34L12.46 26.18L12.32 26.46H12.46L12.53 27.09ZM11.9 30.45L11.34 33.11L11.13 32.34L11.55 29.19H11.69L11.62 29.47L11.9 29.54V30.45ZM10.78 27.37L10.71 29.4L10.5 29.26L10.43 29.12V28.56L10.29 28.7H10.22L10.01 27.86L10.08 27.37L10.22 27.3L10.29 26.95H10.36L10.22 26.81L10.15 26.67L10.08 26.53L10.15 25.9V25.83L10.01 25.55L9.87 25.41L9.73 24.57L9.8 24.5V24.22V24.08L10.15 24.15L10.22 24.08L10.36 24.22L10.29 24.29L10.57 24.99L10.5 25.76L10.78 26.74L10.64 27.3L10.78 27.37ZM7.98 22.82L7.7 21.98L7.28 21.42L7.21 21V20.65L7.28 19.53L7.21 19.18L7 18.41V17.78L6.86 17.5L6.58 17.29L6.23 17.15L6.02 17.08L5.81 17.22L5.74 17.57V17.85L5.88 18.27L5.81 18.34H5.74L5.88 18.48H5.95L6.02 18.76V19.11L6.09 19.46L6.37 21L6.72 21.7V23.52V23.59L7.14 24.08L7.35 24.15L7.7 24.01L7.98 23.38V22.82ZM44.2531 27.16L43.9731 27.3L43.9031 27.16H43.7631L43.2731 28.14H43.2031L43.1331 28.35V28.56L43.3431 29.26L43.2731 29.61L42.9931 30.45V30.8L42.9231 31.43L42.6431 33.88L42.8531 35.63L42.7131 36.47L42.8531 38.22V39.2H42.7131H42.5731V39.06L42.0131 38.22L42.2231 37.17L42.0831 36.89V36.82L41.8731 35.77V35.56V35.28L42.0831 34.72L42.0131 33.74L42.3631 27.02L42.2931 25.62L42.2231 25.27L42.1531 24.99L42.0131 24.85L41.7331 24.78H41.4531L41.2431 24.85L41.0331 25.06L40.3331 25.41L39.7031 24.99L39.2831 24.36L39.0031 24.08L38.8631 24.01V23.73L38.2331 22.26L38.6531 20.93L41.3131 19.46L42.2231 19.25L43.2731 20.37L43.4131 21.07L44.1831 22.75L44.0431 23.24L43.4131 23.8L43.1331 24.29V25.2L43.4831 25.9L43.5531 26.46L44.2531 27.16ZM43.1331 50.68L42.7131 52.92L42.5731 55.09L41.2431 55.65L39.2831 56.07H39.0731L38.9331 56L38.8631 55.65L38.5131 53.62L38.3731 52.92V52.78V52.36L38.3031 51.45L38.3731 51.24H38.3031L38.1631 49.42V49.21L38.2331 49.07L38.0931 48.93L38.2331 47.67L38.1631 47.53L38.0231 47.04L38.0931 45.85L37.7431 41.37L37.9531 40.25L37.8131 39.69V39.48L37.7431 39.34L37.8831 37.17L37.9531 36.75V36.33L37.7431 34.79L37.9531 34.02L38.0231 30.17L37.9531 29.89L38.0231 29.47L38.4431 29.05L39.6331 28.49L39.7731 28.42H39.9131L40.2631 28.49L41.2431 28.35L41.5931 30.45L41.3831 33.46L41.4531 34.02L41.2431 35.21L41.1731 36.68V37.31L41.1031 37.66L41.2431 39.55L40.8931 41.09V42.84L41.2431 43.12H41.3831L41.8031 42.91H42.2931L42.6431 42.49L42.7131 42L42.9231 41.86L43.1331 42L43.3431 42.42L43.1331 43.89L43.2031 45.99L42.9231 47.88L43.0631 48.3L42.9931 49.91L42.7831 50.26L42.8531 50.47H43.0631L43.1331 50.68ZM70.0613 31.43V31.78L69.3613 32.27L68.9413 32.62L68.4513 32.69L68.0313 32.97L67.8913 33.04L67.4013 32.9L66.7713 31.57L66.1413 30.8L66.0013 30.59L65.8613 30.52L65.7213 30.45L65.5813 30.24H65.3013L65.1613 30.17L64.6713 30.24L64.0413 30.45L63.7613 30.66L61.1713 31.85L60.6113 32.06L60.4713 32.2L59.7713 32.69L59.0713 34.23L58.5813 36.26L58.3013 36.96L58.0913 37.45L57.9513 37.94V38.78L57.3913 40.53L57.2513 41.79L56.9713 42.98L56.9013 43.12L56.7613 43.26V43.89L56.4813 44.31V44.45L56.5513 44.66L56.6213 45.22L56.5513 45.71L56.4813 45.85L56.5513 46.34L56.3413 47.18L56.0613 50.05L56.2712 50.47L56.0613 51.17L56.2013 54.53L56.3413 54.67L56.2712 55.23L55.7812 55.65L54.8013 56.07L53.6113 56.14L53.3313 56.35L53.1213 56.07L53.0513 55.86L53.1213 54.74L52.9813 53.76L53.1913 51.52H53.0513L53.1213 51.24V51.1V51.03L53.1913 50.75V48.79L53.0513 48.09L53.1913 47.32V46.62L53.2613 46.48L53.1913 46.34V46.06L53.3313 45.85L53.2613 45.71H53.1213L53.3313 45.64L53.1913 44.94L53.1213 44.45V43.26L53.0513 43.05L53.1913 42.84L52.9813 42.07V41.79V41.65V41.3L53.0513 40.67H52.9113L52.5613 40.39L52.4213 40.32L52.1413 40.39L52.0013 40.53L51.6512 40.88L51.0913 41.23L50.8813 41.79L50.6713 41.86L49.2713 44.17L48.7113 45.5L48.3613 47.53L48.5713 48.58L48.4313 48.65L48.5013 48.79L48.3613 48.93L47.9413 48.44L47.7313 48.23L47.5213 47.88L47.5913 47.6L47.5213 47.46V47.25L47.5913 47.04L47.8013 46.55L47.7313 46.06L47.8013 45.92V45.71L47.9413 45.29L48.2913 44.52L48.5013 43.61L48.5713 43.19L48.7113 43.12L50.1813 40.67L50.3913 39.9L50.5313 39.83L50.6713 39.69L50.8113 39.55L50.8813 39.41L50.9513 39.34L51.0213 38.99L51.1613 38.64L51.4413 38.43L51.7913 37.94L52.1413 37.73L52.2113 37.66L52.5613 37.1L52.4913 36.33L52.4213 36.12L52.2813 35.7V34.93L53.4013 34.09L53.6813 33.88L53.9613 33.6H54.2413L54.3813 33.74L54.4513 33.95L55.2213 34.3L55.6413 34.23L57.1113 32.9L57.3913 32.48L58.0213 31.99L58.2313 31.85L58.3013 31.71L58.4413 31.36L58.9313 30.8V30.24L59.2113 30.03H59.4213L60.4013 29.54L60.9613 29.61L61.6613 29.33L61.8013 29.26H61.8713L62.5013 29.19L64.7413 28.28L65.2313 28.21L65.7913 28.07L68.2413 26.95L68.9413 26.81L69.5013 27.23L69.5713 27.51L69.5013 28.56L69.6413 30.1L69.7113 30.45V30.66L70.0613 31.43ZM57.1813 36.47L57.0413 36.33V36.19L56.6213 35.98H55.7812L55.6413 36.33L55.3613 36.54L55.7812 38.36H56.1313L56.6913 37.66L56.9713 37.59L57.1113 37.45L57.1813 37.24L57.2513 37.03L57.1813 36.47ZM85.0598 35.91L83.5198 36.19L80.5798 36.26L79.4598 36.19L79.2498 35.98L78.6898 36.05L78.8998 36.19L78.7598 36.33L78.5498 36.26L78.3398 38.15L78.4798 38.57L78.1998 43.4L78.3398 43.54L78.4098 43.61L78.3398 46.27L78.2698 46.41L78.1298 46.62V46.76L78.3398 47.04L78.4098 47.46L78.2698 50.61L78.4098 50.89L78.3398 51.03L78.2698 51.31L77.9198 52.71L78.1998 53.27V54.25L78.3398 54.32L78.4098 54.6V54.74L78.4798 55.23V55.44H78.3398L78.4798 55.58L78.4098 55.86L77.1498 56L75.8898 56.63L75.4698 56.84L75.1898 56.91L74.9098 56.84L74.7698 56.56V55.93V55.51L74.9798 55.16V54.11L75.0498 53.76V53.27V52.5L75.1198 52.29V52.08L75.0498 51.87L74.8398 51.31L74.9098 50.12L75.0498 49.77V49.56L74.9798 49.28L74.9098 49.07L74.4898 47.46L74.5598 46.06L74.4198 45.92L74.6298 45.85V44.94L74.7698 42.91L75.1898 42.63L74.9798 41.65L74.9098 39.34L74.9798 36.96L73.5798 36.82L73.1598 36.61L72.4598 36.68L70.8498 36.89L70.0798 36.61L69.5898 35.84L68.8198 35.63L68.4698 35.35L68.8198 35.07L69.2398 35.14L71.9698 35.07L72.8798 34.93L73.9998 34.86L74.7698 34.72L74.8398 34.51L75.0498 34.44L75.3998 33.81L75.1198 33.04L75.0498 32.62V32.41L75.1898 32.06L75.0498 31.43L75.1898 31.36L75.1198 31.29L74.9098 30.87L74.9798 30.52L74.6298 26.18V25.97L74.4898 25.48L74.9798 24.64L74.8398 24.29L74.6298 24.08L74.4898 23.66V21.49L74.3498 21.42L74.2098 20.86L73.9998 20.58L74.2798 19.74L75.2598 19.46L75.8198 18.9L75.9598 17.78L75.7498 16.94L76.0998 15.12L76.0298 14.98V14.28L76.2398 11.69L76.0298 10.85V10.57L75.8898 10.22L75.3298 10.08L75.0498 9.94L74.7698 9.87L74.2798 10.01L73.9298 9.24L73.8598 8.26L74.1398 7.56L73.9998 6.3L74.0698 6.09L74.1398 5.88L74.2798 5.74L74.3498 5.11L74.1398 4.9V4.55H73.9998L74.6998 3.5L75.6098 3.08L76.0298 2.66L76.5198 2.17L77.4998 0.769998L77.9898 0.839997L78.1298 1.4L78.1998 2.52L78.3398 2.87L78.2698 3.71L78.4798 4.41L78.5498 4.83L78.4798 5.04L78.4098 5.25L78.5498 5.67L78.6198 5.88L78.5498 6.02L78.3398 6.37L78.6198 7L78.3398 8.54L78.6198 9.52L78.6898 10.85L78.6198 11.2L78.8298 11.62L78.6198 15.82L78.8998 16.1L78.6898 16.8L78.8298 16.87L78.6198 17.01H78.8298L78.4798 19.32L78.6898 21L78.4798 21.56L78.6198 22.26L78.4798 23.38L78.6198 24.36L78.3398 26.18L78.4098 26.53L78.5498 27.02L78.6198 27.09L78.6898 28.14L78.3398 29.4V33.53L78.0598 33.81L77.9198 34.09L78.2698 34.37L78.4798 34.65L79.3898 34.79L79.8798 34.65L80.2998 34.86L81.4898 34.58L83.2398 34.72L84.2898 35.28L85.0598 35.91ZM110.687 54.88L110.337 55.44L110.127 55.65L109.917 55.72L109.567 55.79L109.287 56L108.657 56.49L106.697 56.7L106.137 56.49L104.527 55.16L104.387 54.67L103.827 54.11L103.687 53.9L103.477 53.83L102.777 52.36L102.637 51.52L102.147 51.17L102.007 50.75H101.797L101.167 46.41L100.887 45.64L100.677 39.97L100.817 39.62L100.747 39.34L100.677 39.2V38.29L100.887 37.17L100.537 35.14V33.18L100.117 33.11L99.977 33.18L99.487 34.3L98.717 37.1L98.647 37.87L97.877 40.46L97.177 43.54L96.967 45.99L96.407 47.04L96.197 48.58L95.357 50.82L94.937 51.45L94.447 52.71L94.307 52.85L94.237 53.13V53.27L93.957 54.25L93.397 54.88L93.187 55.58L93.117 55.65L92.627 56.35L92.487 56.7L91.297 57.68L90.527 58.03L89.967 58.45L89.477 58.66L89.267 58.87L88.777 58.73L88.217 58.59L87.517 57.26L87.307 56.14L86.817 55.02L86.957 53.62L86.817 52.22L86.677 47.53L86.747 47.25V46.97V46.9L86.677 45.92L86.817 44.31L86.957 43.96V42.84L86.887 42.42L87.027 41.93L87.167 41.09L87.097 38.99L87.307 37.73L87.377 34.02L87.237 33.67L87.377 32.97L87.447 32.41L87.587 31.92V29.68L87.937 25.2L88.147 24.92V21.14L88.287 20.72V19.04H88.147L88.077 18.83L88.147 18.55L88.357 17.85L87.937 16.87L88.077 16.8L87.797 14.91L87.867 12.53L87.727 11.97L87.587 8.75L87.377 8.05L87.307 7.91L87.027 6.02L88.287 4.69L89.127 4.27H89.267V4.13L90.107 3.15L91.227 3.36L91.857 6.09L92.067 10.99L92.137 11.41L92.067 11.9L91.997 12.25L91.857 12.53L91.787 13.86L91.927 14.77L91.787 17.22L91.507 18.76L91.437 20.93V21.21L91.367 21.63L91.297 22.19L91.227 22.33L91.017 26.39L91.087 29.19L91.017 29.33L91.157 29.54L90.877 32.69L90.737 33.25V36.26L90.667 36.61L90.597 36.75L90.247 41.51L90.317 41.93V46.9L90.457 47.25L90.387 49.35L90.667 51.1L90.597 51.59L91.227 54.11L92.067 53.41L93.047 51.66V50.89L93.607 50.12L93.747 49.84V49.7V49.56L93.607 49.42L93.747 48.79L94.517 47.11L95.707 43.82L95.777 42.56H95.987L96.617 39.97L98.297 34.09L98.647 33.39V33.25L98.927 32.76L99.137 32.2L100.117 29.19L101.307 28.14L101.517 27.86L101.937 27.58L103.197 26.67L103.757 26.81L103.897 26.95L104.527 28.7L104.667 29.54L104.877 35.42H104.807V38.29L104.737 38.71L104.807 39.2L104.947 40.11L104.877 41.65L105.087 42L105.157 42.42L105.507 46.55L106.067 48.58L106.627 49.91L108.167 52.36L108.307 52.43V52.57L108.517 52.85L109.777 53.83L109.847 53.97L110.127 54.32L110.687 54.88ZM109.785 49.49L109.995 49.21L109.785 48.79L109.995 48.65V48.44H110.065V48.16L110.835 46.97L117.135 39.83L117.275 39.9L117.415 39.76L118.815 37.66L119.655 36.75L119.795 36.47L120.075 36.12L122.385 33.32L124.415 31.22L125.675 30.59L125.605 31.57L125.045 32.62L124.485 32.9L124.205 33.25L123.925 33.74L124.065 34.09H124.135L124.275 33.95H124.415L124.695 33.6L128.965 31.15L129.525 31.08L130.295 30.73L131.415 30.8L131.835 30.87L132.115 31.01H132.255L132.465 30.94L132.675 30.66L132.745 30.45V30.31L132.535 29.33L132.605 28L132.465 27.86V26.25L132.675 25.34L132.605 24.71V24.5L132.535 23.45L132.605 23.52L132.675 23.38V21.42L132.605 21.28L132.675 21.21L132.885 20.58L132.745 18.9L132.815 16.45L132.675 16.38L132.955 15.47L133.095 13.16L133.165 12.95H133.375L133.725 10.08L133.585 8.61L133.655 7.84L133.725 6.86V6.23L134.005 5.53L134.775 5.11L135.125 5.04L135.615 4.9H135.895L137.155 3.99L137.855 3.71L138.555 4.06L138.695 4.9L138.485 5.32L138.695 5.88L138.555 6.44L138.485 6.79L138.345 7.14L138.275 7.42V7.84L137.715 9.87L137.645 10.22V10.36L137.785 10.78L137.505 11.9L137.645 12.6L137.435 12.88L137.295 13.44L137.365 14.91L137.435 15.19V15.89L137.295 16.73L137.435 16.94L137.575 17.08V17.99L137.645 18.2V18.55L137.855 18.97L137.995 20.23L137.785 20.86L137.575 21.56V21.84L137.505 22.33L137.575 23.1L136.945 24.15L137.085 24.5L136.945 26.32L136.035 31.57L136.175 35.21L136.105 36.19L136.525 43.61L136.735 43.68L136.805 44.17L136.875 45.57L137.645 49.28L137.925 50.33L138.205 50.68L138.135 50.96L138.555 51.59V51.73L138.695 52.15L140.305 55.3L140.235 55.58L139.955 55.93L139.605 56.07L139.395 56L139.255 55.93L138.415 55.16L137.155 55.65L136.385 55.02L136.245 54.46L135.895 54.18L135.615 53.41L135.335 53.34L135.055 53.13L134.845 52.78L134.495 52.22L134.425 51.73L134.215 51.52L133.585 50.26L133.375 49.98H133.235L132.955 49.28L132.535 48.3L132.605 48.16H132.675L132.395 47.88L132.185 47.53L131.555 47.74L131.275 48.23L131.065 48.51L130.995 48.72L130.715 49.21L130.645 49.28L130.505 49.35L130.295 49.7L129.175 51.17L125.395 55.37L124.345 55.86L121.545 58.45L121.405 58.52L121.055 58.66L120.775 58.73L120.635 58.87L120.565 58.94L120.215 59.15L119.865 59.43L119.655 59.5L118.115 60.13L116.925 60.41L115.595 60.2L114.125 59.64L113.565 59.01L112.795 57.47L112.165 54.81L112.375 53.48L112.095 52.85L112.025 51.52L110.765 50.96L110.345 50.47L109.995 50.12L109.785 49.49ZM114.895 53.34L115.035 54.53L115.665 55.72L116.435 56.42H116.575L116.925 56.7H118.605L119.025 56.84L121.475 55.93L121.965 55.86L123.785 54.74L123.995 54.53L124.275 54.32L124.345 54.18L125.255 53.41L125.325 53.34L125.465 52.99L127.075 51.52L127.705 50.75L128.055 50.26L128.265 49.98L129.245 48.65L129.665 48.23L129.595 48.16H129.735L129.875 48.02L130.015 47.74L130.225 47.11L130.575 46.83L130.785 45.99L131.625 45.01L131.695 44.73V44.59L131.555 44.31H131.765L132.115 42.98L131.975 42L131.835 38.64L131.625 38.36L131.555 37.94L131.275 38.01L131.345 37.73H131.275L131.135 37.94L130.715 38.36L130.575 38.43L130.225 38.85L127.985 41.37L126.655 42.42L123.645 45.43L123.015 45.78L122.455 46.34L122.385 46.48L119.375 48.72L118.675 49.21L118.535 49.35L118.185 49.63L117.975 49.91L116.925 50.75L115.945 51.17L115.175 51.52L115.105 51.66L115.035 51.87L114.895 53.34ZM115.805 47.74L116.015 47.81V47.95L117.555 47.74L118.675 47.11L119.375 46.97L119.445 47.04L119.725 46.69L120.005 46.62L120.565 46.13L121.615 45.57L122.665 44.87L124.485 43.19L124.765 43.05L124.975 42.84L125.325 42.63L126.515 41.51L126.725 41.3L127.005 41.09L127.075 41.02L127.215 40.81L127.285 40.74L127.425 40.67L127.775 40.39L129.245 38.85L129.595 38.36L129.665 38.15H129.875L130.575 37.31L130.715 37.17L130.925 37.03L131.065 36.96L131.555 36.47L131.625 36.19L131.485 35.84L131.345 35.56L131.135 35.35L130.855 35.07L130.715 35L130.365 34.79L130.015 34.3L129.525 34.16L129.385 34.23L129.175 34.3L128.475 34.09L127.355 34.23L125.045 35.42L123.505 36.61L121.685 37.73L121.545 38.08L120.915 38.5L120.775 38.85L120.495 38.92H120.355L120.215 39.06L120.145 39.27L119.795 39.41L119.025 40.6L118.885 40.95L118.605 41.23L118.185 41.65L117.905 42.35L117.835 42.7L117.625 42.84L116.645 44.52L115.875 46.62L115.805 47.74ZM178.403 53.69V54.04L178.053 54.25L177.703 54.53L176.023 55.72L174.623 56.28L174.343 56.35L174.273 56.14H173.643L172.663 55.37L171.543 53.69L170.983 53.06L170.633 51.94L169.793 50.47L169.583 50.19L169.513 49.84L169.163 49.56L169.093 49.28L168.883 48.72L168.813 47.95L168.253 46.83L168.183 45.71L167.973 45.43L167.763 44.8L167.693 44.17L167.273 43.61H167.063H166.923L166.713 43.89V44.1H166.573V44.24L166.433 44.59L164.893 46.97L163.493 48.44L163.283 48.93L161.673 50.33L161.113 51.1L160.343 51.52L159.853 52.08L158.593 52.85L157.963 53.06L157.613 53.34L156.913 53.62L156.703 53.9L156.283 53.97L155.093 54.88L154.323 55.02L153.203 55.65L150.893 56.42L150.193 56.35L149.773 56.7L149.073 56.49L147.533 55.58L146.973 55.09H146.693L146.343 55.3L145.853 55.72L145.363 55.65L145.083 55.79L144.173 55.44L142.703 54.67L142.213 53.62L142.353 51.52L142.563 51.24V51.03L143.613 49.56L143.823 49.35L144.173 48.86L144.733 47.74L146.973 45.71L147.253 45.57L147.323 45.43L147.813 45.15L148.163 44.66L148.863 44.17L149.633 43.4L150.823 42.7L151.103 42.49L151.243 42.42L151.313 42.21L151.523 42.14L152.013 41.72L152.153 41.65L152.223 41.37L152.503 40.95L153.413 40.46H153.763L154.813 39.76L155.583 39.55L156.073 39.2L156.493 39.06V38.92L157.823 38.43L157.893 38.36L158.313 38.15L159.083 37.8L160.693 37.38L161.183 37.17L163.423 37.24L164.613 37.94L165.243 38.43L165.523 38.92H165.733L165.243 38.08L165.103 36.82L164.613 36.05L164.053 34.44L163.563 33.53L162.513 32.62L161.043 32.48L160.483 32.83L157.963 35.7L156.983 36.54L156.633 36.82L156.353 36.89L156.143 36.82L155.933 36.61V36.47L156.563 35.98V35.84L156.633 35.63L156.843 35.35L157.543 34.51L158.453 33.67L159.363 32.55L162.443 29.75L163.143 29.68L164.123 29.05L164.333 28.91H164.543L164.753 28.98L164.963 29.12L165.733 29.19L167.063 30.52L167.623 31.43L168.393 33.32L168.673 33.67L169.513 36.05V36.33L169.653 36.75L169.793 37.87L170.073 38.5V38.78L170.213 39.34L170.283 39.83L170.423 40.39L170.983 42.21L171.263 42.7L171.333 43.61L171.893 44.59L171.963 45.85L172.313 46.55L172.803 48.3L173.993 50.82L174.413 51.31L174.553 51.59L174.973 52.08L175.043 52.71L176.653 53.97L177.563 53.83L177.703 53.76L177.843 53.69H178.193H178.403ZM164.823 39.13L164.193 38.64L163.703 38.22L163.213 38.08L161.673 37.94L159.993 38.36L159.433 38.57L158.733 38.85L158.453 39.06L158.243 39.13L155.653 40.39L155.373 40.6L155.233 40.81L154.813 40.95L154.463 41.09L154.323 41.3L153.833 41.65L153.763 41.79L153.623 41.86L153.483 42L153.133 42.28L151.803 43.82L151.663 44.17L151.523 44.66L151.173 44.94L151.103 45.22L150.613 46.27L150.403 46.41L150.263 46.83L149.913 47.39L149.983 48.23L149.563 48.93L149.423 49.91L149.563 51.31L149.983 52.22L150.403 52.43L150.753 53.2L151.593 53.76L152.573 53.9L153.973 53.76L155.723 53.13L156.003 52.85L156.563 52.71L157.963 51.94L159.363 50.61L159.573 50.54L159.713 50.4L161.953 47.67L162.093 47.46L162.443 47.18L162.653 46.83L163.213 45.99L163.773 44.59L164.053 44.1L164.263 43.75V43.61L164.403 43.33L164.753 42.35V42L164.823 41.79L164.963 41.58V39.9L164.823 39.48V39.13ZM147.953 46.34L147.043 47.32L146.483 47.67L146.273 47.95L146.133 48.3L145.853 48.86L145.643 49.07V49.7L145.573 49.91L145.433 50.19L145.083 50.54L144.943 51.24L145.083 51.59L145.293 52.22L145.713 52.64L145.643 52.43H146.203L146.483 52.36L146.763 52.01L146.833 51.66V51.38L146.903 51.17L147.393 49.91L147.533 49.42L147.813 49.07V49L147.953 48.79L148.023 48.51L148.233 47.88L149.283 46.34L149.563 45.78L149.423 45.64L149.213 45.5L148.863 45.64L148.653 45.85V45.92L147.953 46.34ZM201.546 54.6L201.266 56.56L201.056 57.33L201.126 57.47L201.266 57.89L200.986 60.48L200.636 62.37L200.566 62.79L200.496 63.21L200.426 63.56V65.38L199.936 67.9V68.18L199.796 68.74L199.726 69.3L199.516 69.65L199.166 70.35L199.446 71.26L199.236 72.52V73.01L199.166 73.22L199.026 73.64L198.886 76.86L198.466 78.19L198.396 78.26L198.046 79.1L197.626 79.94L197.276 80.29L197.136 80.57L196.786 81.76L195.666 83.58L195.456 84L195.246 84.14L195.106 84.28L194.756 84.63L194.126 85.05L193.146 85.96L192.656 86.8L191.536 87.43L190.766 88.2L190.556 88.27L190.346 88.2L188.176 89.46L185.726 90.16L184.536 90.93L184.396 90.86V90.72H183.836L183.066 91H182.996L182.786 90.79H182.436L181.666 91.14L180.966 91L179.076 91.07L175.296 89.53L174.666 88.83L174.386 88.48L174.316 88.41L174.176 88.2L173.896 87.57V87.29L173.126 85.89V85.61L173.056 85.12V85.05L173.126 84.77L173.406 84.42L173.826 84L173.966 83.65L174.106 83.09V82.88L174.176 82.74L174.456 82.32L174.806 81.2L175.226 81.06V80.71L175.366 80.29L175.996 79.73L176.136 79.59H176.416L176.766 79.66V79.94H176.906L176.626 81.13L176.556 82.81L176.906 83.72L176.766 84.21L176.836 84.49L176.976 84.63L177.046 84.98L177.116 85.33L177.466 86.1L177.746 86.45L178.166 86.87L178.096 86.73L178.586 87.43L178.726 87.85L179.216 87.99L179.286 88.2L180.406 88.83L181.876 89.25L184.116 89.18L185.026 88.97H185.166L185.586 88.9L187.406 88.13L187.616 88.06L187.826 87.85L188.246 87.71L188.596 87.43L189.786 86.66V86.87L189.926 86.8L190.486 86.1L191.326 85.61L192.866 84L194.126 81.62L194.406 80.78L194.476 80.57L194.546 80.36L194.756 79.8L194.966 79.38L195.526 78.26V77.98L195.596 77.56L195.806 76.65L195.736 75.81L196.016 74.9V74.62L196.086 74.48L196.016 74.27V74.06L196.226 73.15L196.296 71.19L196.436 71.12L196.576 70.7V70.49L196.856 70.21L196.716 69.3L196.856 67.48L196.646 66.36L196.926 64.4L197.066 61.74L197.206 61.25L197.136 60.83L196.996 59.64L197.206 58.73L197.416 58.31L197.486 57.89V57.75L197.066 55.79L197.346 53.76V50.54V49.98L197.136 50.05L197.206 49.21H197.066L196.996 47.04V46.97L196.856 46.62L196.926 46.34L196.996 45.57L196.716 43.19L196.856 43.12L196.996 42.84L196.506 42.56L196.226 41.37L196.156 40.6V40.46L196.086 40.32H196.016L196.086 39.9L195.736 39.69L195.106 40.39L194.406 42.07L194.126 42.7L193.916 42.91L193.706 44.03L193.006 44.87L191.746 47.18L191.116 47.88L191.326 47.95L191.046 48.37L189.786 50.12L189.086 51.38L188.876 51.66L188.526 51.87L188.386 51.94L188.316 52.01L187.686 52.64L187.616 52.85L187.336 53.06H187.266L186.776 53.69L184.466 55.09L184.186 55.3H183.976L181.946 56.28L181.246 53.34L181.386 51.45V51.24L181.246 51.03L181.176 50.75L180.896 49.07V47.18V47.04L180.826 46.83L180.756 46.69L180.826 45.71L180.616 45.01L180.546 43.54L180.756 42.56V41.79L180.546 41.3V41.16L180.476 41.02L180.406 40.67V40.32L180.476 39.97L180.546 39.83L180.756 35.07L181.036 34.16L181.176 33.39L181.106 32.83V32.48L181.316 31.36L181.246 31.15L181.316 31.01V30.66V29.19L181.246 28.91L181.386 28.7L181.596 28.28L181.806 27.65L182.646 27.51L183.696 26.88H184.396L184.466 29.19L184.256 29.4L184.186 29.61L184.256 29.82V29.96L184.466 30.17L184.326 30.94L184.186 31.15L184.116 31.5L184.046 31.85L184.116 33.25L184.466 34.37L184.256 38.01L184.466 38.85L184.536 39.13L184.466 39.48L184.326 39.83L184.396 40.53L184.326 41.09L184.396 41.23L184.326 42.42L184.536 42.63V43.05L184.746 43.47L184.676 44.38L184.606 45.57L184.746 46.62V48.3L184.676 48.58L184.816 48.79L184.676 49L184.956 49.56L185.096 50.61H185.236V51.17L185.306 51.38L185.516 51.59L185.726 51.66L185.866 51.59L186.286 51.38L186.706 51.03L186.916 50.47L187.546 49.42L188.316 48.72L188.596 48.02L188.806 47.88H189.016L189.226 47.53L189.016 47.32L189.156 46.34L189.226 46.2L189.436 45.64L191.536 41.44V41.37L191.676 41.16L191.816 41.02L191.746 40.81L193.496 36.4L193.566 35.28L193.916 34.79L194.266 33.6L194.336 33.53L194.476 33.18L194.896 32.55L196.576 31.92L197.206 31.15L198.186 30.94L198.396 30.8L198.676 30.66L199.096 30.59L199.516 30.66L199.586 31.64L199.656 31.78L200.006 32.41L199.936 32.76V32.97L200.006 33.6L200.146 33.88L200.216 34.65L200.566 35.42L200.496 36.4L200.986 38.08L201.686 44.45L201.546 45.01L201.686 45.29L201.476 47.18L201.686 49L201.616 50.82L201.476 51.73L201.546 51.94L201.686 52.64L201.546 54.6ZM251.167 17.29L251.027 18.62H251.097L251.167 18.76L251.097 19.04L250.957 19.46L250.887 19.95L250.677 20.3L250.397 21.56L248.927 23.24L248.577 23.73L248.507 24.01L247.597 24.85L247.107 25.13L246.967 25.2L246.827 25.27L245.287 26.18L244.727 26.11L244.167 26.67L243.957 26.81L243.467 27.23L243.257 27.3L243.047 27.37L242.767 27.3V27.16L242.557 27.3L240.737 27.65L240.527 27.79L240.247 27.86H240.037L239.197 28.07L239.057 28.14L238.917 28.21L238.847 28.35L236.957 28.49L235.697 29.05L234.227 28.91L233.807 28.77H233.317L232.967 28.63H232.827L232.477 28.7L232.267 28.98V29.68L232.127 29.82V30.03V30.24L231.987 30.38L231.917 31.08L231.637 31.5V32.48L231.497 32.9L231.427 34.16L231.147 35.35L231.217 36.05L230.867 36.96V37.59L230.727 38.15L230.517 38.5L230.447 39.27L230.377 40.25L230.027 41.3L229.957 41.58L230.097 42.21L229.467 44.45L229.047 50.19L228.837 55.02L228.907 55.65L228.837 55.79L228.417 56.14L228.067 56.21L227.437 56.28V56.49L225.967 57.26H225.547L225.407 57.12L225.267 56.56L225.197 54.39L225.057 53.41L225.197 52.57L224.777 50.47L225.057 49.7L224.987 49.49L224.847 49.07L224.637 48.44L224.567 47.81L224.217 45.85L224.287 45.01L224.217 44.73V44.66V44.52L224.287 44.24V44.1V43.96L224.077 43.61L224.007 41.79L224.147 41.65V41.44L223.867 40.53V40.39L223.937 40.25L224.077 40.04L224.427 39.27L223.797 38.5L223.867 37.59L223.937 37.38V37.17L223.867 36.54L224.007 36.19L223.937 35.98L223.727 35.7L223.587 35.63L223.657 34.72L223.727 34.44L223.657 34.3L223.447 34.02L223.307 32.06H223.447V31.57L223.167 30.73L223.377 29.47L223.307 28.7L222.607 26.67L222.817 26.46L223.867 26.95L224.637 26.67L224.847 26.25L224.987 25.13L225.127 24.57V24.36H224.917L224.777 24.29L224.287 23.59L223.867 22.68L222.747 22.33L222.117 22.12L221.977 21.98L221.417 21.7L220.647 20.51L220.437 19.67L220.577 19.46V19.32V19.18L220.507 19.04L220.367 18.83V17.78L220.647 17.01L220.857 16.59L220.997 16.38L223.167 13.79L224.637 12.88H224.987L225.617 12.32L226.667 11.9L227.577 11.27L231.287 9.73L232.197 9.59L232.617 9.52L233.107 9.24H233.247V9.17L235.837 8.54L235.767 8.68L236.047 8.75H236.187L236.537 8.47L237.377 8.19H237.657L237.937 8.05L242.557 8.26L242.627 8.12H242.837L243.957 8.4L247.177 10.29L248.017 11.48L248.297 11.55L248.507 11.76L248.717 11.9L249.557 12.6L249.837 13.09L250.117 13.93L250.187 14L249.837 14.42V14.56L250.047 14.77L250.537 14.98L250.817 15.19L250.957 15.4L251.027 15.54L251.097 15.75L251.027 16.8L251.167 17.29ZM247.667 17.01L247.177 16.38V15.89L247.037 15.68V15.33L246.617 14.56L246.337 14.21L246.057 13.65L245.777 13.44L245.497 13.09L245.007 12.6L244.867 12.53V12.46L244.727 12.32L244.587 12.25L244.377 11.97L243.817 11.62L243.677 11.48L243.327 11.27L241.927 10.5L240.737 10.08H240.387L239.757 9.87L239.477 10.08L237.727 9.8L237.517 9.94L236.257 9.87V9.94L235.627 10.15H235.417L234.787 10.08V10.22H234.437L233.947 10.5L232.757 10.85L232.197 10.78L232.057 10.92L230.797 11.55L230.027 11.62L227.437 12.74L226.877 13.23L226.107 13.72L225.687 14.14L225.197 14.7L224.707 14.98L224.497 15.12H224.707L224.427 16.24L224.567 16.45L224.707 16.59V16.8L225.127 17.43L226.667 18.69L226.947 18.83L227.017 18.9L228.557 19.74L228.767 20.09V20.23L228.067 20.86L227.297 21.14L226.947 21.49L226.807 21.63L226.177 21.98L225.547 22.4L225.757 23.17L225.827 23.38L225.617 24.43L225.547 24.64L225.477 25.13V26.46L225.687 27.3L225.757 28.7L225.477 29.4H225.617V29.61V29.82L225.757 30.45L225.967 31.01L226.037 31.57L226.107 31.78L225.897 32.69L226.177 33.32V34.16L226.597 35.14L226.457 35.98L226.597 36.47L226.807 38.29L227.087 39.48L227.297 39.9L227.927 39.83L227.997 39.41L228.137 39.27L228.417 36.12L228.767 35.21L229.117 32.83L229.327 32.2V31.92L229.257 31.57V31.43L229.117 31.29L229.187 30.52L229.467 29.82V29.61L229.327 29.12L229.257 28.98V27.93L228.347 28.14L227.857 27.79L227.787 27.44L227.857 27.23L228.207 26.88L228.557 26.81L229.117 27.02L229.467 26.81L229.537 26.6L229.467 26.32L229.257 25.76L229.327 24.99L229.117 24.85L228.977 21.63L229.957 21.28L230.587 20.93L231.287 20.58L231.567 20.65L232.337 21.07V21.35L232.407 21.56L232.757 24.5L232.477 25.34L232.687 27.09L233.597 27.3L236.257 27.37L236.467 27.23L236.957 27.16L237.517 27.09L240.037 26.6L240.457 26.53L240.807 26.39L241.367 26.18H241.997L242.067 25.97H242.277L242.627 25.76L243.047 25.62L244.307 24.78L244.937 24.57V24.36L245.007 24.29L245.427 24.01L246.337 23.24L246.407 23.1L246.477 22.54L246.687 22.4L246.897 21.98L247.177 21.84L247.037 21.42L247.667 20.16L247.597 19.81L247.667 19.46L247.737 18.76L247.667 18.13L247.527 17.78L247.597 17.5L247.667 17.01ZM263.316 60.83V61.18L260.936 60.41L260.586 60.13L259.816 59.99L259.536 59.71L259.466 59.57L259.046 58.94L258.766 58.8L258.626 58.59L258.346 58.17L257.716 57.54L257.646 57.26L255.686 56L255.336 55.58L254.916 54.25L255.126 53.27L254.986 53.2L255.056 52.78L254.986 52.71L254.846 50.19L255.126 49.07L255.196 47.25V46.97L255.336 46.76L255.546 45.01V42.28H255.406L255.336 40.53L255.616 38.29L255.406 37.87L255.336 31.43L255.126 30.66L255.406 29.12L255.546 25.13V24.92L255.686 24.29V19.25L255.826 18.41L255.616 17.08L255.546 14.28L255.476 14.07L255.336 13.79L255.196 13.51H255.056L255.126 11.06V10.78L255.336 9.94L254.846 8.96V8.05L254.776 7.91L254.706 7.35V6.3L254.636 5.74L254.706 5.53L254.846 5.25L254.986 5.04L255.896 4.13L256.596 3.99L257.086 3.85V3.78L257.226 3.71H257.506L257.786 3.99L257.716 4.06L257.926 4.9L258.066 6.16L258.556 7.42V9.1L258.696 10.5L259.396 11.41L260.166 11.62L260.376 12.11V13.51L260.026 13.86L260.166 14.35V14.56V14.7L260.096 14.84L260.026 15.05L259.536 18.97V20.44L259.256 21.28V23.59L259.186 23.73L259.116 24.22V25.41L259.186 25.62L259.116 25.76V28.56L259.046 28.7L258.976 29.19L259.186 29.26L259.116 30.31L258.976 30.87L258.836 34.51L258.976 37.1L258.766 38.01L258.906 39.69L258.836 40.18L258.976 40.81L258.836 41.23L259.046 46.76L259.536 49.91L259.326 51.73L259.606 52.43L259.396 53.2L259.816 53.97L259.886 54.53V54.74L260.096 55.58L260.866 57.4L261.496 57.89L262.056 59.08L262.336 59.64L262.686 60.13L263.316 60.83ZM297.69 53.69V54.04L297.34 54.25L296.99 54.53L295.31 55.72L293.91 56.28L293.63 56.35L293.56 56.14H292.93L291.95 55.37L290.83 53.69L290.27 53.06L289.92 51.94L289.08 50.47L288.87 50.19L288.8 49.84L288.45 49.56L288.38 49.28L288.17 48.72L288.1 47.95L287.54 46.83L287.47 45.71L287.26 45.43L287.05 44.8L286.98 44.17L286.56 43.61H286.35H286.21L286 43.89V44.1H285.86V44.24L285.72 44.59L284.18 46.97L282.78 48.44L282.57 48.93L280.96 50.33L280.4 51.1L279.63 51.52L279.14 52.08L277.88 52.85L277.25 53.06L276.9 53.34L276.2 53.62L275.99 53.9L275.57 53.97L274.38 54.88L273.61 55.02L272.49 55.65L270.18 56.42L269.48 56.35L269.06 56.7L268.36 56.49L266.82 55.58L266.26 55.09H265.98L265.63 55.3L265.14 55.72L264.65 55.65L264.37 55.79L263.46 55.44L261.99 54.67L261.5 53.62L261.64 51.52L261.85 51.24V51.03L262.9 49.56L263.11 49.35L263.46 48.86L264.02 47.74L266.26 45.71L266.54 45.57L266.61 45.43L267.1 45.15L267.45 44.66L268.15 44.17L268.92 43.4L270.11 42.7L270.39 42.49L270.53 42.42L270.6 42.21L270.81 42.14L271.3 41.72L271.44 41.65L271.51 41.37L271.79 40.95L272.7 40.46H273.05L274.1 39.76L274.87 39.55L275.36 39.2L275.78 39.06V38.92L277.11 38.43L277.18 38.36L277.6 38.15L278.37 37.8L279.98 37.38L280.47 37.17L282.71 37.24L283.9 37.94L284.53 38.43L284.81 38.92H285.02L284.53 38.08L284.39 36.82L283.9 36.05L283.34 34.44L282.85 33.53L281.8 32.62L280.33 32.48L279.77 32.83L277.25 35.7L276.27 36.54L275.92 36.82L275.64 36.89L275.43 36.82L275.22 36.61V36.47L275.85 35.98V35.84L275.92 35.63L276.13 35.35L276.83 34.51L277.74 33.67L278.65 32.55L281.73 29.75L282.43 29.68L283.41 29.05L283.62 28.91H283.83L284.04 28.98L284.25 29.12L285.02 29.19L286.35 30.52L286.91 31.43L287.68 33.32L287.96 33.67L288.8 36.05V36.33L288.94 36.75L289.08 37.87L289.36 38.5V38.78L289.5 39.34L289.57 39.83L289.71 40.39L290.27 42.21L290.55 42.7L290.62 43.61L291.18 44.59L291.25 45.85L291.6 46.55L292.09 48.3L293.28 50.82L293.7 51.31L293.84 51.59L294.26 52.08L294.33 52.71L295.94 53.97L296.85 53.83L296.99 53.76L297.13 53.69H297.48H297.69ZM284.11 39.13L283.48 38.64L282.99 38.22L282.5 38.08L280.96 37.94L279.28 38.36L278.72 38.57L278.02 38.85L277.74 39.06L277.53 39.13L274.94 40.39L274.66 40.6L274.52 40.81L274.1 40.95L273.75 41.09L273.61 41.3L273.12 41.65L273.05 41.79L272.91 41.86L272.77 42L272.42 42.28L271.09 43.82L270.95 44.17L270.81 44.66L270.46 44.94L270.39 45.22L269.9 46.27L269.69 46.41L269.55 46.83L269.2 47.39L269.27 48.23L268.85 48.93L268.71 49.91L268.85 51.31L269.27 52.22L269.69 52.43L270.04 53.2L270.88 53.76L271.86 53.9L273.26 53.76L275.01 53.13L275.29 52.85L275.85 52.71L277.25 51.94L278.65 50.61L278.86 50.54L279 50.4L281.24 47.67L281.38 47.46L281.73 47.18L281.94 46.83L282.5 45.99L283.06 44.59L283.34 44.1L283.55 43.75V43.61L283.69 43.33L284.04 42.35V42L284.11 41.79L284.25 41.58V39.9L284.11 39.48V39.13ZM267.24 46.34L266.33 47.32L265.77 47.67L265.56 47.95L265.42 48.3L265.14 48.86L264.93 49.07V49.7L264.86 49.91L264.72 50.19L264.37 50.54L264.23 51.24L264.37 51.59L264.58 52.22L265 52.64L264.93 52.43H265.49L265.77 52.36L266.05 52.01L266.12 51.66V51.38L266.19 51.17L266.68 49.91L266.82 49.42L267.1 49.07V49L267.24 48.79L267.31 48.51L267.52 47.88L268.57 46.34L268.85 45.78L268.71 45.64L268.5 45.5L268.15 45.64L267.94 45.85V45.92L267.24 46.34ZM325.787 57.54H325.577L325.717 57.61L325.367 57.82L324.947 57.89L324.457 57.4L323.827 57.12L323.197 56.28L322.427 55.79L321.587 55.44L321.167 54.81L319.557 53.76L319.417 53.41L319.277 53.34L319.487 53.2L319.207 51.87L318.717 51.24L318.647 50.12V49.63L318.717 49.21L318.647 48.72L318.017 46.41L317.597 44.38L317.737 43.96L317.597 43.19L317.457 41.93L317.667 34.3L317.527 32.9L317.317 32.2L316.617 33.11L314.937 37.03L314.727 37.38L314.517 37.73L314.027 38.57L313.817 39.06L314.027 39.27L311.297 44.03L311.227 44.17L310.947 45.08L310.177 46.34L310.107 46.41V46.69L310.037 47.04L308.987 48.72H308.917L308.777 49.07L308.427 49.49L308.007 50.54L307.937 50.61L307.447 51.52L307.097 51.8L306.887 52.78L305.907 54.67L305.277 55.37L304.577 55.44L304.367 55.79L303.527 56.28L302.477 56.21L302.267 56.28L302.127 56.35H301.917L301.567 56.28L301.287 56V55.65L301.077 54.81L300.797 51.24H301.007L300.867 50.89L300.937 50.26V48.37L300.587 47.39L300.797 46.34L300.517 44.59V43.33L300.587 43.05V42.28L300.657 41.86L300.867 39.41L300.517 38.36L300.657 38.15L300.797 36.4L300.657 35.91L300.797 35.56L300.657 34.51L300.727 29.05L300.867 28.98L301.077 28.07L301.637 27.65L305.207 26.81L305.627 27.3L305.767 28.14L305.697 29.4L305.627 30.1L305.697 30.24L305.487 30.52L305.137 31.78L304.927 32.41L304.787 32.9L304.647 33.18L304.297 36.47L304.087 37.31L304.017 38.85L303.877 39.13L303.807 39.41V39.55L303.737 41.02L304.087 46.41L303.877 47.32L304.017 47.53V48.37L304.087 48.51L304.227 49.98V50.4L304.297 50.61L304.647 50.82H305.067L305.977 50.33L306.257 49.84L306.397 49.63L306.537 48.93L307.307 48.09L308.357 46.41V46.13L308.427 46.06L309.617 44.59L310.037 43.26L311.157 41.3L311.857 40.39L312.907 38.08V38.01L313.117 37.59L313.397 36.75L313.467 36.54L313.817 36.19L314.167 35.77L314.307 35.28L314.797 33.67L315.427 32.27L316.407 29.19L317.317 27.72L319.137 26.81H319.417L319.767 26.67L321.237 26.46L321.377 27.51L321.167 27.86L321.097 28.07L321.167 28.35L321.587 31.01L321.517 31.22L321.447 31.85L321.167 32.62L321.377 35.56L321.167 36.47V37.03L321.097 37.24L321.027 38.36L321.447 39.76L322.007 45.36L322.497 48.79L322.637 49.35L322.847 50.26V51.59L323.127 52.29L323.407 52.78L323.617 53.27L323.827 53.76L324.387 55.16L325.437 57.19L325.787 57.54Z" fill="#1E1E1E"/>
</svg>
