<svg width="269" height="89" viewBox="0 0 269 89" fill="none" xmlns="http://www.w3.org/2000/svg">
<path d="M29.78 10.86L29.57 11.14L28.31 11.28L28.17 11H27.61L26.63 10.79L26.28 10.72L26.21 10.65L23.55 10.58L19.14 10.16L19 10.23L18.86 10.16L16.2 10.3L12.91 11.14H12.63H12.49L11.86 11.35L11.65 11.42L11.51 11.63H11.44L9.27 12.68L8.92 12.89L8.64 13.17L6.19 15.27L5.77 16.18L5.07 17.02L4.09 19.82L3.88 21.08L3.81 21.29V21.43L3.95 21.85L4.02 21.99L4.09 22.76L4.65 24.23L4.72 24.3L4.86 24.58L5.35 25.49L5.63 25.7L5.84 25.77V26.05L6.05 26.33L6.4 27.17L6.96 27.31L7.03 27.45L7.38 27.66L8.01 28.08L8.22 28.29L8.29 28.36L8.57 28.78L8.71 28.99V29.34L8.36 29.97L7.66 29.62L7.31 29.48L7.17 29.83L6.12 29.41V28.92L5.84 28.99L5.49 28.85L4.79 28.36L3.53 27.31L4.3 27.1L3.18 26.4L2.69 25.91L2.62 25.7L2.48 25.56L2.34 25.49L2.27 25.56L2.34 25.77L1.99 25.7L1.29 24.51L1.15 24.02L1.29 23.95V23.67L1.15 23.46L0.87 23.32L0.8 22.48L0.73 22.2L0.52 21.99L0.31 21.85L0.1 20.94L0.17 19.61L0.59 18.14V17.51L0.66 17.23H0.87L1.57 15.55L1.78 15.34L1.99 15.06L2.2 14.78L2.41 14.64L2.62 14.5L2.76 14.22L3.18 13.17L4.16 13.03L4.44 12.68L4.93 12.33L4.79 12.26L5 12.05L5.98 11.35L6.19 11.28H6.33L6.47 11.14L6.68 10.93L8.01 10.16L8.99 10.02L9.2 9.88L10.04 9.46L11.65 9.04L11.86 9.11L13.75 8.41L15.08 8.27L15.29 8.41L15.57 8.27L15.92 7.99L16.48 7.92L16.83 7.78L17.25 7.85L19 7.71L19.98 7.85H20.19L20.75 7.92L22.22 8.13L23.13 8.06L23.2 8.2L23.97 8.34L24.95 8.62L27.26 8.9L27.47 8.97L27.75 9.11L28.03 9.32L28.31 9.39H29.29L30.13 9.67L30.83 9.88L31.39 10.16L32.09 10.23L32.37 10.51L32.86 11.21L33 11.35L33.14 11.56L33.21 11.77L32.93 11.98H32.86L32.65 11.91L32.3 11.7L29.78 10.86ZM29.85 31.93L29.5 32.49L29.08 32.42H28.03L27.75 32.28L27.4 32.49L27.33 32.28L26.56 32.14L24.25 32.28L24.11 32.14H23.83V32L22.99 32.49L22.85 32.35H22.5H22.29L22.08 32.42L20.75 32.49L17.88 33.4L17.32 33.75L17.11 34.52L17.32 36.69V37.39V37.6L17.39 38.44L17.25 39.98L17.39 41.1L17.25 41.87V43.83L17.32 44.11V44.6L17.25 46.42V46.77V47.12L17.18 47.54L17.11 47.68L17.04 50.97H17.11L17.04 51.18L16.97 51.32V51.53V51.6L17.04 52.16V52.44L17.11 53L16.9 53.28L16.55 53.42L16.34 53.7L16.27 53.56H15.85L15.43 53.49H15.29H15.15L14.73 53.7L14.03 53.63L12.91 53.07L12.84 52.3L12.91 52.02L12.84 51.53L12.7 50.69L12.91 49.64L12.56 48.8L13.05 47.96L12.98 47.61L12.84 47.4L12.63 45.72L12.91 43.69L12.84 42.5L13.05 40.89L12.77 40.12L12.91 38.09L12.84 37.81V37.67L13.05 37.39L12.98 37.25L12.84 37.04L12.77 35.71V35.64L12.56 35.43L12.35 35.36L11.93 35.43L11.79 35.64L11.86 35.71L11.51 35.64L11.09 35.92L10.11 36.69L9.9 36.9L9.62 37.18V37.25L9.27 38.09V38.44L9.2 38.51L9.27 38.93L9.2 39.14L8.92 39.56L8.43 39.98L7.24 39.42L6.47 39.35L6.26 38.16L6.12 37.88L5.98 37.74L5.84 37.67L6.4 36.62L7.52 35.85L7.94 35.15L9.41 34.52L12.42 32.84V31.51L10.88 31.23V31.16L10.67 31.09L10.46 31.02V30.25H9.97L9.69 30.04L9.55 29.76L9.76 29.48L9.97 29.55L10.18 29.69L11.72 30.67L11.93 30.74H12.07L12.21 30.81L12.49 30.67L12.42 29.76L12.56 28.64L12.42 28.29L12.63 26.75L12.49 26.4L12.42 26.26L12.49 26.12L12.56 25.91V25L12.84 23.32L14.24 22.97L14.59 22.83L15.01 22.97L15.78 22.69L15.99 22.62H16.2L16.34 22.76L16.48 22.97L16.55 23.32L16.97 23.81L17.11 25L17.04 26.26L17.11 27.38L16.97 28.71L17.11 30.46L17.04 30.88L16.97 31.02L17.04 31.3L17.32 31.51L17.53 31.72L17.95 31.65L22.15 30.95L26.49 30.88L26.63 31.02L26.98 30.95L27.61 31.02L27.96 31.16L28.17 31.3L29.85 31.93ZM4.23 14.15L3.74 14.71L3.53 14.78L3.32 14.99L2.76 16.11H2.97L3.11 15.9H3.25L3.39 15.97L4.23 15.34L4.65 15.2L4.72 14.85V14.71L4.65 14.36L4.23 14.15ZM4.3 25.28L4.09 24.86L3.88 24.72L3.25 24.02L2.97 22.48L2.55 21.57L2.41 21.08L2.2 20.94L2.06 20.87L1.92 20.17L1.85 19.96L1.78 20.17V21.29L2.2 21.43V21.71L2.06 22.13V22.55L1.99 22.76L2.13 23.6L2.48 23.95L2.83 24.72L2.97 24.93V25.21L3.39 25.84L3.46 25.98L3.95 26.19L4.37 26.26H4.51L4.86 26.19L4.93 25.84L4.86 25.56L4.72 25.42L4.3 25.28ZM3.32 16.39L3.04 16.53L2.55 17.16L2.34 17.37L1.78 18.91L1.71 19.4L1.78 19.68L1.92 19.82H2.06L2.62 19.33L2.48 18.84L2.76 18.21L2.69 18V17.86L2.76 17.51L2.97 17.16L3.32 16.39ZM59.372 50.69V51.04L59.022 51.25L58.672 51.53L56.992 52.72L55.592 53.28L55.312 53.35L55.242 53.14H54.612L53.632 52.37L52.512 50.69L51.952 50.06L51.602 48.94L50.762 47.47L50.552 47.19L50.482 46.84L50.132 46.56L50.062 46.28L49.852 45.72L49.782 44.95L49.222 43.83L49.152 42.71L48.942 42.43L48.732 41.8L48.662 41.17L48.242 40.61H48.032H47.892L47.682 40.89V41.1H47.542V41.24L47.402 41.59L45.862 43.97L44.462 45.44L44.252 45.93L42.642 47.33L42.082 48.1L41.312 48.52L40.822 49.08L39.562 49.85L38.932 50.06L38.582 50.34L37.882 50.62L37.672 50.9L37.252 50.97L36.062 51.88L35.292 52.02L34.172 52.65L31.862 53.42L31.162 53.35L30.742 53.7L30.042 53.49L28.502 52.58L27.942 52.09H27.662L27.312 52.3L26.822 52.72L26.332 52.65L26.052 52.79L25.142 52.44L23.672 51.67L23.182 50.62L23.322 48.52L23.532 48.24V48.03L24.582 46.56L24.792 46.35L25.142 45.86L25.702 44.74L27.942 42.71L28.222 42.57L28.292 42.43L28.782 42.15L29.132 41.66L29.832 41.17L30.602 40.4L31.792 39.7L32.072 39.49L32.212 39.42L32.282 39.21L32.492 39.14L32.982 38.72L33.122 38.65L33.192 38.37L33.472 37.95L34.382 37.46H34.732L35.782 36.76L36.552 36.55L37.042 36.2L37.462 36.06V35.92L38.792 35.43L38.862 35.36L39.282 35.15L40.052 34.8L41.662 34.38L42.152 34.17L44.392 34.24L45.582 34.94L46.212 35.43L46.492 35.92H46.702L46.212 35.08L46.072 33.82L45.582 33.05L45.022 31.44L44.532 30.53L43.482 29.62L42.012 29.48L41.452 29.83L38.932 32.7L37.952 33.54L37.602 33.82L37.322 33.89L37.112 33.82L36.902 33.61V33.47L37.532 32.98V32.84L37.602 32.63L37.812 32.35L38.512 31.51L39.422 30.67L40.332 29.55L43.412 26.75L44.112 26.68L45.092 26.05L45.302 25.91H45.512L45.722 25.98L45.932 26.12L46.702 26.19L48.032 27.52L48.592 28.43L49.362 30.32L49.642 30.67L50.482 33.05V33.33L50.622 33.75L50.762 34.87L51.042 35.5V35.78L51.182 36.34L51.252 36.83L51.392 37.39L51.952 39.21L52.232 39.7L52.302 40.61L52.862 41.59L52.932 42.85L53.282 43.55L53.772 45.3L54.962 47.82L55.382 48.31L55.522 48.59L55.942 49.08L56.012 49.71L57.622 50.97L58.532 50.83L58.672 50.76L58.812 50.69H59.162H59.372ZM45.792 36.13L45.162 35.64L44.672 35.22L44.182 35.08L42.642 34.94L40.962 35.36L40.402 35.57L39.702 35.85L39.422 36.06L39.212 36.13L36.622 37.39L36.342 37.6L36.202 37.81L35.782 37.95L35.432 38.09L35.292 38.3L34.802 38.65L34.732 38.79L34.592 38.86L34.452 39L34.102 39.28L32.772 40.82L32.632 41.17L32.492 41.66L32.142 41.94L32.072 42.22L31.582 43.27L31.372 43.41L31.232 43.83L30.882 44.39L30.952 45.23L30.532 45.93L30.392 46.91L30.532 48.31L30.952 49.22L31.372 49.43L31.722 50.2L32.562 50.76L33.542 50.9L34.942 50.76L36.692 50.13L36.972 49.85L37.532 49.71L38.932 48.94L40.332 47.61L40.542 47.54L40.682 47.4L42.922 44.67L43.062 44.46L43.412 44.18L43.622 43.83L44.182 42.99L44.742 41.59L45.022 41.1L45.232 40.75V40.61L45.372 40.33L45.722 39.35V39L45.792 38.79L45.932 38.58V36.9L45.792 36.48V36.13ZM28.922 43.34L28.012 44.32L27.452 44.67L27.242 44.95L27.102 45.3L26.822 45.86L26.612 46.07V46.7L26.542 46.91L26.402 47.19L26.052 47.54L25.912 48.24L26.052 48.59L26.262 49.22L26.682 49.64L26.612 49.43H27.172L27.452 49.36L27.732 49.01L27.802 48.66V48.38L27.872 48.17L28.362 46.91L28.502 46.42L28.782 46.07V46L28.922 45.79L28.992 45.51L29.202 44.88L30.252 43.34L30.532 42.78L30.392 42.64L30.182 42.5L29.832 42.64L29.622 42.85V42.92L28.922 43.34ZM93.2782 51.04L94.2582 53.77H94.0482L92.9282 52.93L92.0182 52.51L90.6182 51.46L90.1982 50.76L89.2882 47.12L89.2182 46L88.7282 44.74L88.6582 44.39V44.11L88.7282 44.04L88.2382 41.8L88.3782 40.68L87.3982 35.71L87.1182 35.01L86.8382 34.8L86.6282 34.73L86.4182 34.8L85.9982 35.29L85.6482 36.06L85.5782 36.13L85.2982 36.48L85.2282 36.9L85.1582 37.25L84.9482 37.74L84.8082 37.88L83.8982 39.56L83.6182 40.47L83.4782 40.68L83.2682 40.96L83.0582 41.31L82.1482 43.76H82.0782L81.7982 44.04L81.0982 45.51L80.2582 46.49L78.5782 47.4L77.9482 47.89L76.6882 48.52L76.0582 48.59L75.7782 48.24L75.4982 45.65V45.44L75.6382 45.09H75.7082L75.5682 44.95L75.4982 45.02L75.5682 44.88V44.74L75.6382 44.67L75.4982 41.38L75.6382 40.89L75.4982 40.75L75.3582 38.09V37.88L75.4282 37.32L75.4982 36.48L75.5682 34.38L75.4282 34.31L75.5682 34.17L75.6382 33.96V33.82V33.68L75.4282 33.47L75.7082 30.74L75.4282 30.11V29.69L75.5682 28.71L75.4282 28.5L75.2182 28.22V28.08L75.0082 27.87L74.4482 28.78L74.2382 28.99L74.1682 29.27L73.1182 31.86L73.0482 32.21L72.8382 32.35L72.4882 33.54L71.8582 34.59L70.0382 40.19L69.2682 41.94L69.0582 43.34L68.9182 43.55L68.6382 43.9L68.8482 43.97L67.7982 47.05L67.4482 47.75L67.6582 48.24L67.1682 49.01L67.0982 49.43L66.9582 49.64L66.8882 49.78L66.6082 50.41L65.6282 51.46L65.4182 51.53L64.9982 51.81L64.7882 51.95L64.2282 52.44H64.0882L63.8082 52.72L63.0382 52.79L62.7582 53L62.6182 53.07L62.4082 53.14L62.1282 52.93L61.8482 49.92L61.7782 49.78L61.8482 49.57L61.9882 49.22L61.8482 47.82V47.61L61.9882 47.4L62.0582 47.33L61.9182 47.26L61.9882 46.91H61.9182L61.9882 46.84L62.0582 43.83L62.2682 43.34L61.7782 41.24L61.8482 40.96L61.9882 40.89L61.9182 39.28L61.9882 38.65L62.0582 38.16L62.1282 36.97L61.9882 35.71L62.1982 35.57L62.0582 35.36L61.9882 35.08L62.4082 35.01L62.4782 33.82L62.3382 33.54L62.2682 33.4H62.1282L61.9182 31.79L61.9882 30.39L61.7782 29.48L61.7082 29.2L61.7782 28.99L61.8482 28.71L61.9882 27.66L62.2682 27.17L63.0382 26.75L65.3482 26.19L65.4182 27.31L65.8382 27.94V28.15L65.7682 28.57L65.6282 29.55L65.1382 30.04L64.9982 30.39L65.1382 31.3L65.0682 31.58V32.07V39.91L64.9282 40.26L64.8582 40.33L64.9282 45.72L64.9982 46.07L65.3482 46.35L65.4882 46.42L65.8382 46.21L65.9782 45.93L66.1882 45.72L66.5382 44.88L67.6582 42.85L67.8682 41.87L68.7082 39.84L68.7782 39.56L69.0582 39L69.1982 38.86L69.5482 37.46L69.7582 37.11L69.9682 36.97L70.3882 35.71L70.6682 34.94L70.9482 34.59L70.8782 34.17L71.0882 33.68L71.2282 33.33H71.2982V33.05L71.5082 32.56L71.9982 31.16L72.4882 30.39V30.25L72.5582 30.04L73.2582 29.06L73.1182 28.92L74.6582 25.7L75.2882 25.28L76.6182 24.72L76.9682 24.51L77.0382 24.44L78.1582 24.16L78.5782 23.95L79.5582 23.88L79.4882 27.66L79.3482 28.5L79.4182 29.13L79.3482 29.48L79.5582 29.69L78.9982 37.88L79.0682 39.28L78.8582 40.05L78.6482 40.47H78.5082L78.9982 41.66L79.0682 42.08L79.2082 42.29L79.4182 42.43H79.5582L79.7682 42.36L80.2582 41.59H80.4682L81.4482 40.12L81.5882 40.05L81.6582 39.77L81.9382 39.35L82.6382 36.69L83.2682 35.57L83.5482 34.73L83.8982 34.24L84.3182 32.77L84.7382 31.93L84.8782 31.72L85.9282 30.04L85.9982 29.97L86.1382 29.69L86.2082 28.5L86.3482 28.43L86.4182 28.22L86.7682 28.08L87.3282 27.94L87.8882 27.59L89.2182 27.17L90.1282 27.1L90.4082 26.96H90.5482L90.7582 27.03L90.8982 27.17L91.0382 32.07L91.2482 33.26L91.5982 38.93L91.9482 40.26V44.46L92.3682 47.54L93.2782 51.04ZM105.486 24.16L105.206 24.3L105.136 24.16H104.996L104.506 25.14H104.436L104.366 25.35V25.56L104.576 26.26L104.506 26.61L104.226 27.45V27.8L104.156 28.43L103.876 30.88L104.086 32.63L103.946 33.47L104.086 35.22V36.2H103.946H103.806V36.06L103.246 35.22L103.456 34.17L103.316 33.89V33.82L103.106 32.77V32.56V32.28L103.316 31.72L103.246 30.74L103.596 24.02L103.526 22.62L103.456 22.27L103.386 21.99L103.246 21.85L102.966 21.78H102.686L102.476 21.85L102.266 22.06L101.566 22.41L100.936 21.99L100.516 21.36L100.236 21.08L100.096 21.01V20.73L99.4655 19.26L99.8855 17.93L102.546 16.46L103.456 16.25L104.506 17.37L104.646 18.07L105.416 19.75L105.276 20.24L104.646 20.8L104.366 21.29V22.2L104.716 22.9L104.786 23.46L105.486 24.16ZM104.366 47.68L103.946 49.92L103.806 52.09L102.476 52.65L100.516 53.07H100.306L100.166 53L100.096 52.65L99.7455 50.62L99.6055 49.92V49.78V49.36L99.5355 48.45L99.6055 48.24H99.5355L99.3955 46.42V46.21L99.4655 46.07L99.3255 45.93L99.4655 44.67L99.3955 44.53L99.2555 44.04L99.3255 42.85L98.9755 38.37L99.1855 37.25L99.0455 36.69V36.48L98.9755 36.34L99.1155 34.17L99.1855 33.75V33.33L98.9755 31.79L99.1855 31.02L99.2555 27.17L99.1855 26.89L99.2555 26.47L99.6755 26.05L100.866 25.49L101.006 25.42H101.146L101.496 25.49L102.476 25.35L102.826 27.45L102.616 30.46L102.686 31.02L102.476 32.21L102.406 33.68V34.31L102.336 34.66L102.476 36.55L102.126 38.09V39.84L102.476 40.12H102.616L103.036 39.91H103.526L103.876 39.49L103.946 39L104.156 38.86L104.366 39L104.576 39.42L104.366 40.89L104.436 42.99L104.156 44.88L104.296 45.3L104.226 46.91L104.016 47.26L104.086 47.47H104.296L104.366 47.68ZM119.744 57.83V58.18L117.364 57.41L117.014 57.13L116.244 56.99L115.964 56.71L115.894 56.57L115.474 55.94L115.194 55.8L115.054 55.59L114.774 55.17L114.144 54.54L114.074 54.26L112.114 53L111.764 52.58L111.344 51.25L111.554 50.27L111.414 50.2L111.484 49.78L111.414 49.71L111.274 47.19L111.554 46.07L111.624 44.25V43.97L111.764 43.76L111.974 42.01V39.28H111.834L111.764 37.53L112.044 35.29L111.834 34.87L111.764 28.43L111.554 27.66L111.834 26.12L111.974 22.13V21.92L112.114 21.29V16.25L112.254 15.41L112.044 14.08L111.974 11.28L111.904 11.07L111.764 10.79L111.624 10.51H111.484L111.554 8.06V7.78L111.764 6.94L111.274 5.96V5.05L111.204 4.91L111.134 4.35V3.3L111.064 2.74L111.134 2.53L111.274 2.25L111.414 2.04L112.324 1.13L113.024 0.989998L113.514 0.849995V0.779996L113.654 0.709997H113.934L114.214 0.989998L114.144 1.06L114.354 1.9L114.494 3.16L114.984 4.42V6.1L115.124 7.5L115.824 8.41L116.594 8.62L116.804 9.11V10.51L116.454 10.86L116.594 11.35V11.56V11.7L116.524 11.84L116.454 12.05L115.964 15.97V17.44L115.684 18.28V20.59L115.614 20.73L115.544 21.22V22.41L115.614 22.62L115.544 22.76V25.56L115.474 25.7L115.404 26.19L115.614 26.26L115.544 27.31L115.404 27.87L115.264 31.51L115.404 34.1L115.194 35.01L115.334 36.69L115.264 37.18L115.404 37.81L115.264 38.23L115.474 43.76L115.964 46.91L115.754 48.73L116.034 49.43L115.824 50.2L116.244 50.97L116.314 51.53V51.74L116.524 52.58L117.294 54.4L117.924 54.89L118.484 56.08L118.764 56.64L119.114 57.13L119.744 57.83ZM144.038 51.6L143.758 53.56L143.548 54.33L143.618 54.47L143.758 54.89L143.478 57.48L143.128 59.37L143.058 59.79L142.988 60.21L142.918 60.56V62.38L142.428 64.9V65.18L142.288 65.74L142.218 66.3L142.008 66.65L141.658 67.35L141.938 68.26L141.728 69.52V70.01L141.658 70.22L141.518 70.64L141.378 73.86L140.958 75.19L140.888 75.26L140.538 76.1L140.118 76.94L139.768 77.29L139.628 77.57L139.278 78.76L138.158 80.58L137.948 81L137.738 81.14L137.598 81.28L137.248 81.63L136.618 82.05L135.638 82.96L135.148 83.8L134.028 84.43L133.258 85.2L133.048 85.27L132.838 85.2L130.668 86.46L128.218 87.16L127.028 87.93L126.888 87.86V87.72H126.328L125.558 88H125.488L125.278 87.79H124.928L124.158 88.14L123.458 88L121.568 88.07L117.788 86.53L117.158 85.83L116.878 85.48L116.808 85.41L116.668 85.2L116.388 84.57V84.29L115.618 82.89V82.61L115.548 82.12V82.05L115.618 81.77L115.898 81.42L116.318 81L116.458 80.65L116.598 80.09V79.88L116.668 79.74L116.948 79.32L117.298 78.2L117.718 78.06V77.71L117.858 77.29L118.488 76.73L118.628 76.59H118.908L119.258 76.66V76.94H119.398L119.118 78.13L119.048 79.81L119.398 80.72L119.258 81.21L119.328 81.49L119.468 81.63L119.538 81.98L119.608 82.33L119.958 83.1L120.238 83.45L120.658 83.87L120.588 83.73L121.078 84.43L121.218 84.85L121.708 84.99L121.778 85.2L122.898 85.83L124.368 86.25L126.608 86.18L127.518 85.97H127.658L128.078 85.9L129.898 85.13L130.108 85.06L130.318 84.85L130.738 84.71L131.088 84.43L132.278 83.66V83.87L132.418 83.8L132.978 83.1L133.818 82.61L135.358 81L136.618 78.62L136.898 77.78L136.968 77.57L137.038 77.36L137.248 76.8L137.458 76.38L138.018 75.26V74.98L138.088 74.56L138.298 73.65L138.228 72.81L138.508 71.9V71.62L138.578 71.48L138.508 71.27V71.06L138.718 70.15L138.788 68.19L138.928 68.12L139.068 67.7V67.49L139.348 67.21L139.208 66.3L139.348 64.48L139.138 63.36L139.418 61.4L139.558 58.74L139.698 58.25L139.628 57.83L139.488 56.64L139.698 55.73L139.908 55.31L139.978 54.89V54.75L139.558 52.79L139.838 50.76V47.54V46.98L139.628 47.05L139.698 46.21H139.558L139.488 44.04V43.97L139.348 43.62L139.418 43.34L139.488 42.57L139.208 40.19L139.348 40.12L139.488 39.84L138.998 39.56L138.718 38.37L138.648 37.6V37.46L138.578 37.32H138.508L138.578 36.9L138.228 36.69L137.598 37.39L136.898 39.07L136.618 39.7L136.408 39.91L136.198 41.03L135.498 41.87L134.238 44.18L133.608 44.88L133.818 44.95L133.538 45.37L132.278 47.12L131.578 48.38L131.368 48.66L131.018 48.87L130.878 48.94L130.808 49.01L130.178 49.64L130.108 49.85L129.828 50.06H129.758L129.268 50.69L126.958 52.09L126.678 52.3H126.468L124.438 53.28L123.738 50.34L123.878 48.45V48.24L123.738 48.03L123.668 47.75L123.388 46.07V44.18V44.04L123.318 43.83L123.248 43.69L123.318 42.71L123.108 42.01L123.038 40.54L123.248 39.56V38.79L123.038 38.3V38.16L122.968 38.02L122.898 37.67V37.32L122.968 36.97L123.038 36.83L123.248 32.07L123.528 31.16L123.668 30.39L123.598 29.83V29.48L123.808 28.36L123.738 28.15L123.808 28.01V27.66V26.19L123.738 25.91L123.878 25.7L124.088 25.28L124.298 24.65L125.138 24.51L126.188 23.88H126.888L126.958 26.19L126.748 26.4L126.678 26.61L126.748 26.82V26.96L126.958 27.17L126.818 27.94L126.678 28.15L126.608 28.5L126.538 28.85L126.608 30.25L126.958 31.37L126.748 35.01L126.958 35.85L127.028 36.13L126.958 36.48L126.818 36.83L126.888 37.53L126.818 38.09L126.888 38.23L126.818 39.42L127.028 39.63V40.05L127.238 40.47L127.168 41.38L127.098 42.57L127.238 43.62V45.3L127.168 45.58L127.308 45.79L127.168 46L127.448 46.56L127.588 47.61H127.728V48.17L127.798 48.38L128.008 48.59L128.218 48.66L128.358 48.59L128.778 48.38L129.198 48.03L129.408 47.47L130.038 46.42L130.808 45.72L131.088 45.02L131.298 44.88H131.508L131.718 44.53L131.508 44.32L131.648 43.34L131.718 43.2L131.928 42.64L134.028 38.44V38.37L134.168 38.16L134.308 38.02L134.238 37.81L135.988 33.4L136.058 32.28L136.408 31.79L136.758 30.6L136.828 30.53L136.968 30.18L137.388 29.55L139.068 28.92L139.698 28.15L140.678 27.94L140.888 27.8L141.168 27.66L141.588 27.59L142.008 27.66L142.078 28.64L142.148 28.78L142.498 29.41L142.428 29.76V29.97L142.498 30.6L142.638 30.88L142.708 31.65L143.058 32.42L142.988 33.4L143.478 35.08L144.178 41.45L144.038 42.01L144.178 42.29L143.968 44.18L144.178 46L144.108 47.82L143.968 48.73L144.038 48.94L144.178 49.64L144.038 51.6ZM193.659 14.29L193.519 15.62H193.589L193.659 15.76L193.589 16.04L193.449 16.46L193.379 16.95L193.169 17.3L192.889 18.56L191.419 20.24L191.069 20.73L190.999 21.01L190.089 21.85L189.599 22.13L189.459 22.2L189.319 22.27L187.779 23.18L187.219 23.11L186.659 23.67L186.449 23.81L185.959 24.23L185.749 24.3L185.539 24.37L185.259 24.3V24.16L185.049 24.3L183.229 24.65L183.019 24.79L182.739 24.86H182.529L181.689 25.07L181.549 25.14L181.409 25.21L181.339 25.35L179.449 25.49L178.189 26.05L176.719 25.91L176.299 25.77H175.809L175.459 25.63H175.319L174.969 25.7L174.759 25.98V26.68L174.619 26.82V27.03V27.24L174.479 27.38L174.409 28.08L174.129 28.5V29.48L173.989 29.9L173.919 31.16L173.639 32.35L173.709 33.05L173.359 33.96V34.59L173.219 35.15L173.009 35.5L172.939 36.27L172.869 37.25L172.519 38.3L172.449 38.58L172.589 39.21L171.959 41.45L171.539 47.19L171.329 52.02L171.399 52.65L171.329 52.79L170.909 53.14L170.559 53.21L169.929 53.28V53.49L168.459 54.26H168.039L167.899 54.12L167.759 53.56L167.689 51.39L167.549 50.41L167.689 49.57L167.269 47.47L167.549 46.7L167.479 46.49L167.339 46.07L167.129 45.44L167.059 44.81L166.709 42.85L166.779 42.01L166.709 41.73V41.66V41.52L166.779 41.24V41.1V40.96L166.569 40.61L166.499 38.79L166.639 38.65V38.44L166.359 37.53V37.39L166.429 37.25L166.569 37.04L166.919 36.27L166.289 35.5L166.359 34.59L166.429 34.38V34.17L166.359 33.54L166.499 33.19L166.429 32.98L166.219 32.7L166.079 32.63L166.149 31.72L166.219 31.44L166.149 31.3L165.939 31.02L165.799 29.06H165.939V28.57L165.659 27.73L165.869 26.47L165.799 25.7L165.099 23.67L165.309 23.46L166.359 23.95L167.129 23.67L167.339 23.25L167.479 22.13L167.619 21.57V21.36H167.409L167.269 21.29L166.779 20.59L166.359 19.68L165.239 19.33L164.609 19.12L164.469 18.98L163.909 18.7L163.139 17.51L162.929 16.67L163.069 16.46V16.32V16.18L162.999 16.04L162.859 15.83V14.78L163.139 14.01L163.349 13.59L163.489 13.38L165.659 10.79L167.129 9.88H167.479L168.109 9.32L169.159 8.9L170.069 8.27L173.779 6.73L174.689 6.59L175.109 6.52L175.599 6.24H175.739V6.17L178.329 5.54L178.259 5.68L178.539 5.75H178.679L179.029 5.47L179.869 5.19H180.149L180.429 5.05L185.049 5.26L185.119 5.12H185.329L186.449 5.4L189.669 7.29L190.509 8.48L190.789 8.55L190.999 8.76L191.209 8.9L192.049 9.6L192.329 10.09L192.609 10.93L192.679 11L192.329 11.42V11.56L192.539 11.77L193.029 11.98L193.309 12.19L193.449 12.4L193.519 12.54L193.589 12.75L193.519 13.8L193.659 14.29ZM190.159 14.01L189.669 13.38V12.89L189.529 12.68V12.33L189.109 11.56L188.829 11.21L188.549 10.65L188.269 10.44L187.989 10.09L187.499 9.6L187.359 9.53V9.46L187.219 9.32L187.079 9.25L186.869 8.97L186.309 8.62L186.169 8.48L185.819 8.27L184.419 7.5L183.229 7.08H182.879L182.249 6.87L181.969 7.08L180.219 6.8L180.009 6.94L178.749 6.87V6.94L178.119 7.15H177.909L177.279 7.08V7.22H176.929L176.439 7.5L175.249 7.85L174.689 7.78L174.549 7.92L173.289 8.55L172.519 8.62L169.929 9.74L169.369 10.23L168.599 10.72L168.179 11.14L167.689 11.7L167.199 11.98L166.989 12.12H167.199L166.919 13.24L167.059 13.45L167.199 13.59V13.8L167.619 14.43L169.159 15.69L169.439 15.83L169.509 15.9L171.049 16.74L171.259 17.09V17.23L170.559 17.86L169.789 18.14L169.439 18.49L169.299 18.63L168.669 18.98L168.039 19.4L168.249 20.17L168.319 20.38L168.109 21.43L168.039 21.64L167.969 22.13V23.46L168.179 24.3L168.249 25.7L167.969 26.4H168.109V26.61V26.82L168.249 27.45L168.459 28.01L168.529 28.57L168.599 28.78L168.389 29.69L168.669 30.32V31.16L169.089 32.14L168.949 32.98L169.089 33.47L169.299 35.29L169.579 36.48L169.789 36.9L170.419 36.83L170.489 36.41L170.629 36.27L170.909 33.12L171.259 32.21L171.609 29.83L171.819 29.2V28.92L171.749 28.57V28.43L171.609 28.29L171.679 27.52L171.959 26.82V26.61L171.819 26.12L171.749 25.98V24.93L170.839 25.14L170.349 24.79L170.279 24.44L170.349 24.23L170.699 23.88L171.049 23.81L171.609 24.02L171.959 23.81L172.029 23.6L171.959 23.32L171.749 22.76L171.819 21.99L171.609 21.85L171.469 18.63L172.449 18.28L173.079 17.93L173.779 17.58L174.059 17.65L174.829 18.07V18.35L174.899 18.56L175.249 21.5L174.969 22.34L175.179 24.09L176.089 24.3L178.749 24.37L178.959 24.23L179.449 24.16L180.009 24.09L182.529 23.6L182.949 23.53L183.299 23.39L183.859 23.18H184.489L184.559 22.97H184.769L185.119 22.76L185.539 22.62L186.799 21.78L187.429 21.57V21.36L187.499 21.29L187.919 21.01L188.829 20.24L188.899 20.1L188.969 19.54L189.179 19.4L189.389 18.98L189.669 18.84L189.529 18.42L190.159 17.16L190.089 16.81L190.159 16.46L190.229 15.76L190.159 15.13L190.019 14.78L190.089 14.5L190.159 14.01ZM205.808 57.83V58.18L203.428 57.41L203.078 57.13L202.308 56.99L202.028 56.71L201.958 56.57L201.538 55.94L201.258 55.8L201.118 55.59L200.838 55.17L200.208 54.54L200.138 54.26L198.178 53L197.828 52.58L197.408 51.25L197.618 50.27L197.478 50.2L197.548 49.78L197.478 49.71L197.338 47.19L197.618 46.07L197.688 44.25V43.97L197.828 43.76L198.038 42.01V39.28H197.898L197.828 37.53L198.108 35.29L197.898 34.87L197.828 28.43L197.618 27.66L197.898 26.12L198.038 22.13V21.92L198.178 21.29V16.25L198.318 15.41L198.108 14.08L198.038 11.28L197.968 11.07L197.828 10.79L197.688 10.51H197.548L197.618 8.06V7.78L197.828 6.94L197.338 5.96V5.05L197.268 4.91L197.198 4.35V3.3L197.128 2.74L197.198 2.53L197.338 2.25L197.478 2.04L198.388 1.13L199.088 0.989998L199.578 0.849995V0.779996L199.718 0.709997H199.998L200.278 0.989998L200.208 1.06L200.418 1.9L200.558 3.16L201.048 4.42V6.1L201.188 7.5L201.888 8.41L202.658 8.62L202.868 9.11V10.51L202.518 10.86L202.658 11.35V11.56V11.7L202.588 11.84L202.518 12.05L202.028 15.97V17.44L201.748 18.28V20.59L201.678 20.73L201.608 21.22V22.41L201.678 22.62L201.608 22.76V25.56L201.538 25.7L201.468 26.19L201.678 26.26L201.608 27.31L201.468 27.87L201.328 31.51L201.468 34.1L201.258 35.01L201.398 36.69L201.328 37.18L201.468 37.81L201.328 38.23L201.538 43.76L202.028 46.91L201.818 48.73L202.098 49.43L201.888 50.2L202.308 50.97L202.378 51.53V51.74L202.588 52.58L203.358 54.4L203.988 54.89L204.548 56.08L204.828 56.64L205.178 57.13L205.808 57.83ZM240.183 50.69V51.04L239.833 51.25L239.483 51.53L237.803 52.72L236.403 53.28L236.123 53.35L236.053 53.14H235.423L234.443 52.37L233.323 50.69L232.763 50.06L232.413 48.94L231.573 47.47L231.363 47.19L231.293 46.84L230.943 46.56L230.873 46.28L230.663 45.72L230.593 44.95L230.033 43.83L229.963 42.71L229.753 42.43L229.543 41.8L229.473 41.17L229.053 40.61H228.843H228.703L228.493 40.89V41.1H228.353V41.24L228.213 41.59L226.673 43.97L225.273 45.44L225.063 45.93L223.453 47.33L222.893 48.1L222.123 48.52L221.633 49.08L220.373 49.85L219.743 50.06L219.393 50.34L218.693 50.62L218.483 50.9L218.063 50.97L216.873 51.88L216.102 52.02L214.983 52.65L212.673 53.42L211.973 53.35L211.553 53.7L210.853 53.49L209.313 52.58L208.753 52.09H208.473L208.122 52.3L207.633 52.72L207.143 52.65L206.863 52.79L205.953 52.44L204.482 51.67L203.992 50.62L204.132 48.52L204.342 48.24V48.03L205.392 46.56L205.602 46.35L205.953 45.86L206.513 44.74L208.753 42.71L209.033 42.57L209.103 42.43L209.593 42.15L209.943 41.66L210.643 41.17L211.413 40.4L212.603 39.7L212.883 39.49L213.023 39.42L213.093 39.21L213.303 39.14L213.793 38.72L213.933 38.65L214.003 38.37L214.283 37.95L215.193 37.46H215.543L216.593 36.76L217.363 36.55L217.853 36.2L218.273 36.06V35.92L219.603 35.43L219.673 35.36L220.093 35.15L220.863 34.8L222.473 34.38L222.963 34.17L225.203 34.24L226.392 34.94L227.023 35.43L227.303 35.92H227.513L227.023 35.08L226.883 33.82L226.392 33.05L225.833 31.44L225.343 30.53L224.292 29.62L222.823 29.48L222.263 29.83L219.743 32.7L218.763 33.54L218.413 33.82L218.133 33.89L217.923 33.82L217.713 33.61V33.47L218.343 32.98V32.84L218.413 32.63L218.623 32.35L219.323 31.51L220.233 30.67L221.143 29.55L224.223 26.75L224.923 26.68L225.903 26.05L226.113 25.91H226.323L226.533 25.98L226.743 26.12L227.513 26.19L228.843 27.52L229.403 28.43L230.173 30.32L230.453 30.67L231.293 33.05V33.33L231.433 33.75L231.573 34.87L231.853 35.5V35.78L231.993 36.34L232.063 36.83L232.203 37.39L232.763 39.21L233.043 39.7L233.113 40.61L233.673 41.59L233.743 42.85L234.093 43.55L234.583 45.3L235.773 47.82L236.193 48.31L236.333 48.59L236.753 49.08L236.823 49.71L238.433 50.97L239.343 50.83L239.483 50.76L239.623 50.69H239.973H240.183ZM226.603 36.13L225.973 35.64L225.483 35.22L224.993 35.08L223.453 34.94L221.773 35.36L221.213 35.57L220.513 35.85L220.233 36.06L220.023 36.13L217.433 37.39L217.153 37.6L217.013 37.81L216.593 37.95L216.243 38.09L216.102 38.3L215.613 38.65L215.543 38.79L215.403 38.86L215.263 39L214.913 39.28L213.583 40.82L213.443 41.17L213.303 41.66L212.953 41.94L212.883 42.22L212.393 43.27L212.183 43.41L212.043 43.83L211.693 44.39L211.763 45.23L211.343 45.93L211.203 46.91L211.343 48.31L211.763 49.22L212.183 49.43L212.533 50.2L213.373 50.76L214.353 50.9L215.753 50.76L217.503 50.13L217.783 49.85L218.343 49.71L219.743 48.94L221.143 47.61L221.353 47.54L221.493 47.4L223.733 44.67L223.873 44.46L224.223 44.18L224.433 43.83L224.993 42.99L225.553 41.59L225.833 41.1L226.043 40.75V40.61L226.183 40.33L226.533 39.35V39L226.603 38.79L226.743 38.58V36.9L226.603 36.48V36.13ZM209.733 43.34L208.823 44.32L208.263 44.67L208.053 44.95L207.913 45.3L207.633 45.86L207.423 46.07V46.7L207.353 46.91L207.213 47.19L206.863 47.54L206.723 48.24L206.863 48.59L207.073 49.22L207.493 49.64L207.423 49.43H207.983L208.263 49.36L208.543 49.01L208.613 48.66V48.38L208.683 48.17L209.173 46.91L209.313 46.42L209.593 46.07V46L209.733 45.79L209.803 45.51L210.013 44.88L211.063 43.34L211.343 42.78L211.203 42.64L210.993 42.5L210.643 42.64L210.432 42.85V42.92L209.733 43.34ZM268.279 54.54H268.069L268.209 54.61L267.859 54.82L267.439 54.89L266.949 54.4L266.319 54.12L265.689 53.28L264.919 52.79L264.079 52.44L263.659 51.81L262.049 50.76L261.909 50.41L261.769 50.34L261.979 50.2L261.699 48.87L261.209 48.24L261.139 47.12V46.63L261.209 46.21L261.139 45.72L260.509 43.41L260.089 41.38L260.229 40.96L260.089 40.19L259.949 38.93L260.159 31.3L260.019 29.9L259.809 29.2L259.109 30.11L257.429 34.03L257.219 34.38L257.009 34.73L256.519 35.57L256.309 36.06L256.519 36.27L253.789 41.03L253.719 41.17L253.439 42.08L252.669 43.34L252.599 43.41V43.69L252.529 44.04L251.479 45.72H251.409L251.269 46.07L250.919 46.49L250.499 47.54L250.429 47.61L249.939 48.52L249.589 48.8L249.379 49.78L248.399 51.67L247.769 52.37L247.069 52.44L246.859 52.79L246.019 53.28L244.969 53.21L244.759 53.28L244.619 53.35H244.409L244.059 53.28L243.779 53V52.65L243.569 51.81L243.289 48.24H243.499L243.359 47.89L243.429 47.26V45.37L243.079 44.39L243.289 43.34L243.009 41.59V40.33L243.079 40.05V39.28L243.149 38.86L243.359 36.41L243.009 35.36L243.149 35.15L243.289 33.4L243.149 32.91L243.289 32.56L243.149 31.51L243.219 26.05L243.359 25.98L243.569 25.07L244.129 24.65L247.699 23.81L248.119 24.3L248.259 25.14L248.189 26.4L248.119 27.1L248.189 27.24L247.979 27.52L247.629 28.78L247.419 29.41L247.279 29.9L247.139 30.18L246.789 33.47L246.579 34.31L246.509 35.85L246.369 36.13L246.299 36.41V36.55L246.229 38.02L246.579 43.41L246.369 44.32L246.509 44.53V45.37L246.579 45.51L246.719 46.98V47.4L246.789 47.61L247.139 47.82H247.559L248.469 47.33L248.749 46.84L248.889 46.63L249.029 45.93L249.799 45.09L250.849 43.41V43.13L250.919 43.06L252.109 41.59L252.529 40.26L253.649 38.3L254.349 37.39L255.399 35.08V35.01L255.609 34.59L255.889 33.75L255.959 33.54L256.309 33.19L256.659 32.77L256.799 32.28L257.289 30.67L257.919 29.27L258.899 26.19L259.809 24.72L261.629 23.81H261.909L262.259 23.67L263.729 23.46L263.869 24.51L263.659 24.86L263.589 25.07L263.659 25.35L264.079 28.01L264.009 28.22L263.939 28.85L263.659 29.62L263.869 32.56L263.659 33.47V34.03L263.589 34.24L263.519 35.36L263.939 36.76L264.499 42.36L264.989 45.79L265.129 46.35L265.339 47.26V48.59L265.619 49.29L265.899 49.78L266.109 50.27L266.319 50.76L266.879 52.16L267.929 54.19L268.279 54.54Z" fill="#1E1E1E"/>
</svg>
