<svg width="228" height="59" viewBox="0 0 228 59" fill="none" xmlns="http://www.w3.org/2000/svg">
<path d="M34.86 10.86L34.23 11.14L33.81 11.77L33.53 12.12L33.25 12.4L33.04 12.75L32.2 13.38L31.43 14.57L31.08 14.71L30.73 14.78L30.1 15.41L29.89 15.97L29.61 16.39L29.19 16.95L27.79 18.42L27.58 18.7L27.3 18.77V18.98L26.6 19.61L26.18 20.17L26.11 20.24L25.76 20.59L25.13 21.71L24.15 22.69L23.8 22.83L23.1 23.53L22.96 24.44L22.26 24.93L21.42 26.96L20.65 27.73L20.51 27.94L20.23 28.29L20.16 28.5V28.64L19.32 29.2L19.18 29.48V29.69L18.48 30.67V32.07L18.62 32.35L18.83 32.7L19.18 33.26L19.39 33.96L19.53 34.24L19.6 34.38L19.88 34.45L20.44 35.08L20.93 35.71L21.14 35.85L21.42 36.34L21.98 37.04L22.96 37.88L23.17 38.37L23.8 38.86L23.94 39.28L24.15 39.49H24.36L24.85 39.98L25.2 40.19L25.34 40.33L25.69 40.82H25.83L25.97 40.96L26.32 41.31L26.6 41.66L26.81 41.8L27.16 42.43L27.09 42.78H27.72L27.93 43.2L28.07 43.13L29.19 44.53L29.26 44.88H29.4L29.54 44.74H29.68L29.82 44.95L33.74 49.36L33.95 49.85L34.16 49.92L35.49 51.11L35.63 51.39L36.05 51.74L36.82 52.37H36.96L37.24 52.65L37.17 52.79L36.96 52.72L36.26 53.28L35.42 53.14L35.21 52.93L35 52.86L34.79 52.72L34.02 52.65L31.78 51.04L29.82 50.27H29.54H29.4L29.19 50.13L28.98 49.99L28.28 49.57L28.07 48.94L26.67 47.89L26.53 47.82L26.04 47.26L25.55 46.91L25.41 46.7L25.2 46.56L24.99 46.21H24.92L24.78 46L24.5 45.79L24.15 45.58L24.01 45.37L23.59 44.88L22.75 44.32H22.68L22.47 43.97L17.57 39.63L17.15 39.14L17.08 39.07L16.87 38.86L16.52 38.44L16.31 38.37L16.24 38.23L16.03 38.02L15.4 37.11L14.91 36.69L14.56 36.62L14.21 36.69L13.58 37.32L13.51 37.95L13.02 38.51L12.88 38.72L12.67 38.93L12.39 39.42L12.25 39.7L11.97 40.05L11.41 40.61V40.75H11.55L10.71 41.73L10.15 42.78L9.8 43.06V43.41L8.54 44.81L6.65 47.68L5.6 48.8L5.11 49.99L4.55 50.48L4.34 50.69L4.13 50.9L4.06 50.97L2.8 52.16L2.17 53.07H2.1L1.89 53.21L1.61 53.14L1.26 53.21L0.98 52.86V52.3L1.33 51.88L1.26 51.46L2.24 50.27L2.45 49.78L2.59 49.57L2.8 49.15L3.22 47.89L3.5 47.33L3.57 47.05L4.27 44.32L4.34 43.55L4.69 43.13L4.55 42.15L4.9 41.8L4.83 40.12L5.11 38.65H5.25L5.32 38.09L5.25 37.95V37.81L5.46 37.25V37.11L5.39 36.9L5.32 36.62L5.39 35.15L5.95 31.37L5.88 27.87L5.95 27.38L5.81 26.96L5.53 24.02L5.11 22.9L4.97 22.27L5.04 21.85L4.9 21.64L4.69 21.01L3.85 18.84L2.8 16.95L3.08 16.18L3.01 16.04L3.15 15.97H3.29L3.43 15.76L3.85 14.99H4.27L3.99 14.22L4.27 12.89L4.55 12.12L4.48 11.07L4.76 11.14L4.97 11.21V11.35L6.02 12.75L6.16 13.17H6.3L7.28 14.85H7.49L9.59 19.12L10.01 20.66L10.08 21.64L10.29 22.41L10.43 22.48L10.36 23.53L10.5 24.23L10.36 24.93V27.38H10.22V28.5L9.87 29.76V31.02L9.66 31.51L9.38 33.75L8.82 35.64L8.75 36.62L8.33 37.46V38.16L7.98 38.93V39.07L7.84 39.63L7.56 40.26V40.61L7.49 41.17L7.21 42.01L7 42.22L6.51 43.97L6.44 44.6L6.37 44.95L6.3 45.09L6.37 45.44L6.51 45.58L7.07 44.6L7.21 44.53L7.42 44.25L7.7 43.62L8.33 42.92L8.54 42.5L8.61 42.36L8.75 41.94L8.89 41.66L9.1 41.52L9.59 40.82L10.08 39.98L10.43 39L10.64 38.86L10.78 38.65L10.85 38.58L10.92 38.37H11.06L11.13 38.02L12.18 36.76L12.46 36.55L12.6 35.99L13.72 34.38L13.3 33.33L13.23 31.58L14.42 29.9L17.15 27.31L17.22 27.24L17.29 27.03H17.5L18.2 26.19L18.62 25.77L18.69 25.7L18.9 25.49L22.54 21.85L22.82 21.43H23.1L23.17 21.01L23.24 20.94L25.62 18.42L25.83 18.14L26.04 18L27.65 16.32L27.72 16.25L27.93 16.04L32.48 11.56L34.79 9.6L35.49 9.11L35.7 8.76L36.19 8.9L36.33 8.97L36.47 9.25L36.4 9.39L35.77 10.02L34.86 10.86ZM46.0305 24.16L45.7505 24.3L45.6805 24.16H45.5405L45.0505 25.14H44.9805L44.9105 25.35V25.56L45.1205 26.26L45.0505 26.61L44.7705 27.45V27.8L44.7005 28.43L44.4205 30.88L44.6305 32.63L44.4905 33.47L44.6305 35.22V36.2H44.4905H44.3505V36.06L43.7905 35.22L44.0005 34.17L43.8605 33.89V33.82L43.6505 32.77V32.56V32.28L43.8605 31.72L43.7905 30.74L44.1405 24.02L44.0705 22.62L44.0005 22.27L43.9305 21.99L43.7905 21.85L43.5105 21.78H43.2305L43.0205 21.85L42.8105 22.06L42.1105 22.41L41.4805 21.99L41.0605 21.36L40.7805 21.08L40.6405 21.01V20.73L40.0105 19.26L40.4305 17.93L43.0905 16.46L44.0005 16.25L45.0505 17.37L45.1905 18.07L45.9605 19.75L45.8205 20.24L45.1905 20.8L44.9105 21.29V22.2L45.2605 22.9L45.3305 23.46L46.0305 24.16ZM44.9105 47.68L44.4905 49.92L44.3505 52.09L43.0205 52.65L41.0605 53.07H40.8505L40.7105 53L40.6405 52.65L40.2905 50.62L40.1505 49.92V49.78V49.36L40.0805 48.45L40.1505 48.24H40.0805L39.9405 46.42V46.21L40.0105 46.07L39.8705 45.93L40.0105 44.67L39.9405 44.53L39.8005 44.04L39.8705 42.85L39.5205 38.37L39.7305 37.25L39.5905 36.69V36.48L39.5205 36.34L39.6605 34.17L39.7305 33.75V33.33L39.5205 31.79L39.7305 31.02L39.8005 27.17L39.7305 26.89L39.8005 26.47L40.2205 26.05L41.4105 25.49L41.5505 25.42H41.6905L42.0405 25.49L43.0205 25.35L43.3705 27.45L43.1605 30.46L43.2305 31.02L43.0205 32.21L42.9505 33.68V34.31L42.8805 34.66L43.0205 36.55L42.6705 38.09V39.84L43.0205 40.12H43.1605L43.5805 39.91H44.0705L44.4205 39.49L44.4905 39L44.7005 38.86L44.9105 39L45.1205 39.42L44.9105 40.89L44.9805 42.99L44.7005 44.88L44.8405 45.3L44.7705 46.91L44.5605 47.26L44.6305 47.47H44.8405L44.9105 47.68ZM48.8086 46.49L49.0186 46.21L48.8086 45.79L49.0186 45.65V45.44H49.0886V45.16L49.8586 43.97L56.1586 36.83L56.2986 36.9L56.4386 36.76L57.8386 34.66L58.6786 33.75L58.8186 33.47L59.0986 33.12L61.4086 30.32L63.4386 28.22L64.6986 27.59L64.6286 28.57L64.0686 29.62L63.5086 29.9L63.2286 30.25L62.9486 30.74L63.0886 31.09H63.1586L63.2986 30.95H63.4386L63.7186 30.6L67.9886 28.15L68.5486 28.08L69.3186 27.73L70.4386 27.8L70.8586 27.87L71.1386 28.01H71.2786L71.4886 27.94L71.6986 27.66L71.7686 27.45V27.31L71.5586 26.33L71.6286 25L71.4886 24.86V23.25L71.6986 22.34L71.6286 21.71V21.5L71.5586 20.45L71.6286 20.52L71.6986 20.38V18.42L71.6286 18.28L71.6986 18.21L71.9086 17.58L71.7686 15.9L71.8386 13.45L71.6986 13.38L71.9786 12.47L72.1186 10.16L72.1886 9.95H72.3986L72.7486 7.08L72.6086 5.61L72.6786 4.84L72.7486 3.86V3.23L73.0286 2.53L73.7986 2.11L74.1486 2.04L74.6386 1.9H74.9186L76.1786 0.989998L76.8786 0.709997L77.5786 1.06L77.7186 1.9L77.5086 2.32L77.7186 2.88L77.5786 3.44L77.5086 3.79L77.3686 4.14L77.2986 4.42V4.84L76.7386 6.87L76.6686 7.22V7.36L76.8086 7.78L76.5286 8.9L76.6686 9.6L76.4586 9.88L76.3186 10.44L76.3886 11.91L76.4586 12.19V12.89L76.3186 13.73L76.4586 13.94L76.5986 14.08V14.99L76.6686 15.2V15.55L76.8786 15.97L77.0186 17.23L76.8086 17.86L76.5986 18.56V18.84L76.5286 19.33L76.5986 20.1L75.9686 21.15L76.1086 21.5L75.9686 23.32L75.0586 28.57L75.1986 32.21L75.1286 33.19L75.5486 40.61L75.7586 40.68L75.8286 41.17L75.8986 42.57L76.6686 46.28L76.9486 47.33L77.2286 47.68L77.1586 47.96L77.5786 48.59V48.73L77.7186 49.15L79.3286 52.3L79.2586 52.58L78.9786 52.93L78.6286 53.07L78.4186 53L78.2786 52.93L77.4386 52.16L76.1786 52.65L75.4086 52.02L75.2686 51.46L74.9186 51.18L74.6386 50.41L74.3586 50.34L74.0786 50.13L73.8686 49.78L73.5186 49.22L73.4486 48.73L73.2386 48.52L72.6086 47.26L72.3986 46.98H72.2586L71.9786 46.28L71.5586 45.3L71.6286 45.16H71.6986L71.4186 44.88L71.2086 44.53L70.5786 44.74L70.2986 45.23L70.0886 45.51L70.0186 45.72L69.7386 46.21L69.6686 46.28L69.5286 46.35L69.3186 46.7L68.1986 48.17L64.4186 52.37L63.3686 52.86L60.5686 55.45L60.4286 55.52L60.0786 55.66L59.7986 55.73L59.6586 55.87L59.5886 55.94L59.2386 56.15L58.8886 56.43L58.6786 56.5L57.1386 57.13L55.9486 57.41L54.6186 57.2L53.1486 56.64L52.5886 56.01L51.8186 54.47L51.1886 51.81L51.3986 50.48L51.1186 49.85L51.0486 48.52L49.7886 47.96L49.3686 47.47L49.0186 47.12L48.8086 46.49ZM53.9186 50.34L54.0586 51.53L54.6886 52.72L55.4586 53.42H55.5986L55.9486 53.7H57.6286L58.0486 53.84L60.4986 52.93L60.9886 52.86L62.8086 51.74L63.0186 51.53L63.2986 51.32L63.3686 51.18L64.2786 50.41L64.3486 50.34L64.4886 49.99L66.0986 48.52L66.7286 47.75L67.0786 47.26L67.2886 46.98L68.2686 45.65L68.6886 45.23L68.6186 45.16H68.7586L68.8986 45.02L69.0386 44.74L69.2486 44.11L69.5986 43.83L69.8086 42.99L70.6486 42.01L70.7186 41.73V41.59L70.5786 41.31H70.7886L71.1386 39.98L70.9986 39L70.8586 35.64L70.6486 35.36L70.5786 34.94L70.2986 35.01L70.3686 34.73H70.2986L70.1586 34.94L69.7386 35.36L69.5986 35.43L69.2486 35.85L67.0086 38.37L65.6786 39.42L62.6686 42.43L62.0386 42.78L61.4786 43.34L61.4086 43.48L58.3986 45.72L57.6986 46.21L57.5586 46.35L57.2086 46.63L56.9986 46.91L55.9486 47.75L54.9686 48.17L54.1986 48.52L54.1286 48.66L54.0586 48.87L53.9186 50.34ZM54.8286 44.74L55.0386 44.81V44.95L56.5786 44.74L57.6986 44.11L58.3986 43.97L58.4686 44.04L58.7486 43.69L59.0286 43.62L59.5886 43.13L60.6386 42.57L61.6886 41.87L63.5086 40.19L63.7886 40.05L63.9986 39.84L64.3486 39.63L65.5386 38.51L65.7486 38.3L66.0286 38.09L66.0986 38.02L66.2386 37.81L66.3086 37.74L66.4486 37.67L66.7986 37.39L68.2686 35.85L68.6186 35.36L68.6886 35.15H68.8986L69.5986 34.31L69.7386 34.17L69.9486 34.03L70.0886 33.96L70.5786 33.47L70.6486 33.19L70.5086 32.84L70.3686 32.56L70.1586 32.35L69.8786 32.07L69.7386 32L69.3886 31.79L69.0386 31.3L68.5486 31.16L68.4086 31.23L68.1986 31.3L67.4986 31.09L66.3786 31.23L64.0686 32.42L62.5286 33.61L60.7086 34.73L60.5686 35.08L59.9386 35.5L59.7986 35.85L59.5186 35.92H59.3786L59.2386 36.06L59.1686 36.27L58.8186 36.41L58.0486 37.6L57.9086 37.95L57.6286 38.23L57.2086 38.65L56.9286 39.35L56.8586 39.7L56.6486 39.84L55.6686 41.52L54.8986 43.62L54.8286 44.74ZM103.074 26.05L103.004 26.96L102.794 27.59L102.654 27.87L102.584 27.94L102.444 27.87L102.514 29.27L102.234 29.34L102.094 29.2L101.814 27.24L101.254 26.61L100.974 26.33L100.834 26.12L98.5939 25.91L95.5839 26.89L93.2039 28.22L92.4339 28.92L91.8039 29.41L90.1239 30.39L90.0539 30.53H89.8439L86.9039 33.61L86.6939 33.82L86.4839 34.38L85.7139 35.5L84.9439 37.11L85.2239 37.88L85.1539 38.09L85.2239 38.3L85.2939 38.44L85.5739 39.07L86.1339 39.63L86.9039 40.05L90.0539 39.7L93.6939 38.37L94.6739 38.23L96.0039 37.74L98.2439 37.11L100.204 36.9L100.344 36.97L100.624 36.9L101.324 36.97L103.284 38.02L103.634 38.65V39.63L103.494 39.84H103.564L103.774 40.89L103.004 42.99L102.164 44.04L101.814 44.95L99.3639 48.31V48.45L98.9439 48.8L95.7939 51.32L94.0439 52.51L92.3639 53.35L91.3839 53.56L89.2139 54.33L86.8339 54.47L85.5739 54.33L85.0839 54.05L84.8039 53.91L83.8939 53.77L83.8239 53.49L82.7039 53.42L81.7939 53.07L81.7239 52.86L81.6539 52.51L82.7739 52.02L83.2639 51.95L84.2439 51.39L85.2939 51.67H85.8539L86.5539 51.88L88.0939 51.95L88.3039 52.09L88.3739 52.16L88.8639 52.09H89.2139L90.4039 52.02L91.3139 51.6L92.1539 51.46L93.4839 50.97L94.6739 50.69L95.6539 50.06L96.2139 49.36L97.1239 48.87L98.2439 47.12L99.0839 46.42L99.9939 45.09L100.204 43.55L100.134 42.71L100.064 42.5L99.9239 42.22L99.3639 41.52H97.7539L96.1439 42.01L95.0939 42.57L94.2539 42.71L93.2739 43.34L91.3839 43.97L90.1239 44.25L89.7039 44.39H89.5639L89.3539 44.25L88.7239 44.32L88.3739 44.53L86.9039 44.74H84.4539L82.9839 43.76L82.7039 43.55L82.4939 43.34L82.4239 43.2L82.0739 42.29L82.0039 41.59L82.0739 41.17L82.0039 40.96L82.4939 39.07L83.9639 36.48L84.1739 36.2L84.2439 35.71L86.2039 32.98L86.6939 32.91L87.1839 31.79L88.0239 31.09V30.88L88.2339 30.74L88.6539 30.25L93.9739 25.77L95.8639 24.58L98.5239 23.32L100.344 23.18L100.904 23.04L101.184 22.97L101.464 23.11L101.604 23.32L102.234 23.6L102.794 24.16L102.934 25.21L102.794 25.49L102.584 25.7V25.91H102.864V25.98L103.074 26.05ZM152.797 14.29L152.657 15.62H152.727L152.797 15.76L152.727 16.04L152.587 16.46L152.517 16.95L152.307 17.3L152.027 18.56L150.557 20.24L150.207 20.73L150.137 21.01L149.227 21.85L148.737 22.13L148.597 22.2L148.457 22.27L146.917 23.18L146.357 23.11L145.797 23.67L145.587 23.81L145.097 24.23L144.887 24.3L144.677 24.37L144.397 24.3V24.16L144.187 24.3L142.367 24.65L142.157 24.79L141.877 24.86H141.667L140.827 25.07L140.687 25.14L140.547 25.21L140.477 25.35L138.587 25.49L137.327 26.05L135.857 25.91L135.437 25.77H134.947L134.597 25.63H134.457L134.107 25.7L133.897 25.98V26.68L133.757 26.82V27.03V27.24L133.617 27.38L133.547 28.08L133.267 28.5V29.48L133.127 29.9L133.057 31.16L132.777 32.35L132.847 33.05L132.497 33.96V34.59L132.357 35.15L132.147 35.5L132.077 36.27L132.007 37.25L131.657 38.3L131.587 38.58L131.727 39.21L131.097 41.45L130.677 47.19L130.467 52.02L130.537 52.65L130.467 52.79L130.047 53.14L129.697 53.21L129.067 53.28V53.49L127.597 54.26H127.177L127.037 54.12L126.897 53.56L126.827 51.39L126.687 50.41L126.827 49.57L126.407 47.47L126.687 46.7L126.617 46.49L126.477 46.07L126.267 45.44L126.197 44.81L125.847 42.85L125.917 42.01L125.847 41.73V41.66V41.52L125.917 41.24V41.1V40.96L125.707 40.61L125.637 38.79L125.777 38.65V38.44L125.497 37.53V37.39L125.567 37.25L125.707 37.04L126.057 36.27L125.427 35.5L125.497 34.59L125.567 34.38V34.17L125.497 33.54L125.637 33.19L125.567 32.98L125.357 32.7L125.217 32.63L125.287 31.72L125.357 31.44L125.287 31.3L125.077 31.02L124.937 29.06H125.077V28.57L124.797 27.73L125.007 26.47L124.937 25.7L124.237 23.67L124.447 23.46L125.497 23.95L126.267 23.67L126.477 23.25L126.617 22.13L126.757 21.57V21.36H126.547L126.407 21.29L125.917 20.59L125.497 19.68L124.377 19.33L123.747 19.12L123.607 18.98L123.047 18.7L122.277 17.51L122.067 16.67L122.207 16.46V16.32V16.18L122.137 16.04L121.997 15.83V14.78L122.277 14.01L122.487 13.59L122.627 13.38L124.797 10.79L126.267 9.88H126.617L127.247 9.32L128.297 8.9L129.207 8.27L132.917 6.73L133.827 6.59L134.247 6.52L134.737 6.24H134.877V6.17L137.467 5.54L137.397 5.68L137.677 5.75H137.817L138.167 5.47L139.007 5.19H139.287L139.567 5.05L144.187 5.26L144.257 5.12H144.467L145.587 5.4L148.807 7.29L149.647 8.48L149.927 8.55L150.137 8.76L150.347 8.9L151.187 9.6L151.467 10.09L151.747 10.93L151.817 11L151.467 11.42V11.56L151.677 11.77L152.167 11.98L152.447 12.19L152.587 12.4L152.657 12.54L152.727 12.75L152.657 13.8L152.797 14.29ZM149.297 14.01L148.807 13.38V12.89L148.667 12.68V12.33L148.247 11.56L147.967 11.21L147.687 10.65L147.407 10.44L147.127 10.09L146.637 9.6L146.497 9.53V9.46L146.357 9.32L146.217 9.25L146.007 8.97L145.447 8.62L145.307 8.48L144.957 8.27L143.557 7.5L142.367 7.08H142.017L141.387 6.87L141.107 7.08L139.357 6.8L139.147 6.94L137.887 6.87V6.94L137.257 7.15H137.047L136.417 7.08V7.22H136.067L135.577 7.5L134.387 7.85L133.827 7.78L133.687 7.92L132.427 8.55L131.657 8.62L129.067 9.74L128.507 10.23L127.737 10.72L127.317 11.14L126.827 11.7L126.337 11.98L126.127 12.12H126.337L126.057 13.24L126.197 13.45L126.337 13.59V13.8L126.757 14.43L128.297 15.69L128.577 15.83L128.647 15.9L130.187 16.74L130.397 17.09V17.23L129.697 17.86L128.927 18.14L128.577 18.49L128.437 18.63L127.807 18.98L127.177 19.4L127.387 20.17L127.457 20.38L127.247 21.43L127.177 21.64L127.107 22.13V23.46L127.317 24.3L127.387 25.7L127.107 26.4H127.247V26.61V26.82L127.387 27.45L127.597 28.01L127.667 28.57L127.737 28.78L127.527 29.69L127.807 30.32V31.16L128.227 32.14L128.087 32.98L128.227 33.47L128.437 35.29L128.717 36.48L128.927 36.9L129.557 36.83L129.627 36.41L129.767 36.27L130.047 33.12L130.397 32.21L130.747 29.83L130.957 29.2V28.92L130.887 28.57V28.43L130.747 28.29L130.817 27.52L131.097 26.82V26.61L130.957 26.12L130.887 25.98V24.93L129.977 25.14L129.487 24.79L129.417 24.44L129.487 24.23L129.837 23.88L130.187 23.81L130.747 24.02L131.097 23.81L131.167 23.6L131.097 23.32L130.887 22.76L130.957 21.99L130.747 21.85L130.607 18.63L131.587 18.28L132.217 17.93L132.917 17.58L133.197 17.65L133.967 18.07V18.35L134.037 18.56L134.387 21.5L134.107 22.34L134.317 24.09L135.227 24.3L137.887 24.37L138.097 24.23L138.587 24.16L139.147 24.09L141.667 23.6L142.087 23.53L142.437 23.39L142.997 23.18H143.627L143.697 22.97H143.907L144.257 22.76L144.677 22.62L145.937 21.78L146.567 21.57V21.36L146.637 21.29L147.057 21.01L147.967 20.24L148.037 20.1L148.107 19.54L148.317 19.4L148.527 18.98L148.807 18.84L148.667 18.42L149.297 17.16L149.227 16.81L149.297 16.46L149.367 15.76L149.297 15.13L149.157 14.78L149.227 14.5L149.297 14.01ZM164.947 57.83V58.18L162.567 57.41L162.217 57.13L161.447 56.99L161.167 56.71L161.097 56.57L160.677 55.94L160.397 55.8L160.257 55.59L159.977 55.17L159.347 54.54L159.277 54.26L157.317 53L156.967 52.58L156.547 51.25L156.757 50.27L156.617 50.2L156.687 49.78L156.617 49.71L156.477 47.19L156.757 46.07L156.827 44.25V43.97L156.967 43.76L157.177 42.01V39.28H157.037L156.967 37.53L157.247 35.29L157.037 34.87L156.967 28.43L156.757 27.66L157.037 26.12L157.177 22.13V21.92L157.317 21.29V16.25L157.457 15.41L157.247 14.08L157.177 11.28L157.107 11.07L156.967 10.79L156.827 10.51H156.687L156.757 8.06V7.78L156.967 6.94L156.477 5.96V5.05L156.407 4.91L156.337 4.35V3.3L156.267 2.74L156.337 2.53L156.477 2.25L156.617 2.04L157.527 1.13L158.227 0.989998L158.717 0.849995V0.779996L158.857 0.709997H159.137L159.417 0.989998L159.347 1.06L159.557 1.9L159.697 3.16L160.187 4.42V6.1L160.327 7.5L161.027 8.41L161.797 8.62L162.007 9.11V10.51L161.657 10.86L161.797 11.35V11.56V11.7L161.727 11.84L161.657 12.05L161.167 15.97V17.44L160.887 18.28V20.59L160.817 20.73L160.747 21.22V22.41L160.817 22.62L160.747 22.76V25.56L160.677 25.7L160.607 26.19L160.817 26.26L160.747 27.31L160.607 27.87L160.467 31.51L160.607 34.1L160.397 35.01L160.537 36.69L160.467 37.18L160.607 37.81L160.467 38.23L160.677 43.76L161.167 46.91L160.957 48.73L161.237 49.43L161.027 50.2L161.447 50.97L161.517 51.53V51.74L161.727 52.58L162.497 54.4L163.127 54.89L163.687 56.08L163.967 56.64L164.317 57.13L164.947 57.83ZM199.321 50.69V51.04L198.971 51.25L198.621 51.53L196.941 52.72L195.541 53.28L195.261 53.35L195.191 53.14H194.561L193.581 52.37L192.461 50.69L191.901 50.06L191.551 48.94L190.711 47.47L190.501 47.19L190.431 46.84L190.081 46.56L190.011 46.28L189.801 45.72L189.731 44.95L189.171 43.83L189.101 42.71L188.891 42.43L188.681 41.8L188.611 41.17L188.191 40.61H187.981H187.841L187.631 40.89V41.1H187.491V41.24L187.351 41.59L185.811 43.97L184.411 45.44L184.201 45.93L182.591 47.33L182.031 48.1L181.261 48.52L180.771 49.08L179.511 49.85L178.881 50.06L178.531 50.34L177.831 50.62L177.621 50.9L177.201 50.97L176.011 51.88L175.241 52.02L174.121 52.65L171.811 53.42L171.111 53.35L170.691 53.7L169.991 53.49L168.451 52.58L167.891 52.09H167.611L167.261 52.3L166.771 52.72L166.281 52.65L166.001 52.79L165.091 52.44L163.621 51.67L163.131 50.62L163.271 48.52L163.481 48.24V48.03L164.531 46.56L164.741 46.35L165.091 45.86L165.651 44.74L167.891 42.71L168.171 42.57L168.241 42.43L168.731 42.15L169.081 41.66L169.781 41.17L170.551 40.4L171.741 39.7L172.021 39.49L172.161 39.42L172.231 39.21L172.441 39.14L172.931 38.72L173.071 38.65L173.141 38.37L173.421 37.95L174.331 37.46H174.681L175.731 36.76L176.501 36.55L176.991 36.2L177.411 36.06V35.92L178.741 35.43L178.811 35.36L179.231 35.15L180.001 34.8L181.611 34.38L182.101 34.17L184.341 34.24L185.531 34.94L186.161 35.43L186.441 35.92H186.651L186.161 35.08L186.021 33.82L185.531 33.05L184.971 31.44L184.481 30.53L183.431 29.62L181.961 29.48L181.401 29.83L178.881 32.7L177.901 33.54L177.551 33.82L177.271 33.89L177.061 33.82L176.851 33.61V33.47L177.481 32.98V32.84L177.551 32.63L177.761 32.35L178.461 31.51L179.371 30.67L180.281 29.55L183.361 26.75L184.061 26.68L185.041 26.05L185.251 25.91H185.461L185.671 25.98L185.881 26.12L186.651 26.19L187.981 27.52L188.541 28.43L189.311 30.32L189.591 30.67L190.431 33.05V33.33L190.571 33.75L190.711 34.87L190.991 35.5V35.78L191.131 36.34L191.201 36.83L191.341 37.39L191.901 39.21L192.181 39.7L192.251 40.61L192.811 41.59L192.881 42.85L193.231 43.55L193.721 45.3L194.911 47.82L195.331 48.31L195.471 48.59L195.891 49.08L195.961 49.71L197.571 50.97L198.481 50.83L198.621 50.76L198.761 50.69H199.111H199.321ZM185.741 36.13L185.111 35.64L184.621 35.22L184.131 35.08L182.591 34.94L180.911 35.36L180.351 35.57L179.651 35.85L179.371 36.06L179.161 36.13L176.571 37.39L176.291 37.6L176.151 37.81L175.731 37.95L175.381 38.09L175.241 38.3L174.751 38.65L174.681 38.79L174.541 38.86L174.401 39L174.051 39.28L172.721 40.82L172.581 41.17L172.441 41.66L172.091 41.94L172.021 42.22L171.531 43.27L171.321 43.41L171.181 43.83L170.831 44.39L170.901 45.23L170.481 45.93L170.341 46.91L170.481 48.31L170.901 49.22L171.321 49.43L171.671 50.2L172.511 50.76L173.491 50.9L174.891 50.76L176.641 50.13L176.921 49.85L177.481 49.71L178.881 48.94L180.281 47.61L180.491 47.54L180.631 47.4L182.871 44.67L183.011 44.46L183.361 44.18L183.571 43.83L184.131 42.99L184.691 41.59L184.971 41.1L185.181 40.75V40.61L185.321 40.33L185.671 39.35V39L185.741 38.79L185.881 38.58V36.9L185.741 36.48V36.13ZM168.871 43.34L167.961 44.32L167.401 44.67L167.191 44.95L167.051 45.3L166.771 45.86L166.561 46.07V46.7L166.491 46.91L166.351 47.19L166.001 47.54L165.861 48.24L166.001 48.59L166.211 49.22L166.631 49.64L166.561 49.43H167.121L167.401 49.36L167.681 49.01L167.751 48.66V48.38L167.821 48.17L168.311 46.91L168.451 46.42L168.731 46.07V46L168.871 45.79L168.941 45.51L169.151 44.88L170.201 43.34L170.481 42.78L170.341 42.64L170.131 42.5L169.781 42.64L169.571 42.85V42.92L168.871 43.34ZM227.417 54.54H227.207L227.347 54.61L226.997 54.82L226.577 54.89L226.087 54.4L225.457 54.12L224.827 53.28L224.057 52.79L223.217 52.44L222.797 51.81L221.187 50.76L221.047 50.41L220.907 50.34L221.117 50.2L220.837 48.87L220.347 48.24L220.277 47.12V46.63L220.347 46.21L220.277 45.72L219.647 43.41L219.227 41.38L219.367 40.96L219.227 40.19L219.087 38.93L219.297 31.3L219.157 29.9L218.947 29.2L218.247 30.11L216.567 34.03L216.357 34.38L216.147 34.73L215.657 35.57L215.447 36.06L215.657 36.27L212.927 41.03L212.857 41.17L212.577 42.08L211.807 43.34L211.737 43.41V43.69L211.667 44.04L210.617 45.72H210.547L210.407 46.07L210.057 46.49L209.637 47.54L209.567 47.61L209.077 48.52L208.727 48.8L208.517 49.78L207.537 51.67L206.907 52.37L206.207 52.44L205.997 52.79L205.157 53.28L204.107 53.21L203.897 53.28L203.757 53.35H203.547L203.197 53.28L202.917 53V52.65L202.707 51.81L202.427 48.24H202.637L202.497 47.89L202.567 47.26V45.37L202.217 44.39L202.427 43.34L202.147 41.59V40.33L202.217 40.05V39.28L202.287 38.86L202.497 36.41L202.147 35.36L202.287 35.15L202.427 33.4L202.287 32.91L202.427 32.56L202.287 31.51L202.357 26.05L202.497 25.98L202.707 25.07L203.267 24.65L206.837 23.81L207.257 24.3L207.397 25.14L207.327 26.4L207.257 27.1L207.327 27.24L207.117 27.52L206.767 28.78L206.557 29.41L206.417 29.9L206.277 30.18L205.927 33.47L205.717 34.31L205.647 35.85L205.507 36.13L205.437 36.41V36.55L205.367 38.02L205.717 43.41L205.507 44.32L205.647 44.53V45.37L205.717 45.51L205.857 46.98V47.4L205.927 47.61L206.277 47.82H206.697L207.607 47.33L207.887 46.84L208.027 46.63L208.167 45.93L208.937 45.09L209.987 43.41V43.13L210.057 43.06L211.247 41.59L211.667 40.26L212.787 38.3L213.487 37.39L214.537 35.08V35.01L214.747 34.59L215.027 33.75L215.097 33.54L215.447 33.19L215.797 32.77L215.937 32.28L216.427 30.67L217.057 29.27L218.037 26.19L218.947 24.72L220.767 23.81H221.047L221.397 23.67L222.867 23.46L223.007 24.51L222.797 24.86L222.727 25.07L222.797 25.35L223.217 28.01L223.147 28.22L223.077 28.85L222.797 29.62L223.007 32.56L222.797 33.47V34.03L222.727 34.24L222.657 35.36L223.077 36.76L223.637 42.36L224.127 45.79L224.267 46.35L224.477 47.26V48.59L224.757 49.29L225.037 49.78L225.247 50.27L225.457 50.76L226.017 52.16L227.067 54.19L227.417 54.54Z" fill="#1E1E1E"/>
</svg>
