<svg width="356" height="92" viewBox="0 0 356 92" fill="none" xmlns="http://www.w3.org/2000/svg">
<path d="M54.04 55.79L53.97 56.49L53.55 56.56L53.2 56.42L52.85 56.14L52.5 55.51L52.43 55.37L51.73 55.16L51.66 54.81L51.03 54.18L50.05 53.83H49.56L49.07 53.62L49 53.48L48.72 53.41L48.23 52.99L47.74 52.85L47.46 52.64L47.32 52.5L47.18 52.29L46.83 52.01L46.69 51.8L46.48 51.38L46.06 50.26L45.57 49.56L45.43 49L45.22 48.58L44.87 47.81V47.32L44.17 46.13L43.75 44.73L43.68 43.54L43.47 43.12L43.19 40.46L43.05 40.18V39.69L42.84 38.29L41.86 39.13L41.72 39.2L41.65 39.69L41.58 39.9L40.32 42.56L39.69 43.47H39.48V43.54L38.99 44.73L38.15 45.71L37.94 46.41L37.52 46.62L37.24 46.97L36.96 47.39L36.75 47.88L36.12 48.3L36.05 48.44L35.98 48.65V48.79H35.84L35.28 49.28L35.07 49.63L34.86 49.77L33.88 50.54L32.97 50.82L32.27 51.59L31.22 52.29L31.08 52.15L30.94 52.22L29.75 51.94H29.54V51.8H29.4L28.98 51.03L28.7 49.91L28.91 48.51L28.77 47.25L29.12 45.78L29.47 45.43V45.15H29.33L29.54 43.4L29.75 43.19V43.12L29.96 42.84L30.1 42.7L29.82 42.07L29.89 41.93L30.1 41.44L30.73 39.62L30.66 39.27L30.87 39.06L31.78 36.12L31.92 35.63L32.06 35.35L32.2 35.07L32.34 34.93V34.65L32.48 34.37L32.69 33.81L33.18 33.11V32.55L33.39 32.27L33.46 31.78L34.37 29.61L34.51 29.12L34.72 28.84L34.79 28.28L34.93 28.14L35.07 27.86L35.56 26.46L35.42 26.18L35.21 25.97L34.86 26.04L34.23 27.23L34.02 28.07L32.62 29.89L32.34 30.31L32.27 30.66L31.78 31.5L31.71 31.64L31.43 32.06L31.15 32.13L31.29 32.27L29.89 34.3L29.4 35.14H29.19L28.84 35.56L27.51 37.8L27.02 38.99L25.69 40.67V40.74L25.34 41.16L25.2 41.51V41.58L23.94 43.4L23.73 43.26H23.52V43.4H23.66L23.59 43.75L23.38 44.17L23.31 44.38L22.89 44.59L22.68 44.8L22.54 44.94L22.47 45.29L21.07 47.53L21.14 47.67L20.02 48.79L19.88 49.21L19.25 49.77H18.97L18.83 49.91L18.55 50.82L18.27 50.96L18.2 51.17L17.92 51.73L17.43 52.01V52.22L17.29 52.43L17.08 52.78L15.89 54.11H15.75L15.68 54.32L15.4 54.74L15.19 54.6H15.05L14.84 55.3L14.77 55.44H14.49L14.35 55.51L14.14 55.65L14 55.93L13.65 56.14L12.74 56.63H12.6L12.25 56.77H12.18L11.97 56.7L11.9 56.56L11.76 56.21L11.69 55.93L12.04 55.65L12.18 55.23L12.32 54.46L12.6 54.25L12.74 53.83L13.23 53.27L14.49 50.05L14.84 49.63L14.98 49.35L15.33 49.07L15.96 47.25L18.27 43.33L18.2 42.98L19.53 40.39H19.74L19.67 40.11L19.95 39.97L19.88 39.83L20.37 38.71H20.51L22.82 34.37L23.31 33.53L23.45 33.32L23.94 32.27L24.01 31.99L24.15 31.57L24.36 30.59L24.99 30.17L25.13 29.33L25.34 29.05L25.55 28.56L25.69 28.35L26.04 27.72L26.81 26.04L26.67 25.9L26.81 25.69L27.65 23.73L27.51 23.59L28.07 22.4L28.35 22.12L28.21 21.98L29.19 17.99L29.26 17.71V17.57V16.59L29.33 16.31L29.19 15.89L29.4 15.61L28.77 14L28.07 13.37L27.37 13.23L26.18 13.3L25.69 13.86H25.34L25.2 13.93L24.99 14.07L24.22 14.35L24.15 14.49L23.87 14.77L23.52 15.05L23.24 15.12L22.75 15.47L22.68 15.61L22.26 15.96L20.16 17.5L19.81 17.71L19.53 17.85L19.25 17.99L19.11 18.34L18.34 18.62L17.29 19.6L17.22 19.81L16.94 20.09L16.52 20.51L16.31 20.65L14.98 21.84L14.84 21.98L14.7 22.05L14.14 22.54L14.07 22.75L13.93 22.96L12.81 23.73L12.74 23.87L12.6 24.22L12.18 24.57L11.76 25.06L11.41 25.48L11.13 25.83L10.64 26.04L10.29 26.88L10.01 26.95V27.23V27.44L9.66 27.79L8.82 28.21L8.75 28.07L7 30.38L6.23 31.64L5.81 32.76H5.6L5.18 33.32L5.04 33.46L4.83 33.74L4.55 34.79L3.99 35.77L3.92 36.68L3.78 37.1L3.71 37.17L3.43 37.45L3.15 37.94L3.08 38.15L2.73 38.29L2.94 40.39L2.66 42.63L2.38 42.7L2.31 42.56L1.68 42.28L1.54 41.93L1.4 41.72L1.05 40.6L0.98 40.46L0.84 40.32L0.63 40.18L0.07 39.41L0 38.36L0.35 38.29L0.49 38.15L0.14 37.94L0.63 36.75L2.59 33.39L2.94 33.04L3.01 32.76L3.57 32.27L4.41 31.08L4.48 31.01L4.83 30.59L5.04 30.24L6.23 28.28L6.86 27.65L7.07 27.37L7.56 26.88L7.7 26.67L8.26 25.83L11.97 21.91L12.18 21.77L12.25 21.7L12.46 21.49L12.53 21.28L12.74 21.14L13.16 20.79L14.42 19.74L15.19 18.76L16.31 17.99L16.66 17.71L17.01 17.5L17.43 17.08L17.71 16.87L18.06 16.59L20.72 14.56L21 14.49L21.56 14.07L22.4 13.51H22.61L22.96 13.3L23.1 13.23L23.24 13.16V13.02L26.25 11.48L26.32 11.41L26.6 11.34V11.55H26.74L26.67 11.27L26.88 11.13H27.09L27.23 11.06L27.65 10.85L29.61 10.22L30.87 10.36L31.64 10.78L31.71 10.92H31.85V11.13L31.99 11.2H32.2L32.48 11.55L32.76 11.69L32.83 12.04L33.11 12.18L33.32 13.02L33.46 13.51V13.65L33.74 14.77L33.11 17.22L32.9 17.5L32.83 17.57L32.9 18.2L32.83 18.48L32.69 18.69L32.34 18.97L32.41 19.46L31.71 21.28L31.57 22.05L31.5 22.12L31.43 22.26L30.87 23.03L30.45 24.43L29.19 26.39L29.05 27.23L28.35 28.63L27.93 29.12L27.65 29.89L27.44 30.38V30.52L26.95 31.15L26.46 32.34L25.41 34.02L25.27 34.3L25.06 34.51V34.72L22.33 39.9L22.05 40.11L21.91 40.6L21.56 41.09L21.21 41.58L21.14 41.86L18.97 45.78L18.76 46.27V46.41L18.83 46.48L19.11 46.83L19.88 46.27L21.07 44.38L24.08 40.32L24.22 40.04L24.36 39.83L24.43 39.69L27.16 35.63L27.23 35.56L27.44 35.35L28.56 34.02L29.47 32.41L29.61 32.27L29.75 31.92L30.17 31.36L30.38 31.15L30.45 30.94L31.85 28.7L31.99 28.63L32.13 28.56L32.2 28.28L32.41 28.14L35.49 23.94L35.7 23.8L35.91 23.73L36.82 22.61L37.17 22.33L37.38 22.12L38.15 21.77L38.64 21.35L38.85 21.21L39.13 21.07L39.41 20.86L39.69 20.51L40.18 20.44L40.67 20.09L40.81 19.95H41.02L41.16 20.02L41.37 20.16L41.44 20.3V20.37L41.37 21.21L41.02 21.98L40.88 22.68L40.81 23.1L40.67 23.31L39.97 24.78L39.76 25.06L39.69 25.2L39.62 25.41V25.76L39.48 26.18L37.03 31.22V31.36L36.89 31.78L36.68 32.34L36.61 32.55L36.47 32.76L35.77 34.79L35.42 35.35L35.35 35.7L35.07 36.05V36.19V36.26V36.47L35 36.61L34.86 36.89L34.79 37.45L34.51 38.01L34.37 38.29L34.23 38.85L34.3 39.27L33.95 41.16L33.39 42.91L33.25 43.05V43.47L33.18 45.36V45.85L33.04 45.99L33.11 47.74L33.32 48.37L33.67 48.79H33.81L34.23 48.86L34.44 48.58L34.65 48.37V48.23L36.19 46.41L36.82 45.85L36.96 45.36L37.38 44.87L37.73 44.38L38.15 44.24L38.01 44.03L38.15 43.54L38.36 42.7L39.2 42.14L38.99 42V41.79L39.48 41.23L40.46 39.27L41.09 36.89L41.3 36.61L41.65 35.14L42.28 34.23L42.77 33.11L42.98 33.04V32.9L43.12 32.83L43.19 32.9L43.33 32.83L44.24 32.41L45.85 31.15L46.76 30.94H46.9L47.46 31.43V31.57L47.53 31.85V36.68L47.81 37.8L47.95 39.9L48.37 42.07L48.44 42.14V42.28L48.37 42.56L48.44 42.7L48.58 43.19L48.79 43.61L49.42 46.69L49.84 47.39L50.33 49.21L51.03 50.68L51.73 51.66V52.15H51.94L52.01 52.85L52.22 53.06L52.64 53.41L52.71 53.55L52.99 53.76L54.04 55.79ZM91.3817 53.69V54.04L91.0317 54.25L90.6817 54.53L89.0017 55.72L87.6017 56.28L87.3217 56.35L87.2517 56.14H86.6217L85.6417 55.37L84.5217 53.69L83.9617 53.06L83.6117 51.94L82.7717 50.47L82.5617 50.19L82.4917 49.84L82.1417 49.56L82.0717 49.28L81.8617 48.72L81.7917 47.95L81.2317 46.83L81.1617 45.71L80.9517 45.43L80.7417 44.8L80.6717 44.17L80.2517 43.61H80.0417H79.9017L79.6917 43.89V44.1H79.5517V44.24L79.4117 44.59L77.8717 46.97L76.4717 48.44L76.2617 48.93L74.6517 50.33L74.0917 51.1L73.3217 51.52L72.8317 52.08L71.5717 52.85L70.9417 53.06L70.5917 53.34L69.8917 53.62L69.6817 53.9L69.2617 53.97L68.0717 54.88L67.3017 55.02L66.1817 55.65L63.8717 56.42L63.1717 56.35L62.7517 56.7L62.0517 56.49L60.5117 55.58L59.9517 55.09H59.6717L59.3217 55.3L58.8317 55.72L58.3417 55.65L58.0617 55.79L57.1517 55.44L55.6817 54.67L55.1917 53.62L55.3317 51.52L55.5417 51.24V51.03L56.5917 49.56L56.8017 49.35L57.1517 48.86L57.7117 47.74L59.9517 45.71L60.2317 45.57L60.3017 45.43L60.7917 45.15L61.1417 44.66L61.8417 44.17L62.6117 43.4L63.8017 42.7L64.0817 42.49L64.2217 42.42L64.2917 42.21L64.5017 42.14L64.9917 41.72L65.1317 41.65L65.2017 41.37L65.4817 40.95L66.3917 40.46H66.7417L67.7917 39.76L68.5617 39.55L69.0517 39.2L69.4717 39.06V38.92L70.8017 38.43L70.8717 38.36L71.2917 38.15L72.0617 37.8L73.6717 37.38L74.1617 37.17L76.4017 37.24L77.5917 37.94L78.2217 38.43L78.5017 38.92H78.7117L78.2217 38.08L78.0817 36.82L77.5917 36.05L77.0317 34.44L76.5417 33.53L75.4917 32.62L74.0217 32.48L73.4617 32.83L70.9417 35.7L69.9617 36.54L69.6117 36.82L69.3317 36.89L69.1217 36.82L68.9117 36.61V36.47L69.5417 35.98V35.84L69.6117 35.63L69.8217 35.35L70.5217 34.51L71.4317 33.67L72.3417 32.55L75.4217 29.75L76.1217 29.68L77.1017 29.05L77.3117 28.91H77.5217L77.7317 28.98L77.9417 29.12L78.7117 29.19L80.0417 30.52L80.6017 31.43L81.3717 33.32L81.6517 33.67L82.4917 36.05V36.33L82.6317 36.75L82.7717 37.87L83.0517 38.5V38.78L83.1917 39.34L83.2617 39.83L83.4017 40.39L83.9617 42.21L84.2417 42.7L84.3117 43.61L84.8717 44.59L84.9417 45.85L85.2917 46.55L85.7817 48.3L86.9717 50.82L87.3917 51.31L87.5317 51.59L87.9517 52.08L88.0217 52.71L89.6317 53.97L90.5417 53.83L90.6817 53.76L90.8217 53.69H91.1717H91.3817ZM77.8017 39.13L77.1717 38.64L76.6817 38.22L76.1917 38.08L74.6517 37.94L72.9717 38.36L72.4117 38.57L71.7117 38.85L71.4317 39.06L71.2217 39.13L68.6317 40.39L68.3517 40.6L68.2117 40.81L67.7917 40.95L67.4417 41.09L67.3017 41.3L66.8117 41.65L66.7417 41.79L66.6017 41.86L66.4617 42L66.1117 42.28L64.7817 43.82L64.6417 44.17L64.5017 44.66L64.1517 44.94L64.0817 45.22L63.5917 46.27L63.3817 46.41L63.2417 46.83L62.8917 47.39L62.9617 48.23L62.5417 48.93L62.4017 49.91L62.5417 51.31L62.9617 52.22L63.3817 52.43L63.7317 53.2L64.5717 53.76L65.5517 53.9L66.9517 53.76L68.7017 53.13L68.9817 52.85L69.5417 52.71L70.9417 51.94L72.3417 50.61L72.5517 50.54L72.6917 50.4L74.9317 47.67L75.0717 47.46L75.4217 47.18L75.6317 46.83L76.1917 45.99L76.7517 44.59L77.0317 44.1L77.2417 43.75V43.61L77.3817 43.33L77.7317 42.35V42L77.8017 41.79L77.9417 41.58V39.9L77.8017 39.48V39.13ZM60.9317 46.34L60.0217 47.32L59.4617 47.67L59.2517 47.95L59.1117 48.3L58.8317 48.86L58.6217 49.07V49.7L58.5517 49.91L58.4117 50.19L58.0617 50.54L57.9217 51.24L58.0617 51.59L58.2717 52.22L58.6917 52.64L58.6217 52.43H59.1817L59.4617 52.36L59.7417 52.01L59.8117 51.66V51.38L59.8817 51.17L60.3717 49.91L60.5117 49.42L60.7917 49.07V49L60.9317 48.79L61.0017 48.51L61.2117 47.88L62.2617 46.34L62.5417 45.78L62.4017 45.64L62.1917 45.5L61.8417 45.64L61.6317 45.85V45.92L60.9317 46.34ZM106.388 35.91L104.848 36.19L101.908 36.26L100.788 36.19L100.578 35.98L100.018 36.05L100.228 36.19L100.088 36.33L99.878 36.26L99.668 38.15L99.808 38.57L99.528 43.4L99.668 43.54L99.738 43.61L99.668 46.27L99.598 46.41L99.458 46.62V46.76L99.668 47.04L99.738 47.46L99.598 50.61L99.738 50.89L99.668 51.03L99.598 51.31L99.248 52.71L99.528 53.27V54.25L99.668 54.32L99.738 54.6V54.74L99.808 55.23V55.44H99.668L99.808 55.58L99.738 55.86L98.478 56L97.218 56.63L96.798 56.84L96.518 56.91L96.238 56.84L96.098 56.56V55.93V55.51L96.308 55.16V54.11L96.378 53.76V53.27V52.5L96.448 52.29V52.08L96.378 51.87L96.168 51.31L96.238 50.12L96.378 49.77V49.56L96.308 49.28L96.238 49.07L95.818 47.46L95.888 46.06L95.748 45.92L95.958 45.85V44.94L96.098 42.91L96.518 42.63L96.308 41.65L96.238 39.34L96.308 36.96L94.908 36.82L94.488 36.61L93.788 36.68L92.178 36.89L91.408 36.61L90.918 35.84L90.148 35.63L89.798 35.35L90.148 35.07L90.568 35.14L93.298 35.07L94.208 34.93L95.328 34.86L96.098 34.72L96.168 34.51L96.378 34.44L96.728 33.81L96.448 33.04L96.378 32.62V32.41L96.518 32.06L96.378 31.43L96.518 31.36L96.448 31.29L96.238 30.87L96.308 30.52L95.958 26.18V25.97L95.818 25.48L96.308 24.64L96.168 24.29L95.958 24.08L95.818 23.66V21.49L95.678 21.42L95.538 20.86L95.328 20.58L95.608 19.74L96.588 19.46L97.148 18.9L97.288 17.78L97.078 16.94L97.428 15.12L97.358 14.98V14.28L97.568 11.69L97.358 10.85V10.57L97.218 10.22L96.658 10.08L96.378 9.94L96.098 9.87L95.608 10.01L95.258 9.24L95.188 8.26L95.468 7.56L95.328 6.3L95.398 6.09L95.468 5.88L95.608 5.74L95.678 5.11L95.468 4.9V4.55H95.328L96.028 3.5L96.938 3.08L97.358 2.66L97.848 2.17L98.828 0.769998L99.318 0.839997L99.458 1.4L99.528 2.52L99.668 2.87L99.598 3.71L99.808 4.41L99.878 4.83L99.808 5.04L99.738 5.25L99.878 5.67L99.948 5.88L99.878 6.02L99.668 6.37L99.948 7L99.668 8.54L99.948 9.52L100.018 10.85L99.948 11.2L100.158 11.62L99.948 15.82L100.228 16.1L100.018 16.8L100.158 16.87L99.948 17.01H100.158L99.808 19.32L100.018 21L99.808 21.56L99.948 22.26L99.808 23.38L99.948 24.36L99.668 26.18L99.738 26.53L99.878 27.02L99.948 27.09L100.018 28.14L99.668 29.4V33.53L99.388 33.81L99.248 34.09L99.598 34.37L99.808 34.65L100.718 34.79L101.208 34.65L101.628 34.86L102.818 34.58L104.568 34.72L105.618 35.28L106.388 35.91ZM130.545 44.03L130.265 44.73L130.125 45.01L129.845 45.64L128.865 46.69L128.795 46.76L128.235 47.39L124.665 50.54L124.105 50.89L123.895 51.17L123.195 51.73L123.055 51.94L122.845 52.08L122.705 52.15L122.495 52.22L121.375 53.2L118.015 55.16L116.965 55.51L116.475 55.65L116.265 55.72L115.145 56.07L114.865 56.14L113.955 56.49L111.925 56.7L110.245 56.77L108.915 56.28L108.215 55.44L107.725 55.09L106.605 53.55L106.115 51.03L106.535 49.35V48.65L107.585 45.01L110.035 40.25L109.405 39.13L109.475 37.8L110.175 36.54L111.155 35.21L112.345 33.88L114.585 31.99L115.775 31.15L116.125 30.87L116.335 30.73L118.155 29.4L118.435 29.19L118.925 28.91L121.095 27.79L124.105 26.67L125.435 26.53L126.485 26.74L126.835 26.88L127.745 27.51L127.955 29.19L127.675 30.31L126.275 33.25L125.785 33.95L125.505 34.23L125.085 34.65L122.775 37.1L121.865 37.52L119.835 38.99L115.845 40.74L114.235 41.16L114.025 41.23H113.815H113.535L112.695 41.09L112.345 41.02L112.205 40.46L113.255 39.9L114.095 39.06L114.865 38.85L115.425 38.36L118.505 37.8L119.415 37.52L122.425 35.84L123.545 34.58L124.245 32.97L124.385 32.06L124.315 30.52L123.195 29.68H121.795L121.165 29.82L120.255 30.45L119.975 30.66L119.625 31.08L119.275 31.15L118.295 32.2L117.385 33.18L117.035 33.6L116.475 34.16L115.635 35L114.585 36.47L114.375 36.75L114.165 36.89L113.675 37.45L112.835 38.43L112.555 39.06L111.715 39.9L110.105 43.47L109.265 46.27V46.97L109.125 47.74L108.985 50.4L109.405 51.52L110.035 52.36L110.735 53.06L111.505 53.55L111.715 53.69L112.135 53.83L112.905 54.04L115.845 54.11L118.505 53.27L121.305 51.8L122.355 50.82L122.635 50.61L122.845 50.47L125.925 48.16H126.135V48.02L126.275 47.67L127.675 46.48L130.055 44.03H130.545ZM115.845 32.97L114.865 33.53L113.115 35.07L112.975 35.77L113.045 36.05L113.465 36.12L114.305 35.14L114.375 35.07L114.725 34.72L115.635 33.74L115.845 32.97ZM152.161 31.43V31.78L151.461 32.27L151.041 32.62L150.551 32.69L150.131 32.97L149.991 33.04L149.501 32.9L148.871 31.57L148.241 30.8L148.101 30.59L147.961 30.52L147.821 30.45L147.681 30.24H147.401L147.261 30.17L146.771 30.24L146.141 30.45L145.861 30.66L143.271 31.85L142.711 32.06L142.571 32.2L141.871 32.69L141.171 34.23L140.681 36.26L140.401 36.96L140.191 37.45L140.051 37.94V38.78L139.491 40.53L139.351 41.79L139.071 42.98L139.001 43.12L138.861 43.26V43.89L138.581 44.31V44.45L138.651 44.66L138.721 45.22L138.651 45.71L138.581 45.85L138.651 46.34L138.441 47.18L138.161 50.05L138.371 50.47L138.161 51.17L138.301 54.53L138.441 54.67L138.371 55.23L137.881 55.65L136.901 56.07L135.711 56.14L135.431 56.35L135.221 56.07L135.151 55.86L135.221 54.74L135.081 53.76L135.291 51.52H135.151L135.221 51.24V51.1V51.03L135.291 50.75V48.79L135.151 48.09L135.291 47.32V46.62L135.361 46.48L135.291 46.34V46.06L135.431 45.85L135.361 45.71H135.221L135.431 45.64L135.291 44.94L135.221 44.45V43.26L135.151 43.05L135.291 42.84L135.081 42.07V41.79V41.65V41.3L135.151 40.67H135.011L134.661 40.39L134.521 40.32L134.241 40.39L134.101 40.53L133.751 40.88L133.191 41.23L132.981 41.79L132.771 41.86L131.371 44.17L130.811 45.5L130.461 47.53L130.671 48.58L130.531 48.65L130.601 48.79L130.461 48.93L130.041 48.44L129.831 48.23L129.621 47.88L129.691 47.6L129.621 47.46V47.25L129.691 47.04L129.901 46.55L129.831 46.06L129.901 45.92V45.71L130.041 45.29L130.391 44.52L130.601 43.61L130.671 43.19L130.811 43.12L132.281 40.67L132.491 39.9L132.631 39.83L132.771 39.69L132.911 39.55L132.981 39.41L133.051 39.34L133.121 38.99L133.261 38.64L133.541 38.43L133.891 37.94L134.241 37.73L134.311 37.66L134.661 37.1L134.591 36.33L134.521 36.12L134.381 35.7V34.93L135.501 34.09L135.781 33.88L136.061 33.6H136.341L136.481 33.74L136.551 33.95L137.321 34.3L137.741 34.23L139.211 32.9L139.491 32.48L140.121 31.99L140.331 31.85L140.401 31.71L140.541 31.36L141.031 30.8V30.24L141.311 30.03H141.521L142.501 29.54L143.061 29.61L143.761 29.33L143.901 29.26H143.971L144.601 29.19L146.841 28.28L147.331 28.21L147.891 28.07L150.341 26.95L151.041 26.81L151.601 27.23L151.671 27.51L151.601 28.56L151.741 30.1L151.811 30.45V30.66L152.161 31.43ZM139.281 36.47L139.141 36.33V36.19L138.721 35.98H137.881L137.741 36.33L137.461 36.54L137.881 38.36H138.231L138.791 37.66L139.071 37.59L139.211 37.45L139.281 37.24L139.351 37.03L139.281 36.47ZM180.249 57.54H180.039L180.179 57.61L179.829 57.82L179.409 57.89L178.919 57.4L178.289 57.12L177.659 56.28L176.889 55.79L176.049 55.44L175.629 54.81L174.019 53.76L173.879 53.41L173.739 53.34L173.949 53.2L173.669 51.87L173.179 51.24L173.109 50.12V49.63L173.179 49.21L173.109 48.72L172.479 46.41L172.059 44.38L172.199 43.96L172.059 43.19L171.919 41.93L172.129 34.3L171.989 32.9L171.779 32.2L171.079 33.11L169.399 37.03L169.189 37.38L168.979 37.73L168.489 38.57L168.279 39.06L168.489 39.27L165.759 44.03L165.689 44.17L165.409 45.08L164.639 46.34L164.569 46.41V46.69L164.499 47.04L163.449 48.72H163.379L163.239 49.07L162.889 49.49L162.469 50.54L162.399 50.61L161.909 51.52L161.559 51.8L161.349 52.78L160.369 54.67L159.739 55.37L159.039 55.44L158.829 55.79L157.989 56.28L156.939 56.21L156.729 56.28L156.589 56.35H156.379L156.029 56.28L155.749 56V55.65L155.539 54.81L155.259 51.24H155.469L155.329 50.89L155.399 50.26V48.37L155.049 47.39L155.259 46.34L154.979 44.59V43.33L155.049 43.05V42.28L155.119 41.86L155.329 39.41L154.979 38.36L155.119 38.15L155.259 36.4L155.119 35.91L155.259 35.56L155.119 34.51L155.189 29.05L155.329 28.98L155.539 28.07L156.099 27.65L159.669 26.81L160.089 27.3L160.229 28.14L160.159 29.4L160.089 30.1L160.159 30.24L159.949 30.52L159.599 31.78L159.389 32.41L159.249 32.9L159.109 33.18L158.759 36.47L158.549 37.31L158.479 38.85L158.339 39.13L158.269 39.41V39.55L158.199 41.02L158.549 46.41L158.339 47.32L158.479 47.53V48.37L158.549 48.51L158.689 49.98V50.4L158.759 50.61L159.109 50.82H159.529L160.439 50.33L160.719 49.84L160.859 49.63L160.999 48.93L161.769 48.09L162.819 46.41V46.13L162.889 46.06L164.079 44.59L164.499 43.26L165.619 41.3L166.319 40.39L167.369 38.08V38.01L167.579 37.59L167.859 36.75L167.929 36.54L168.279 36.19L168.629 35.77L168.769 35.28L169.259 33.67L169.889 32.27L170.869 29.19L171.779 27.72L173.599 26.81H173.879L174.229 26.67L175.699 26.46L175.839 27.51L175.629 27.86L175.559 28.07L175.629 28.35L176.049 31.01L175.979 31.22L175.909 31.85L175.629 32.62L175.839 35.56L175.629 36.47V37.03L175.559 37.24L175.489 38.36L175.909 39.76L176.469 45.36L176.959 48.79L177.099 49.35L177.309 50.26V51.59L177.589 52.29L177.869 52.78L178.079 53.27L178.289 53.76L178.849 55.16L179.899 57.19L180.249 57.54ZM190.064 27.16L189.784 27.3L189.714 27.16H189.574L189.084 28.14H189.014L188.944 28.35V28.56L189.154 29.26L189.084 29.61L188.804 30.45V30.8L188.734 31.43L188.454 33.88L188.664 35.63L188.524 36.47L188.664 38.22V39.2H188.524H188.384V39.06L187.824 38.22L188.034 37.17L187.894 36.89V36.82L187.684 35.77V35.56V35.28L187.894 34.72L187.824 33.74L188.174 27.02L188.104 25.62L188.034 25.27L187.964 24.99L187.824 24.85L187.544 24.78H187.264L187.054 24.85L186.844 25.06L186.144 25.41L185.514 24.99L185.094 24.36L184.814 24.08L184.674 24.01V23.73L184.044 22.26L184.464 20.93L187.124 19.46L188.034 19.25L189.084 20.37L189.224 21.07L189.994 22.75L189.854 23.24L189.224 23.8L188.944 24.29V25.2L189.294 25.9L189.364 26.46L190.064 27.16ZM188.944 50.68L188.524 52.92L188.384 55.09L187.054 55.65L185.094 56.07H184.884L184.744 56L184.674 55.65L184.324 53.62L184.184 52.92V52.78V52.36L184.114 51.45L184.184 51.24H184.114L183.974 49.42V49.21L184.044 49.07L183.904 48.93L184.044 47.67L183.974 47.53L183.834 47.04L183.904 45.85L183.554 41.37L183.764 40.25L183.624 39.69V39.48L183.554 39.34L183.694 37.17L183.764 36.75V36.33L183.554 34.79L183.764 34.02L183.834 30.17L183.764 29.89L183.834 29.47L184.254 29.05L185.444 28.49L185.584 28.42H185.724L186.074 28.49L187.054 28.35L187.404 30.45L187.194 33.46L187.264 34.02L187.054 35.21L186.984 36.68V37.31L186.914 37.66L187.054 39.55L186.704 41.09V42.84L187.054 43.12H187.194L187.614 42.91H188.104L188.454 42.49L188.524 42L188.734 41.86L188.944 42L189.154 42.42L188.944 43.89L189.014 45.99L188.734 47.88L188.874 48.3L188.804 49.91L188.594 50.26L188.664 50.47H188.874L188.944 50.68ZM208.312 35.91L206.772 36.19L203.832 36.26L202.712 36.19L202.502 35.98L201.942 36.05L202.152 36.19L202.012 36.33L201.802 36.26L201.592 38.15L201.732 38.57L201.452 43.4L201.592 43.54L201.662 43.61L201.592 46.27L201.522 46.41L201.382 46.62V46.76L201.592 47.04L201.662 47.46L201.522 50.61L201.662 50.89L201.592 51.03L201.522 51.31L201.172 52.71L201.452 53.27V54.25L201.592 54.32L201.662 54.6V54.74L201.732 55.23V55.44H201.592L201.732 55.58L201.662 55.86L200.402 56L199.142 56.63L198.722 56.84L198.442 56.91L198.162 56.84L198.022 56.56V55.93V55.51L198.232 55.16V54.11L198.302 53.76V53.27V52.5L198.372 52.29V52.08L198.302 51.87L198.092 51.31L198.162 50.12L198.302 49.77V49.56L198.232 49.28L198.162 49.07L197.742 47.46L197.812 46.06L197.672 45.92L197.882 45.85V44.94L198.022 42.91L198.442 42.63L198.232 41.65L198.162 39.34L198.232 36.96L196.832 36.82L196.412 36.61L195.712 36.68L194.102 36.89L193.332 36.61L192.842 35.84L192.072 35.63L191.722 35.35L192.072 35.07L192.492 35.14L195.222 35.07L196.132 34.93L197.252 34.86L198.022 34.72L198.092 34.51L198.302 34.44L198.652 33.81L198.372 33.04L198.302 32.62V32.41L198.442 32.06L198.302 31.43L198.442 31.36L198.372 31.29L198.162 30.87L198.232 30.52L197.882 26.18V25.97L197.742 25.48L198.232 24.64L198.092 24.29L197.882 24.08L197.742 23.66V21.49L197.602 21.42L197.462 20.86L197.252 20.58L197.532 19.74L198.512 19.46L199.072 18.9L199.212 17.78L199.002 16.94L199.352 15.12L199.282 14.98V14.28L199.492 11.69L199.282 10.85V10.57L199.142 10.22L198.582 10.08L198.302 9.94L198.022 9.87L197.532 10.01L197.182 9.24L197.112 8.26L197.392 7.56L197.252 6.3L197.322 6.09L197.392 5.88L197.532 5.74L197.602 5.11L197.392 4.9V4.55H197.252L197.952 3.5L198.862 3.08L199.282 2.66L199.772 2.17L200.752 0.769998L201.242 0.839997L201.382 1.4L201.452 2.52L201.592 2.87L201.522 3.71L201.732 4.41L201.802 4.83L201.732 5.04L201.662 5.25L201.802 5.67L201.872 5.88L201.802 6.02L201.592 6.37L201.872 7L201.592 8.54L201.872 9.52L201.942 10.85L201.872 11.2L202.082 11.62L201.872 15.82L202.152 16.1L201.942 16.8L202.082 16.87L201.872 17.01H202.082L201.732 19.32L201.942 21L201.732 21.56L201.872 22.26L201.732 23.38L201.872 24.36L201.592 26.18L201.662 26.53L201.802 27.02L201.872 27.09L201.942 28.14L201.592 29.4V33.53L201.312 33.81L201.172 34.09L201.522 34.37L201.732 34.65L202.642 34.79L203.132 34.65L203.552 34.86L204.742 34.58L206.492 34.72L207.542 35.28L208.312 35.91ZM231.419 54.6L231.139 56.56L230.929 57.33L230.999 57.47L231.139 57.89L230.859 60.48L230.509 62.37L230.439 62.79L230.369 63.21L230.299 63.56V65.38L229.809 67.9V68.18L229.669 68.74L229.599 69.3L229.389 69.65L229.039 70.35L229.319 71.26L229.109 72.52V73.01L229.039 73.22L228.899 73.64L228.759 76.86L228.339 78.19L228.269 78.26L227.919 79.1L227.499 79.94L227.149 80.29L227.009 80.57L226.659 81.76L225.539 83.58L225.329 84L225.119 84.14L224.979 84.28L224.629 84.63L223.999 85.05L223.019 85.96L222.529 86.8L221.409 87.43L220.639 88.2L220.429 88.27L220.219 88.2L218.049 89.46L215.599 90.16L214.409 90.93L214.269 90.86V90.72H213.709L212.939 91H212.869L212.659 90.79H212.309L211.539 91.14L210.839 91L208.949 91.07L205.169 89.53L204.539 88.83L204.259 88.48L204.189 88.41L204.049 88.2L203.769 87.57V87.29L202.999 85.89V85.61L202.929 85.12V85.05L202.999 84.77L203.279 84.42L203.699 84L203.839 83.65L203.979 83.09V82.88L204.049 82.74L204.329 82.32L204.679 81.2L205.099 81.06V80.71L205.239 80.29L205.869 79.73L206.009 79.59H206.289L206.639 79.66V79.94H206.779L206.499 81.13L206.429 82.81L206.779 83.72L206.639 84.21L206.709 84.49L206.849 84.63L206.919 84.98L206.989 85.33L207.339 86.1L207.619 86.45L208.039 86.87L207.969 86.73L208.459 87.43L208.599 87.85L209.089 87.99L209.159 88.2L210.279 88.83L211.749 89.25L213.989 89.18L214.899 88.97H215.039L215.459 88.9L217.279 88.13L217.489 88.06L217.699 87.85L218.119 87.71L218.469 87.43L219.659 86.66V86.87L219.799 86.8L220.359 86.1L221.199 85.61L222.739 84L223.999 81.62L224.279 80.78L224.349 80.57L224.419 80.36L224.629 79.8L224.839 79.38L225.399 78.26V77.98L225.469 77.56L225.679 76.65L225.609 75.81L225.889 74.9V74.62L225.959 74.48L225.889 74.27V74.06L226.099 73.15L226.169 71.19L226.309 71.12L226.449 70.7V70.49L226.729 70.21L226.589 69.3L226.729 67.48L226.519 66.36L226.799 64.4L226.939 61.74L227.079 61.25L227.009 60.83L226.869 59.64L227.079 58.73L227.289 58.31L227.359 57.89V57.75L226.939 55.79L227.219 53.76V50.54V49.98L227.009 50.05L227.079 49.21H226.939L226.869 47.04V46.97L226.729 46.62L226.799 46.34L226.869 45.57L226.589 43.19L226.729 43.12L226.869 42.84L226.379 42.56L226.099 41.37L226.029 40.6V40.46L225.959 40.32H225.889L225.959 39.9L225.609 39.69L224.979 40.39L224.279 42.07L223.999 42.7L223.789 42.91L223.579 44.03L222.879 44.87L221.619 47.18L220.989 47.88L221.199 47.95L220.919 48.37L219.659 50.12L218.959 51.38L218.749 51.66L218.399 51.87L218.259 51.94L218.189 52.01L217.559 52.64L217.489 52.85L217.209 53.06H217.139L216.649 53.69L214.339 55.09L214.059 55.3H213.849L211.819 56.28L211.119 53.34L211.259 51.45V51.24L211.119 51.03L211.049 50.75L210.769 49.07V47.18V47.04L210.699 46.83L210.629 46.69L210.699 45.71L210.489 45.01L210.419 43.54L210.629 42.56V41.79L210.419 41.3V41.16L210.349 41.02L210.279 40.67V40.32L210.349 39.97L210.419 39.83L210.629 35.07L210.909 34.16L211.049 33.39L210.979 32.83V32.48L211.189 31.36L211.119 31.15L211.189 31.01V30.66V29.19L211.119 28.91L211.259 28.7L211.469 28.28L211.679 27.65L212.519 27.51L213.569 26.88H214.269L214.339 29.19L214.129 29.4L214.059 29.61L214.129 29.82V29.96L214.339 30.17L214.199 30.94L214.059 31.15L213.989 31.5L213.919 31.85L213.989 33.25L214.339 34.37L214.129 38.01L214.339 38.85L214.409 39.13L214.339 39.48L214.199 39.83L214.269 40.53L214.199 41.09L214.269 41.23L214.199 42.42L214.409 42.63V43.05L214.619 43.47L214.549 44.38L214.479 45.57L214.619 46.62V48.3L214.549 48.58L214.689 48.79L214.549 49L214.829 49.56L214.969 50.61H215.109V51.17L215.179 51.38L215.389 51.59L215.599 51.66L215.739 51.59L216.159 51.38L216.579 51.03L216.789 50.47L217.419 49.42L218.189 48.72L218.469 48.02L218.679 47.88H218.889L219.099 47.53L218.889 47.32L219.029 46.34L219.099 46.2L219.309 45.64L221.409 41.44V41.37L221.549 41.16L221.689 41.02L221.619 40.81L223.369 36.4L223.439 35.28L223.789 34.79L224.139 33.6L224.209 33.53L224.349 33.18L224.769 32.55L226.449 31.92L227.079 31.15L228.059 30.94L228.269 30.8L228.549 30.66L228.969 30.59L229.389 30.66L229.459 31.64L229.529 31.78L229.879 32.41L229.809 32.76V32.97L229.879 33.6L230.019 33.88L230.089 34.65L230.439 35.42L230.369 36.4L230.859 38.08L231.559 44.45L231.419 45.01L231.559 45.29L231.349 47.18L231.559 49L231.489 50.82L231.349 51.73L231.419 51.94L231.559 52.64L231.419 54.6ZM281.04 17.29L280.9 18.62H280.97L281.04 18.76L280.97 19.04L280.83 19.46L280.76 19.95L280.55 20.3L280.27 21.56L278.8 23.24L278.45 23.73L278.38 24.01L277.47 24.85L276.98 25.13L276.84 25.2L276.7 25.27L275.16 26.18L274.6 26.11L274.04 26.67L273.83 26.81L273.34 27.23L273.13 27.3L272.92 27.37L272.64 27.3V27.16L272.43 27.3L270.61 27.65L270.4 27.79L270.12 27.86H269.91L269.07 28.07L268.93 28.14L268.79 28.21L268.72 28.35L266.83 28.49L265.57 29.05L264.1 28.91L263.68 28.77H263.19L262.84 28.63H262.7L262.35 28.7L262.14 28.98V29.68L262 29.82V30.03V30.24L261.86 30.38L261.79 31.08L261.51 31.5V32.48L261.37 32.9L261.3 34.16L261.02 35.35L261.09 36.05L260.74 36.96V37.59L260.6 38.15L260.39 38.5L260.32 39.27L260.25 40.25L259.9 41.3L259.83 41.58L259.97 42.21L259.34 44.45L258.92 50.19L258.71 55.02L258.78 55.65L258.71 55.79L258.29 56.14L257.94 56.21L257.31 56.28V56.49L255.84 57.26H255.42L255.28 57.12L255.14 56.56L255.07 54.39L254.93 53.41L255.07 52.57L254.65 50.47L254.93 49.7L254.86 49.49L254.72 49.07L254.51 48.44L254.44 47.81L254.09 45.85L254.16 45.01L254.09 44.73V44.66V44.52L254.16 44.24V44.1V43.96L253.95 43.61L253.88 41.79L254.02 41.65V41.44L253.74 40.53V40.39L253.81 40.25L253.95 40.04L254.3 39.27L253.67 38.5L253.74 37.59L253.81 37.38V37.17L253.74 36.54L253.88 36.19L253.81 35.98L253.6 35.7L253.46 35.63L253.53 34.72L253.6 34.44L253.53 34.3L253.32 34.02L253.18 32.06H253.32V31.57L253.04 30.73L253.25 29.47L253.18 28.7L252.48 26.67L252.69 26.46L253.74 26.95L254.51 26.67L254.72 26.25L254.86 25.13L255 24.57V24.36H254.79L254.65 24.29L254.16 23.59L253.74 22.68L252.62 22.33L251.99 22.12L251.85 21.98L251.29 21.7L250.52 20.51L250.31 19.67L250.45 19.46V19.32V19.18L250.38 19.04L250.24 18.83V17.78L250.52 17.01L250.73 16.59L250.87 16.38L253.04 13.79L254.51 12.88H254.86L255.49 12.32L256.54 11.9L257.45 11.27L261.16 9.73L262.07 9.59L262.49 9.52L262.98 9.24H263.12V9.17L265.71 8.54L265.64 8.68L265.92 8.75H266.06L266.41 8.47L267.25 8.19H267.53L267.81 8.05L272.43 8.26L272.5 8.12H272.71L273.83 8.4L277.05 10.29L277.89 11.48L278.17 11.55L278.38 11.76L278.59 11.9L279.43 12.6L279.71 13.09L279.99 13.93L280.06 14L279.71 14.42V14.56L279.92 14.77L280.41 14.98L280.69 15.19L280.83 15.4L280.9 15.54L280.97 15.75L280.9 16.8L281.04 17.29ZM277.54 17.01L277.05 16.38V15.89L276.91 15.68V15.33L276.49 14.56L276.21 14.21L275.93 13.65L275.65 13.44L275.37 13.09L274.88 12.6L274.74 12.53V12.46L274.6 12.32L274.46 12.25L274.25 11.97L273.69 11.62L273.55 11.48L273.2 11.27L271.8 10.5L270.61 10.08H270.26L269.63 9.87L269.35 10.08L267.6 9.8L267.39 9.94L266.13 9.87V9.94L265.5 10.15H265.29L264.66 10.08V10.22H264.31L263.82 10.5L262.63 10.85L262.07 10.78L261.93 10.92L260.67 11.55L259.9 11.62L257.31 12.74L256.75 13.23L255.98 13.72L255.56 14.14L255.07 14.7L254.58 14.98L254.37 15.12H254.58L254.3 16.24L254.44 16.45L254.58 16.59V16.8L255 17.43L256.54 18.69L256.82 18.83L256.89 18.9L258.43 19.74L258.64 20.09V20.23L257.94 20.86L257.17 21.14L256.82 21.49L256.68 21.63L256.05 21.98L255.42 22.4L255.63 23.17L255.7 23.38L255.49 24.43L255.42 24.64L255.35 25.13V26.46L255.56 27.3L255.63 28.7L255.35 29.4H255.49V29.61V29.82L255.63 30.45L255.84 31.01L255.91 31.57L255.98 31.78L255.77 32.69L256.05 33.32V34.16L256.47 35.14L256.33 35.98L256.47 36.47L256.68 38.29L256.96 39.48L257.17 39.9L257.8 39.83L257.87 39.41L258.01 39.27L258.29 36.12L258.64 35.21L258.99 32.83L259.2 32.2V31.92L259.13 31.57V31.43L258.99 31.29L259.06 30.52L259.34 29.82V29.61L259.2 29.12L259.13 28.98V27.93L258.22 28.14L257.73 27.79L257.66 27.44L257.73 27.23L258.08 26.88L258.43 26.81L258.99 27.02L259.34 26.81L259.41 26.6L259.34 26.32L259.13 25.76L259.2 24.99L258.99 24.85L258.85 21.63L259.83 21.28L260.46 20.93L261.16 20.58L261.44 20.65L262.21 21.07V21.35L262.28 21.56L262.63 24.5L262.35 25.34L262.56 27.09L263.47 27.3L266.13 27.37L266.34 27.23L266.83 27.16L267.39 27.09L269.91 26.6L270.33 26.53L270.68 26.39L271.24 26.18H271.87L271.94 25.97H272.15L272.5 25.76L272.92 25.62L274.18 24.78L274.81 24.57V24.36L274.88 24.29L275.3 24.01L276.21 23.24L276.28 23.1L276.35 22.54L276.56 22.4L276.77 21.98L277.05 21.84L276.91 21.42L277.54 20.16L277.47 19.81L277.54 19.46L277.61 18.76L277.54 18.13L277.4 17.78L277.47 17.5L277.54 17.01ZM293.189 60.83V61.18L290.809 60.41L290.459 60.13L289.689 59.99L289.409 59.71L289.339 59.57L288.919 58.94L288.639 58.8L288.499 58.59L288.219 58.17L287.589 57.54L287.519 57.26L285.559 56L285.209 55.58L284.789 54.25L284.999 53.27L284.859 53.2L284.929 52.78L284.859 52.71L284.719 50.19L284.999 49.07L285.069 47.25V46.97L285.209 46.76L285.419 45.01V42.28H285.279L285.209 40.53L285.489 38.29L285.279 37.87L285.209 31.43L284.999 30.66L285.279 29.12L285.419 25.13V24.92L285.559 24.29V19.25L285.699 18.41L285.489 17.08L285.419 14.28L285.349 14.07L285.209 13.79L285.069 13.51H284.929L284.999 11.06V10.78L285.209 9.94L284.719 8.96V8.05L284.649 7.91L284.579 7.35V6.3L284.509 5.74L284.579 5.53L284.719 5.25L284.859 5.04L285.769 4.13L286.469 3.99L286.959 3.85V3.78L287.099 3.71H287.379L287.659 3.99L287.589 4.06L287.799 4.9L287.939 6.16L288.429 7.42V9.1L288.569 10.5L289.269 11.41L290.039 11.62L290.249 12.11V13.51L289.899 13.86L290.039 14.35V14.56V14.7L289.969 14.84L289.899 15.05L289.409 18.97V20.44L289.129 21.28V23.59L289.059 23.73L288.989 24.22V25.41L289.059 25.62L288.989 25.76V28.56L288.919 28.7L288.849 29.19L289.059 29.26L288.989 30.31L288.849 30.87L288.709 34.51L288.849 37.1L288.639 38.01L288.779 39.69L288.709 40.18L288.849 40.81L288.709 41.23L288.919 46.76L289.409 49.91L289.199 51.73L289.479 52.43L289.269 53.2L289.689 53.97L289.759 54.53V54.74L289.969 55.58L290.739 57.4L291.369 57.89L291.929 59.08L292.209 59.64L292.559 60.13L293.189 60.83ZM327.563 53.69V54.04L327.213 54.25L326.863 54.53L325.183 55.72L323.783 56.28L323.503 56.35L323.433 56.14H322.803L321.823 55.37L320.703 53.69L320.143 53.06L319.793 51.94L318.953 50.47L318.743 50.19L318.673 49.84L318.323 49.56L318.253 49.28L318.043 48.72L317.973 47.95L317.413 46.83L317.343 45.71L317.133 45.43L316.923 44.8L316.853 44.17L316.433 43.61H316.223H316.083L315.873 43.89V44.1H315.733V44.24L315.593 44.59L314.053 46.97L312.653 48.44L312.443 48.93L310.833 50.33L310.273 51.1L309.503 51.52L309.013 52.08L307.753 52.85L307.123 53.06L306.773 53.34L306.073 53.62L305.863 53.9L305.443 53.97L304.253 54.88L303.483 55.02L302.363 55.65L300.053 56.42L299.353 56.35L298.933 56.7L298.233 56.49L296.693 55.58L296.133 55.09H295.853L295.503 55.3L295.013 55.72L294.523 55.65L294.243 55.79L293.333 55.44L291.863 54.67L291.373 53.62L291.513 51.52L291.723 51.24V51.03L292.773 49.56L292.983 49.35L293.333 48.86L293.893 47.74L296.133 45.71L296.413 45.57L296.483 45.43L296.973 45.15L297.323 44.66L298.023 44.17L298.793 43.4L299.983 42.7L300.263 42.49L300.403 42.42L300.473 42.21L300.683 42.14L301.173 41.72L301.313 41.65L301.383 41.37L301.663 40.95L302.573 40.46H302.923L303.973 39.76L304.743 39.55L305.233 39.2L305.653 39.06V38.92L306.983 38.43L307.053 38.36L307.473 38.15L308.243 37.8L309.853 37.38L310.343 37.17L312.583 37.24L313.773 37.94L314.403 38.43L314.683 38.92H314.893L314.403 38.08L314.263 36.82L313.773 36.05L313.213 34.44L312.723 33.53L311.673 32.62L310.203 32.48L309.643 32.83L307.123 35.7L306.143 36.54L305.793 36.82L305.513 36.89L305.303 36.82L305.093 36.61V36.47L305.723 35.98V35.84L305.793 35.63L306.003 35.35L306.703 34.51L307.613 33.67L308.523 32.55L311.603 29.75L312.303 29.68L313.283 29.05L313.493 28.91H313.703L313.913 28.98L314.123 29.12L314.893 29.19L316.223 30.52L316.783 31.43L317.553 33.32L317.833 33.67L318.673 36.05V36.33L318.813 36.75L318.953 37.87L319.233 38.5V38.78L319.373 39.34L319.443 39.83L319.583 40.39L320.143 42.21L320.423 42.7L320.493 43.61L321.053 44.59L321.123 45.85L321.473 46.55L321.963 48.3L323.153 50.82L323.573 51.31L323.713 51.59L324.133 52.08L324.203 52.71L325.813 53.97L326.723 53.83L326.863 53.76L327.003 53.69H327.353H327.563ZM313.983 39.13L313.353 38.64L312.863 38.22L312.373 38.08L310.833 37.94L309.153 38.36L308.593 38.57L307.893 38.85L307.613 39.06L307.403 39.13L304.813 40.39L304.533 40.6L304.393 40.81L303.973 40.95L303.623 41.09L303.483 41.3L302.993 41.65L302.923 41.79L302.783 41.86L302.643 42L302.293 42.28L300.963 43.82L300.823 44.17L300.683 44.66L300.333 44.94L300.263 45.22L299.773 46.27L299.563 46.41L299.423 46.83L299.073 47.39L299.143 48.23L298.723 48.93L298.583 49.91L298.723 51.31L299.143 52.22L299.563 52.43L299.913 53.2L300.753 53.76L301.733 53.9L303.133 53.76L304.883 53.13L305.163 52.85L305.723 52.71L307.123 51.94L308.523 50.61L308.733 50.54L308.873 50.4L311.113 47.67L311.253 47.46L311.603 47.18L311.813 46.83L312.373 45.99L312.933 44.59L313.213 44.1L313.423 43.75V43.61L313.563 43.33L313.913 42.35V42L313.983 41.79L314.123 41.58V39.9L313.983 39.48V39.13ZM297.113 46.34L296.203 47.32L295.643 47.67L295.433 47.95L295.293 48.3L295.013 48.86L294.803 49.07V49.7L294.733 49.91L294.593 50.19L294.243 50.54L294.103 51.24L294.243 51.59L294.453 52.22L294.873 52.64L294.803 52.43H295.363L295.643 52.36L295.923 52.01L295.993 51.66V51.38L296.063 51.17L296.553 49.91L296.693 49.42L296.973 49.07V49L297.113 48.79L297.183 48.51L297.393 47.88L298.443 46.34L298.723 45.78L298.583 45.64L298.373 45.5L298.023 45.64L297.813 45.85V45.92L297.113 46.34ZM355.66 57.54H355.45L355.59 57.61L355.24 57.82L354.82 57.89L354.33 57.4L353.7 57.12L353.07 56.28L352.3 55.79L351.46 55.44L351.04 54.81L349.43 53.76L349.29 53.41L349.15 53.34L349.36 53.2L349.08 51.87L348.59 51.24L348.52 50.12V49.63L348.59 49.21L348.52 48.72L347.89 46.41L347.47 44.38L347.61 43.96L347.47 43.19L347.33 41.93L347.54 34.3L347.4 32.9L347.19 32.2L346.49 33.11L344.81 37.03L344.6 37.38L344.39 37.73L343.9 38.57L343.69 39.06L343.9 39.27L341.17 44.03L341.1 44.17L340.82 45.08L340.05 46.34L339.98 46.41V46.69L339.91 47.04L338.86 48.72H338.79L338.65 49.07L338.3 49.49L337.88 50.54L337.81 50.61L337.32 51.52L336.97 51.8L336.76 52.78L335.78 54.67L335.15 55.37L334.45 55.44L334.24 55.79L333.4 56.28L332.35 56.21L332.14 56.28L332 56.35H331.79L331.44 56.28L331.16 56V55.65L330.95 54.81L330.67 51.24H330.88L330.74 50.89L330.81 50.26V48.37L330.46 47.39L330.67 46.34L330.39 44.59V43.33L330.46 43.05V42.28L330.53 41.86L330.74 39.41L330.39 38.36L330.53 38.15L330.67 36.4L330.53 35.91L330.67 35.56L330.53 34.51L330.6 29.05L330.74 28.98L330.95 28.07L331.51 27.65L335.08 26.81L335.5 27.3L335.64 28.14L335.57 29.4L335.5 30.1L335.57 30.24L335.36 30.52L335.01 31.78L334.8 32.41L334.66 32.9L334.52 33.18L334.17 36.47L333.96 37.31L333.89 38.85L333.75 39.13L333.68 39.41V39.55L333.61 41.02L333.96 46.41L333.75 47.32L333.89 47.53V48.37L333.96 48.51L334.1 49.98V50.4L334.17 50.61L334.52 50.82H334.94L335.85 50.33L336.13 49.84L336.27 49.63L336.41 48.93L337.18 48.09L338.23 46.41V46.13L338.3 46.06L339.49 44.59L339.91 43.26L341.03 41.3L341.73 40.39L342.78 38.08V38.01L342.99 37.59L343.27 36.75L343.34 36.54L343.69 36.19L344.04 35.77L344.18 35.28L344.67 33.67L345.3 32.27L346.28 29.19L347.19 27.72L349.01 26.81H349.29L349.64 26.67L351.11 26.46L351.25 27.51L351.04 27.86L350.97 28.07L351.04 28.35L351.46 31.01L351.39 31.22L351.32 31.85L351.04 32.62L351.25 35.56L351.04 36.47V37.03L350.97 37.24L350.9 38.36L351.32 39.76L351.88 45.36L352.37 48.79L352.51 49.35L352.72 50.26V51.59L353 52.29L353.28 52.78L353.49 53.27L353.7 53.76L354.26 55.16L355.31 57.19L355.66 57.54Z" fill="#1E1E1E"/>
</svg>
