<svg width="173" height="45" viewBox="0 0 173 45" fill="none" xmlns="http://www.w3.org/2000/svg">
<path d="M26.248 26.898L26.214 27.238L26.01 27.272L25.84 27.204L25.67 27.068L25.5 26.762L25.466 26.694L25.126 26.592L25.092 26.422L24.786 26.116L24.31 25.946H24.072L23.834 25.844L23.8 25.776L23.664 25.742L23.426 25.538L23.188 25.47L23.052 25.368L22.984 25.3L22.916 25.198L22.746 25.062L22.678 24.96L22.576 24.756L22.372 24.212L22.134 23.872L22.066 23.6L21.964 23.396L21.794 23.022V22.784L21.454 22.206L21.25 21.526L21.216 20.948L21.114 20.744L20.978 19.452L20.91 19.316V19.078L20.808 18.398L20.332 18.806L20.264 18.84L20.23 19.078L20.196 19.18L19.584 20.472L19.278 20.914H19.176V20.948L18.938 21.526L18.53 22.002L18.428 22.342L18.224 22.444L18.088 22.614L17.952 22.818L17.85 23.056L17.544 23.26L17.51 23.328L17.476 23.43V23.498H17.408L17.136 23.736L17.034 23.906L16.932 23.974L16.456 24.348L16.014 24.484L15.674 24.858L15.164 25.198L15.096 25.13L15.028 25.164L14.45 25.028H14.348V24.96H14.28L14.076 24.586L13.94 24.042L14.042 23.362L13.974 22.75L14.144 22.036L14.314 21.866V21.73H14.246L14.348 20.88L14.45 20.778V20.744L14.552 20.608L14.62 20.54L14.484 20.234L14.518 20.166L14.62 19.928L14.926 19.044L14.892 18.874L14.994 18.772L15.436 17.344L15.504 17.106L15.572 16.97L15.64 16.834L15.708 16.766V16.63L15.776 16.494L15.878 16.222L16.116 15.882V15.61L16.218 15.474L16.252 15.236L16.694 14.182L16.762 13.944L16.864 13.808L16.898 13.536L16.966 13.468L17.034 13.332L17.272 12.652L17.204 12.516L17.102 12.414L16.932 12.448L16.626 13.026L16.524 13.434L15.844 14.318L15.708 14.522L15.674 14.692L15.436 15.1L15.402 15.168L15.266 15.372L15.13 15.406L15.198 15.474L14.518 16.46L14.28 16.868H14.178L14.008 17.072L13.362 18.16L13.124 18.738L12.478 19.554V19.588L12.308 19.792L12.24 19.962V19.996L11.628 20.88L11.526 20.812H11.424V20.88H11.492L11.458 21.05L11.356 21.254L11.322 21.356L11.118 21.458L11.016 21.56L10.948 21.628L10.914 21.798L10.234 22.886L10.268 22.954L9.724 23.498L9.656 23.702L9.35 23.974H9.214L9.146 24.042L9.01 24.484L8.874 24.552L8.84 24.654L8.704 24.926L8.466 25.062V25.164L8.398 25.266L8.296 25.436L7.718 26.082H7.65L7.616 26.184L7.48 26.388L7.378 26.32H7.31L7.208 26.66L7.174 26.728H7.038L6.97 26.762L6.868 26.83L6.8 26.966L6.63 27.068L6.188 27.306H6.12L5.95 27.374H5.916L5.814 27.34L5.78 27.272L5.712 27.102L5.678 26.966L5.848 26.83L5.916 26.626L5.984 26.252L6.12 26.15L6.188 25.946L6.426 25.674L7.038 24.11L7.208 23.906L7.276 23.77L7.446 23.634L7.752 22.75L8.874 20.846L8.84 20.676L9.486 19.418H9.588L9.554 19.282L9.69 19.214L9.656 19.146L9.894 18.602H9.962L11.084 16.494L11.322 16.086L11.39 15.984L11.628 15.474L11.662 15.338L11.73 15.134L11.832 14.658L12.138 14.454L12.206 14.046L12.308 13.91L12.41 13.672L12.478 13.57L12.648 13.264L13.022 12.448L12.954 12.38L13.022 12.278L13.43 11.326L13.362 11.258L13.634 10.68L13.77 10.544L13.702 10.476L14.178 8.538L14.212 8.402V8.334V7.858L14.246 7.722L14.178 7.518L14.28 7.382L13.974 6.6L13.634 6.294L13.294 6.226L12.716 6.26L12.478 6.532H12.308L12.24 6.566L12.138 6.634L11.764 6.77L11.73 6.838L11.594 6.974L11.424 7.11L11.288 7.144L11.05 7.314L11.016 7.382L10.812 7.552L9.792 8.3L9.622 8.402L9.486 8.47L9.35 8.538L9.282 8.708L8.908 8.844L8.398 9.32L8.364 9.422L8.228 9.558L8.024 9.762L7.922 9.83L7.276 10.408L7.208 10.476L7.14 10.51L6.868 10.748L6.834 10.85L6.766 10.952L6.222 11.326L6.188 11.394L6.12 11.564L5.916 11.734L5.712 11.972L5.542 12.176L5.406 12.346L5.168 12.448L4.998 12.856L4.862 12.89V13.026V13.128L4.692 13.298L4.284 13.502L4.25 13.434L3.4 14.556L3.026 15.168L2.822 15.712H2.72L2.516 15.984L2.448 16.052L2.346 16.188L2.21 16.698L1.938 17.174L1.904 17.616L1.836 17.82L1.802 17.854L1.666 17.99L1.53 18.228L1.496 18.33L1.326 18.398L1.428 19.418L1.292 20.506L1.156 20.54L1.122 20.472L0.816 20.336L0.748 20.166L0.68 20.064L0.51 19.52L0.476 19.452L0.408 19.384L0.306 19.316L0.034 18.942L0 18.432L0.17 18.398L0.238 18.33L0.068 18.228L0.306 17.65L1.258 16.018L1.428 15.848L1.462 15.712L1.734 15.474L2.142 14.896L2.176 14.862L2.346 14.658L2.448 14.488L3.026 13.536L3.332 13.23L3.434 13.094L3.672 12.856L3.74 12.754L4.012 12.346L5.814 10.442L5.916 10.374L5.95 10.34L6.052 10.238L6.086 10.136L6.188 10.068L6.392 9.898L7.004 9.388L7.378 8.912L7.922 8.538L8.092 8.402L8.262 8.3L8.466 8.096L8.602 7.994L8.772 7.858L10.064 6.872L10.2 6.838L10.472 6.634L10.88 6.362H10.982L11.152 6.26L11.22 6.226L11.288 6.192V6.124L12.75 5.376L12.784 5.342L12.92 5.308V5.41H12.988L12.954 5.274L13.056 5.206H13.158L13.226 5.172L13.43 5.07L14.382 4.764L14.994 4.832L15.368 5.036L15.402 5.104H15.47V5.206L15.538 5.24H15.64L15.776 5.41L15.912 5.478L15.946 5.648L16.082 5.716L16.184 6.124L16.252 6.362V6.43L16.388 6.974L16.082 8.164L15.98 8.3L15.946 8.334L15.98 8.64L15.946 8.776L15.878 8.878L15.708 9.014L15.742 9.252L15.402 10.136L15.334 10.51L15.3 10.544L15.266 10.612L14.994 10.986L14.79 11.666L14.178 12.618L14.11 13.026L13.77 13.706L13.566 13.944L13.43 14.318L13.328 14.556V14.624L13.09 14.93L12.852 15.508L12.342 16.324L12.274 16.46L12.172 16.562V16.664L10.846 19.18L10.71 19.282L10.642 19.52L10.472 19.758L10.302 19.996L10.268 20.132L9.214 22.036L9.112 22.274V22.342L9.146 22.376L9.282 22.546L9.656 22.274L10.234 21.356L11.696 19.384L11.764 19.248L11.832 19.146L11.866 19.078L13.192 17.106L13.226 17.072L13.328 16.97L13.872 16.324L14.314 15.542L14.382 15.474L14.45 15.304L14.654 15.032L14.756 14.93L14.79 14.828L15.47 13.74L15.538 13.706L15.606 13.672L15.64 13.536L15.742 13.468L17.238 11.428L17.34 11.36L17.442 11.326L17.884 10.782L18.054 10.646L18.156 10.544L18.53 10.374L18.768 10.17L18.87 10.102L19.006 10.034L19.142 9.932L19.278 9.762L19.516 9.728L19.754 9.558L19.822 9.49H19.924L19.992 9.524L20.094 9.592L20.128 9.66V9.694L20.094 10.102L19.924 10.476L19.856 10.816L19.822 11.02L19.754 11.122L19.414 11.836L19.312 11.972L19.278 12.04L19.244 12.142V12.312L19.176 12.516L17.986 14.964V15.032L17.918 15.236L17.816 15.508L17.782 15.61L17.714 15.712L17.374 16.698L17.204 16.97L17.17 17.14L17.034 17.31V17.378V17.412V17.514L17 17.582L16.932 17.718L16.898 17.99L16.762 18.262L16.694 18.398L16.626 18.67L16.66 18.874L16.49 19.792L16.218 20.642L16.15 20.71V20.914L16.116 21.832V22.07L16.048 22.138L16.082 22.988L16.184 23.294L16.354 23.498H16.422L16.626 23.532L16.728 23.396L16.83 23.294V23.226L17.578 22.342L17.884 22.07L17.952 21.832L18.156 21.594L18.326 21.356L18.53 21.288L18.462 21.186L18.53 20.948L18.632 20.54L19.04 20.268L18.938 20.2V20.098L19.176 19.826L19.652 18.874L19.958 17.718L20.06 17.582L20.23 16.868L20.536 16.426L20.774 15.882L20.876 15.848V15.78L20.944 15.746L20.978 15.78L21.046 15.746L21.488 15.542L22.27 14.93L22.712 14.828H22.78L23.052 15.066V15.134L23.086 15.27V17.616L23.222 18.16L23.29 19.18L23.494 20.234L23.528 20.268V20.336L23.494 20.472L23.528 20.54L23.596 20.778L23.698 20.982L24.004 22.478L24.208 22.818L24.446 23.702L24.786 24.416L25.126 24.892V25.13H25.228L25.262 25.47L25.364 25.572L25.568 25.742L25.602 25.81L25.738 25.912L26.248 26.898ZM44.3854 25.878V26.048L44.2154 26.15L44.0454 26.286L43.2294 26.864L42.5494 27.136L42.4134 27.17L42.3794 27.068H42.0734L41.5974 26.694L41.0534 25.878L40.7814 25.572L40.6114 25.028L40.2034 24.314L40.1014 24.178L40.0674 24.008L39.8974 23.872L39.8634 23.736L39.7614 23.464L39.7274 23.09L39.4554 22.546L39.4214 22.002L39.3194 21.866L39.2174 21.56L39.1834 21.254L38.9794 20.982H38.8774H38.8094L38.7074 21.118V21.22H38.6394V21.288L38.5714 21.458L37.8234 22.614L37.1434 23.328L37.0414 23.566L36.2594 24.246L35.9874 24.62L35.6134 24.824L35.3754 25.096L34.7634 25.47L34.4574 25.572L34.2874 25.708L33.9474 25.844L33.8454 25.98L33.6414 26.014L33.0634 26.456L32.6894 26.524L32.1454 26.83L31.0234 27.204L30.6834 27.17L30.4794 27.34L30.1394 27.238L29.3914 26.796L29.1194 26.558H28.9834L28.8134 26.66L28.5754 26.864L28.3374 26.83L28.2014 26.898L27.7594 26.728L27.0454 26.354L26.8074 25.844L26.8754 24.824L26.9774 24.688V24.586L27.4874 23.872L27.5894 23.77L27.7594 23.532L28.0314 22.988L29.1194 22.002L29.2554 21.934L29.2894 21.866L29.5274 21.73L29.6974 21.492L30.0374 21.254L30.4114 20.88L30.9894 20.54L31.1254 20.438L31.1934 20.404L31.2274 20.302L31.3294 20.268L31.5674 20.064L31.6354 20.03L31.6694 19.894L31.8054 19.69L32.2474 19.452H32.4174L32.9274 19.112L33.3014 19.01L33.5394 18.84L33.7434 18.772V18.704L34.3894 18.466L34.4234 18.432L34.6274 18.33L35.0014 18.16L35.7834 17.956L36.0214 17.854L37.1094 17.888L37.6874 18.228L37.9934 18.466L38.1294 18.704H38.2314L37.9934 18.296L37.9254 17.684L37.6874 17.31L37.4154 16.528L37.1774 16.086L36.6674 15.644L35.9534 15.576L35.6814 15.746L34.4574 17.14L33.9814 17.548L33.8114 17.684L33.6754 17.718L33.5734 17.684L33.4714 17.582V17.514L33.7774 17.276V17.208L33.8114 17.106L33.9134 16.97L34.2534 16.562L34.6954 16.154L35.1374 15.61L36.6334 14.25L36.9734 14.216L37.4494 13.91L37.5514 13.842H37.6534L37.7554 13.876L37.8574 13.944L38.2314 13.978L38.8774 14.624L39.1494 15.066L39.5234 15.984L39.6594 16.154L40.0674 17.31V17.446L40.1354 17.65L40.2034 18.194L40.3394 18.5V18.636L40.4074 18.908L40.4414 19.146L40.5094 19.418L40.7814 20.302L40.9174 20.54L40.9514 20.982L41.2234 21.458L41.2574 22.07L41.4274 22.41L41.6654 23.26L42.2434 24.484L42.4474 24.722L42.5154 24.858L42.7194 25.096L42.7534 25.402L43.5354 26.014L43.9774 25.946L44.0454 25.912L44.1134 25.878H44.2834H44.3854ZM37.7894 18.806L37.4834 18.568L37.2454 18.364L37.0074 18.296L36.2594 18.228L35.4434 18.432L35.1714 18.534L34.8314 18.67L34.6954 18.772L34.5934 18.806L33.3354 19.418L33.1994 19.52L33.1314 19.622L32.9274 19.69L32.7574 19.758L32.6894 19.86L32.4514 20.03L32.4174 20.098L32.3494 20.132L32.2814 20.2L32.1114 20.336L31.4654 21.084L31.3974 21.254L31.3294 21.492L31.1594 21.628L31.1254 21.764L30.8874 22.274L30.7854 22.342L30.7174 22.546L30.5474 22.818L30.5814 23.226L30.3774 23.566L30.3094 24.042L30.3774 24.722L30.5814 25.164L30.7854 25.266L30.9554 25.64L31.3634 25.912L31.8394 25.98L32.5194 25.912L33.3694 25.606L33.5054 25.47L33.7774 25.402L34.4574 25.028L35.1374 24.382L35.2394 24.348L35.3074 24.28L36.3954 22.954L36.4634 22.852L36.6334 22.716L36.7354 22.546L37.0074 22.138L37.2794 21.458L37.4154 21.22L37.5174 21.05V20.982L37.5854 20.846L37.7554 20.37V20.2L37.7894 20.098L37.8574 19.996V19.18L37.7894 18.976V18.806ZM29.5954 22.308L29.1534 22.784L28.8814 22.954L28.7794 23.09L28.7114 23.26L28.5754 23.532L28.4734 23.634V23.94L28.4394 24.042L28.3714 24.178L28.2014 24.348L28.1334 24.688L28.2014 24.858L28.3034 25.164L28.5074 25.368L28.4734 25.266H28.7454L28.8814 25.232L29.0174 25.062L29.0514 24.892V24.756L29.0854 24.654L29.3234 24.042L29.3914 23.804L29.5274 23.634V23.6L29.5954 23.498L29.6294 23.362L29.7314 23.056L30.2414 22.308L30.3774 22.036L30.3094 21.968L30.2074 21.9L30.0374 21.968L29.9354 22.07V22.104L29.5954 22.308ZM51.6742 17.242L50.9262 17.378L49.4982 17.412L48.9542 17.378L48.8522 17.276L48.5802 17.31L48.6822 17.378L48.6142 17.446L48.5122 17.412L48.4102 18.33L48.4782 18.534L48.3422 20.88L48.4102 20.948L48.4442 20.982L48.4102 22.274L48.3762 22.342L48.3082 22.444V22.512L48.4102 22.648L48.4442 22.852L48.3762 24.382L48.4442 24.518L48.4102 24.586L48.3762 24.722L48.2062 25.402L48.3422 25.674V26.15L48.4102 26.184L48.4442 26.32V26.388L48.4782 26.626V26.728H48.4102L48.4782 26.796L48.4442 26.932L47.8322 27L47.2202 27.306L47.0162 27.408L46.8802 27.442L46.7442 27.408L46.6762 27.272V26.966V26.762L46.7782 26.592V26.082L46.8122 25.912V25.674V25.3L46.8462 25.198V25.096L46.8122 24.994L46.7102 24.722L46.7442 24.144L46.8122 23.974V23.872L46.7782 23.736L46.7442 23.634L46.5402 22.852L46.5742 22.172L46.5062 22.104L46.6082 22.07V21.628L46.6762 20.642L46.8802 20.506L46.7782 20.03L46.7442 18.908L46.7782 17.752L46.0982 17.684L45.8942 17.582L45.5542 17.616L44.7722 17.718L44.3982 17.582L44.1602 17.208L43.7862 17.106L43.6162 16.97L43.7862 16.834L43.9902 16.868L45.3162 16.834L45.7582 16.766L46.3022 16.732L46.6762 16.664L46.7102 16.562L46.8122 16.528L46.9822 16.222L46.8462 15.848L46.8122 15.644V15.542L46.8802 15.372L46.8122 15.066L46.8802 15.032L46.8462 14.998L46.7442 14.794L46.7782 14.624L46.6082 12.516V12.414L46.5402 12.176L46.7782 11.768L46.7102 11.598L46.6082 11.496L46.5402 11.292V10.238L46.4722 10.204L46.4042 9.932L46.3022 9.796L46.4382 9.388L46.9142 9.252L47.1862 8.98L47.2542 8.436L47.1522 8.028L47.3222 7.144L47.2882 7.076V6.736L47.3902 5.478L47.2882 5.07V4.934L47.2202 4.764L46.9482 4.696L46.8122 4.628L46.6762 4.594L46.4382 4.662L46.2682 4.288L46.2342 3.812L46.3702 3.472L46.3022 2.86L46.3362 2.758L46.3702 2.656L46.4382 2.588L46.4722 2.282L46.3702 2.18V2.01H46.3022L46.6422 1.5L47.0842 1.296L47.2882 1.092L47.5262 0.853998L48.0022 0.173999L48.2402 0.207998L48.3082 0.479999L48.3422 1.024L48.4102 1.194L48.3762 1.602L48.4782 1.942L48.5122 2.146L48.4782 2.248L48.4442 2.35L48.5122 2.554L48.5462 2.656L48.5122 2.724L48.4102 2.894L48.5462 3.2L48.4102 3.948L48.5462 4.424L48.5802 5.07L48.5462 5.24L48.6482 5.444L48.5462 7.484L48.6822 7.62L48.5802 7.96L48.6482 7.994L48.5462 8.062H48.6482L48.4782 9.184L48.5802 10L48.4782 10.272L48.5462 10.612L48.4782 11.156L48.5462 11.632L48.4102 12.516L48.4442 12.686L48.5122 12.924L48.5462 12.958L48.5802 13.468L48.4102 14.08V16.086L48.2742 16.222L48.2062 16.358L48.3762 16.494L48.4782 16.63L48.9202 16.698L49.1582 16.63L49.3622 16.732L49.9402 16.596L50.7902 16.664L51.3002 16.936L51.6742 17.242ZM63.4076 21.186L63.2716 21.526L63.2036 21.662L63.0676 21.968L62.5916 22.478L62.5576 22.512L62.2856 22.818L60.5516 24.348L60.2796 24.518L60.1776 24.654L59.8376 24.926L59.7696 25.028L59.6676 25.096L59.5996 25.13L59.4976 25.164L58.9536 25.64L57.3216 26.592L56.8116 26.762L56.5736 26.83L56.4716 26.864L55.9276 27.034L55.7916 27.068L55.3496 27.238L54.3636 27.34L53.5476 27.374L52.9016 27.136L52.5616 26.728L52.3236 26.558L51.7796 25.81L51.5416 24.586L51.7456 23.77V23.43L52.2556 21.662L53.4456 19.35L53.1396 18.806L53.1736 18.16L53.5136 17.548L53.9896 16.902L54.5676 16.256L55.6556 15.338L56.2336 14.93L56.4036 14.794L56.5056 14.726L57.3896 14.08L57.5256 13.978L57.7636 13.842L58.8176 13.298L60.2796 12.754L60.9256 12.686L61.4356 12.788L61.6056 12.856L62.0476 13.162L62.1496 13.978L62.0136 14.522L61.3336 15.95L61.0956 16.29L60.9596 16.426L60.7556 16.63L59.6336 17.82L59.1916 18.024L58.2056 18.738L56.2676 19.588L55.4856 19.792L55.3836 19.826H55.2816H55.1456L54.7376 19.758L54.5676 19.724L54.4996 19.452L55.0096 19.18L55.4176 18.772L55.7916 18.67L56.0636 18.432L57.5596 18.16L58.0016 18.024L59.4636 17.208L60.0076 16.596L60.3476 15.814L60.4156 15.372L60.3816 14.624L59.8376 14.216H59.1576L58.8516 14.284L58.4096 14.59L58.2736 14.692L58.1036 14.896L57.9336 14.93L57.4576 15.44L57.0156 15.916L56.8456 16.12L56.5736 16.392L56.1656 16.8L55.6556 17.514L55.5536 17.65L55.4516 17.718L55.2136 17.99L54.8056 18.466L54.6696 18.772L54.2616 19.18L53.4796 20.914L53.0716 22.274V22.614L53.0036 22.988L52.9356 24.28L53.1396 24.824L53.4456 25.232L53.7856 25.572L54.1596 25.81L54.2616 25.878L54.4656 25.946L54.8396 26.048L56.2676 26.082L57.5596 25.674L58.9196 24.96L59.4296 24.484L59.5656 24.382L59.6676 24.314L61.1636 23.192H61.2656V23.124L61.3336 22.954L62.0136 22.376L63.1696 21.186H63.4076ZM56.2676 15.814L55.7916 16.086L54.9416 16.834L54.8736 17.174L54.9076 17.31L55.1116 17.344L55.5196 16.868L55.5536 16.834L55.7236 16.664L56.1656 16.188L56.2676 15.814ZM73.9067 15.066V15.236L73.5667 15.474L73.3627 15.644L73.1247 15.678L72.9207 15.814L72.8527 15.848L72.6147 15.78L72.3087 15.134L72.0027 14.76L71.9347 14.658L71.8667 14.624L71.7987 14.59L71.7307 14.488H71.5947L71.5267 14.454L71.2887 14.488L70.9827 14.59L70.8467 14.692L69.5887 15.27L69.3167 15.372L69.2487 15.44L68.9087 15.678L68.5687 16.426L68.3307 17.412L68.1947 17.752L68.0927 17.99L68.0247 18.228V18.636L67.7527 19.486L67.6847 20.098L67.5487 20.676L67.5147 20.744L67.4467 20.812V21.118L67.3107 21.322V21.39L67.3447 21.492L67.3787 21.764L67.3447 22.002L67.3107 22.07L67.3447 22.308L67.2427 22.716L67.1067 24.11L67.2087 24.314L67.1067 24.654L67.1747 26.286L67.2427 26.354L67.2087 26.626L66.9707 26.83L66.4947 27.034L65.9167 27.068L65.7807 27.17L65.6787 27.034L65.6447 26.932L65.6787 26.388L65.6107 25.912L65.7127 24.824H65.6447L65.6787 24.688V24.62V24.586L65.7127 24.45V23.498L65.6447 23.158L65.7127 22.784V22.444L65.7467 22.376L65.7127 22.308V22.172L65.7807 22.07L65.7467 22.002H65.6787L65.7807 21.968L65.7127 21.628L65.6787 21.39V20.812L65.6447 20.71L65.7127 20.608L65.6107 20.234V20.098V20.03V19.86L65.6447 19.554H65.5767L65.4067 19.418L65.3387 19.384L65.2027 19.418L65.1347 19.486L64.9647 19.656L64.6927 19.826L64.5907 20.098L64.4887 20.132L63.8087 21.254L63.5367 21.9L63.3667 22.886L63.4687 23.396L63.4007 23.43L63.4347 23.498L63.3667 23.566L63.1627 23.328L63.0607 23.226L62.9587 23.056L62.9927 22.92L62.9587 22.852V22.75L62.9927 22.648L63.0947 22.41L63.0607 22.172L63.0947 22.104V22.002L63.1627 21.798L63.3327 21.424L63.4347 20.982L63.4687 20.778L63.5367 20.744L64.2507 19.554L64.3527 19.18L64.4207 19.146L64.4887 19.078L64.5567 19.01L64.5907 18.942L64.6247 18.908L64.6587 18.738L64.7267 18.568L64.8627 18.466L65.0327 18.228L65.2027 18.126L65.2367 18.092L65.4067 17.82L65.3727 17.446L65.3387 17.344L65.2707 17.14V16.766L65.8147 16.358L65.9507 16.256L66.0867 16.12H66.2227L66.2907 16.188L66.3247 16.29L66.6987 16.46L66.9027 16.426L67.6167 15.78L67.7527 15.576L68.0587 15.338L68.1607 15.27L68.1947 15.202L68.2627 15.032L68.5007 14.76V14.488L68.6367 14.386H68.7387L69.2147 14.148L69.4867 14.182L69.8267 14.046L69.8947 14.012H69.9287L70.2347 13.978L71.3227 13.536L71.5607 13.502L71.8327 13.434L73.0227 12.89L73.3627 12.822L73.6347 13.026L73.6687 13.162L73.6347 13.672L73.7027 14.42L73.7367 14.59V14.692L73.9067 15.066ZM67.6507 17.514L67.5827 17.446V17.378L67.3787 17.276H66.9707L66.9027 17.446L66.7667 17.548L66.9707 18.432H67.1407L67.4127 18.092L67.5487 18.058L67.6167 17.99L67.6507 17.888L67.6847 17.786L67.6507 17.514ZM87.5497 27.748H87.4477L87.5157 27.782L87.3457 27.884L87.1417 27.918L86.9037 27.68L86.5977 27.544L86.2917 27.136L85.9177 26.898L85.5097 26.728L85.3057 26.422L84.5237 25.912L84.4557 25.742L84.3877 25.708L84.4897 25.64L84.3537 24.994L84.1157 24.688L84.0817 24.144V23.906L84.1157 23.702L84.0817 23.464L83.7757 22.342L83.5717 21.356L83.6397 21.152L83.5717 20.778L83.5037 20.166L83.6057 16.46L83.5377 15.78L83.4357 15.44L83.0957 15.882L82.2797 17.786L82.1777 17.956L82.0757 18.126L81.8377 18.534L81.7357 18.772L81.8377 18.874L80.5117 21.186L80.4777 21.254L80.3417 21.696L79.9677 22.308L79.9337 22.342V22.478L79.8997 22.648L79.3897 23.464H79.3557L79.2877 23.634L79.1177 23.838L78.9137 24.348L78.8797 24.382L78.6417 24.824L78.4717 24.96L78.3697 25.436L77.8937 26.354L77.5877 26.694L77.2477 26.728L77.1457 26.898L76.7377 27.136L76.2277 27.102L76.1257 27.136L76.0577 27.17H75.9557L75.7857 27.136L75.6497 27V26.83L75.5477 26.422L75.4117 24.688H75.5137L75.4457 24.518L75.4797 24.212V23.294L75.3097 22.818L75.4117 22.308L75.2757 21.458V20.846L75.3097 20.71V20.336L75.3437 20.132L75.4457 18.942L75.2757 18.432L75.3437 18.33L75.4117 17.48L75.3437 17.242L75.4117 17.072L75.3437 16.562L75.3777 13.91L75.4457 13.876L75.5477 13.434L75.8197 13.23L77.5537 12.822L77.7577 13.06L77.8257 13.468L77.7917 14.08L77.7577 14.42L77.7917 14.488L77.6897 14.624L77.5197 15.236L77.4177 15.542L77.3497 15.78L77.2817 15.916L77.1117 17.514L77.0097 17.922L76.9757 18.67L76.9077 18.806L76.8737 18.942V19.01L76.8397 19.724L77.0097 22.342L76.9077 22.784L76.9757 22.886V23.294L77.0097 23.362L77.0777 24.076V24.28L77.1117 24.382L77.2817 24.484H77.4857L77.9277 24.246L78.0637 24.008L78.1317 23.906L78.1997 23.566L78.5737 23.158L79.0837 22.342V22.206L79.1177 22.172L79.6957 21.458L79.8997 20.812L80.4437 19.86L80.7837 19.418L81.2937 18.296V18.262L81.3957 18.058L81.5317 17.65L81.5657 17.548L81.7357 17.378L81.9057 17.174L81.9737 16.936L82.2117 16.154L82.5177 15.474L82.9937 13.978L83.4357 13.264L84.3197 12.822H84.4557L84.6257 12.754L85.3397 12.652L85.4077 13.162L85.3057 13.332L85.2717 13.434L85.3057 13.57L85.5097 14.862L85.4757 14.964L85.4417 15.27L85.3057 15.644L85.4077 17.072L85.3057 17.514V17.786L85.2717 17.888L85.2377 18.432L85.4417 19.112L85.7137 21.832L85.9517 23.498L86.0197 23.77L86.1217 24.212V24.858L86.2577 25.198L86.3937 25.436L86.4957 25.674L86.5977 25.912L86.8697 26.592L87.3797 27.578L87.5497 27.748ZM92.3166 12.992L92.1806 13.06L92.1466 12.992H92.0786L91.8406 13.468H91.8066L91.7726 13.57V13.672L91.8746 14.012L91.8406 14.182L91.7046 14.59V14.76L91.6706 15.066L91.5346 16.256L91.6366 17.106L91.5686 17.514L91.6366 18.364V18.84H91.5686H91.5006V18.772L91.2286 18.364L91.3306 17.854L91.2626 17.718V17.684L91.1606 17.174V17.072V16.936L91.2626 16.664L91.2286 16.188L91.3986 12.924L91.3646 12.244L91.3306 12.074L91.2966 11.938L91.2286 11.87L91.0926 11.836H90.9566L90.8546 11.87L90.7526 11.972L90.4126 12.142L90.1066 11.938L89.9026 11.632L89.7666 11.496L89.6986 11.462V11.326L89.3926 10.612L89.5966 9.966L90.8886 9.252L91.3306 9.15L91.8406 9.694L91.9086 10.034L92.2826 10.85L92.2146 11.088L91.9086 11.36L91.7726 11.598V12.04L91.9426 12.38L91.9766 12.652L92.3166 12.992ZM91.7726 24.416L91.5686 25.504L91.5006 26.558L90.8546 26.83L89.9026 27.034H89.8006L89.7326 27L89.6986 26.83L89.5286 25.844L89.4606 25.504V25.436V25.232L89.4266 24.79L89.4606 24.688H89.4266L89.3586 23.804V23.702L89.3926 23.634L89.3246 23.566L89.3926 22.954L89.3586 22.886L89.2906 22.648L89.3246 22.07L89.1546 19.894L89.2566 19.35L89.1886 19.078V18.976L89.1546 18.908L89.2226 17.854L89.2566 17.65V17.446L89.1546 16.698L89.2566 16.324L89.2906 14.454L89.2566 14.318L89.2906 14.114L89.4946 13.91L90.0726 13.638L90.1406 13.604H90.2086L90.3786 13.638L90.8546 13.57L91.0246 14.59L90.9226 16.052L90.9566 16.324L90.8546 16.902L90.8206 17.616V17.922L90.7866 18.092L90.8546 19.01L90.6846 19.758V20.608L90.8546 20.744H90.9226L91.1266 20.642H91.3646L91.5346 20.438L91.5686 20.2L91.6706 20.132L91.7726 20.2L91.8746 20.404L91.7726 21.118L91.8066 22.138L91.6706 23.056L91.7386 23.26L91.7046 24.042L91.6026 24.212L91.6366 24.314H91.7386L91.7726 24.416ZM101.18 17.242L100.432 17.378L99.004 17.412L98.46 17.378L98.358 17.276L98.086 17.31L98.188 17.378L98.12 17.446L98.018 17.412L97.916 18.33L97.984 18.534L97.848 20.88L97.916 20.948L97.95 20.982L97.916 22.274L97.882 22.342L97.814 22.444V22.512L97.916 22.648L97.95 22.852L97.882 24.382L97.95 24.518L97.916 24.586L97.882 24.722L97.712 25.402L97.848 25.674V26.15L97.916 26.184L97.95 26.32V26.388L97.984 26.626V26.728H97.916L97.984 26.796L97.95 26.932L97.338 27L96.726 27.306L96.522 27.408L96.386 27.442L96.25 27.408L96.182 27.272V26.966V26.762L96.284 26.592V26.082L96.318 25.912V25.674V25.3L96.352 25.198V25.096L96.318 24.994L96.216 24.722L96.25 24.144L96.318 23.974V23.872L96.284 23.736L96.25 23.634L96.046 22.852L96.08 22.172L96.012 22.104L96.114 22.07V21.628L96.182 20.642L96.386 20.506L96.284 20.03L96.25 18.908L96.284 17.752L95.604 17.684L95.4 17.582L95.06 17.616L94.278 17.718L93.904 17.582L93.666 17.208L93.292 17.106L93.122 16.97L93.292 16.834L93.496 16.868L94.822 16.834L95.264 16.766L95.808 16.732L96.182 16.664L96.216 16.562L96.318 16.528L96.488 16.222L96.352 15.848L96.318 15.644V15.542L96.386 15.372L96.318 15.066L96.386 15.032L96.352 14.998L96.25 14.794L96.284 14.624L96.114 12.516V12.414L96.046 12.176L96.284 11.768L96.216 11.598L96.114 11.496L96.046 11.292V10.238L95.978 10.204L95.91 9.932L95.808 9.796L95.944 9.388L96.42 9.252L96.692 8.98L96.76 8.436L96.658 8.028L96.828 7.144L96.794 7.076V6.736L96.896 5.478L96.794 5.07V4.934L96.726 4.764L96.454 4.696L96.318 4.628L96.182 4.594L95.944 4.662L95.774 4.288L95.74 3.812L95.876 3.472L95.808 2.86L95.842 2.758L95.876 2.656L95.944 2.588L95.978 2.282L95.876 2.18V2.01H95.808L96.148 1.5L96.59 1.296L96.794 1.092L97.032 0.853998L97.508 0.173999L97.746 0.207998L97.814 0.479999L97.848 1.024L97.916 1.194L97.882 1.602L97.984 1.942L98.018 2.146L97.984 2.248L97.95 2.35L98.018 2.554L98.052 2.656L98.018 2.724L97.916 2.894L98.052 3.2L97.916 3.948L98.052 4.424L98.086 5.07L98.052 5.24L98.154 5.444L98.052 7.484L98.188 7.62L98.086 7.96L98.154 7.994L98.052 8.062H98.154L97.984 9.184L98.086 10L97.984 10.272L98.052 10.612L97.984 11.156L98.052 11.632L97.916 12.516L97.95 12.686L98.018 12.924L98.052 12.958L98.086 13.468L97.916 14.08V16.086L97.78 16.222L97.712 16.358L97.882 16.494L97.984 16.63L98.426 16.698L98.664 16.63L98.868 16.732L99.446 16.596L100.296 16.664L100.806 16.936L101.18 17.242ZM112.403 26.32L112.267 27.272L112.165 27.646L112.199 27.714L112.267 27.918L112.131 29.176L111.961 30.094L111.927 30.298L111.893 30.502L111.859 30.672V31.556L111.621 32.78V32.916L111.553 33.188L111.519 33.46L111.417 33.63L111.247 33.97L111.383 34.412L111.281 35.024V35.262L111.247 35.364L111.179 35.568L111.111 37.132L110.907 37.778L110.873 37.812L110.703 38.22L110.499 38.628L110.329 38.798L110.261 38.934L110.091 39.512L109.547 40.396L109.445 40.6L109.343 40.668L109.275 40.736L109.105 40.906L108.799 41.11L108.323 41.552L108.085 41.96L107.541 42.266L107.167 42.64L107.065 42.674L106.963 42.64L105.909 43.252L104.719 43.592L104.141 43.966L104.073 43.932V43.864H103.801L103.427 44H103.393L103.291 43.898H103.121L102.747 44.068L102.407 44L101.489 44.034L99.6535 43.286L99.3475 42.946L99.2115 42.776L99.1775 42.742L99.1095 42.64L98.9735 42.334V42.198L98.5995 41.518V41.382L98.5655 41.144V41.11L98.5995 40.974L98.7355 40.804L98.9395 40.6L99.0075 40.43L99.0755 40.158V40.056L99.1095 39.988L99.2455 39.784L99.4155 39.24L99.6195 39.172V39.002L99.6875 38.798L99.9935 38.526L100.061 38.458H100.197L100.367 38.492V38.628H100.435L100.299 39.206L100.265 40.022L100.435 40.464L100.367 40.702L100.401 40.838L100.469 40.906L100.503 41.076L100.537 41.246L100.707 41.62L100.843 41.79L101.047 41.994L101.013 41.926L101.251 42.266L101.319 42.47L101.557 42.538L101.591 42.64L102.135 42.946L102.849 43.15L103.937 43.116L104.379 43.014H104.447L104.651 42.98L105.535 42.606L105.637 42.572L105.739 42.47L105.943 42.402L106.113 42.266L106.691 41.892V41.994L106.759 41.96L107.031 41.62L107.439 41.382L108.187 40.6L108.799 39.444L108.935 39.036L108.969 38.934L109.003 38.832L109.105 38.56L109.207 38.356L109.479 37.812V37.676L109.513 37.472L109.615 37.03L109.581 36.622L109.717 36.18V36.044L109.751 35.976L109.717 35.874V35.772L109.819 35.33L109.853 34.378L109.921 34.344L109.989 34.14V34.038L110.125 33.902L110.057 33.46L110.125 32.576L110.023 32.032L110.159 31.08L110.227 29.788L110.295 29.55L110.261 29.346L110.193 28.768L110.295 28.326L110.397 28.122L110.431 27.918V27.85L110.227 26.898L110.363 25.912V24.348V24.076L110.261 24.11L110.295 23.702H110.227L110.193 22.648V22.614L110.125 22.444L110.159 22.308L110.193 21.934L110.057 20.778L110.125 20.744L110.193 20.608L109.955 20.472L109.819 19.894L109.785 19.52V19.452L109.751 19.384H109.717L109.751 19.18L109.581 19.078L109.275 19.418L108.935 20.234L108.799 20.54L108.697 20.642L108.595 21.186L108.255 21.594L107.643 22.716L107.337 23.056L107.439 23.09L107.303 23.294L106.691 24.144L106.351 24.756L106.249 24.892L106.079 24.994L106.011 25.028L105.977 25.062L105.671 25.368L105.637 25.47L105.501 25.572H105.467L105.229 25.878L104.107 26.558L103.971 26.66H103.869L102.883 27.136L102.543 25.708L102.611 24.79V24.688L102.543 24.586L102.509 24.45L102.373 23.634V22.716V22.648L102.339 22.546L102.305 22.478L102.339 22.002L102.237 21.662L102.203 20.948L102.305 20.472V20.098L102.203 19.86V19.792L102.169 19.724L102.135 19.554V19.384L102.169 19.214L102.203 19.146L102.305 16.834L102.441 16.392L102.509 16.018L102.475 15.746V15.576L102.577 15.032L102.543 14.93L102.577 14.862V14.692V13.978L102.543 13.842L102.611 13.74L102.713 13.536L102.815 13.23L103.223 13.162L103.733 12.856H104.073L104.107 13.978L104.005 14.08L103.971 14.182L104.005 14.284V14.352L104.107 14.454L104.039 14.828L103.971 14.93L103.937 15.1L103.903 15.27L103.937 15.95L104.107 16.494L104.005 18.262L104.107 18.67L104.141 18.806L104.107 18.976L104.039 19.146L104.073 19.486L104.039 19.758L104.073 19.826L104.039 20.404L104.141 20.506V20.71L104.243 20.914L104.209 21.356L104.175 21.934L104.243 22.444V23.26L104.209 23.396L104.277 23.498L104.209 23.6L104.345 23.872L104.413 24.382H104.481V24.654L104.515 24.756L104.617 24.858L104.719 24.892L104.787 24.858L104.991 24.756L105.195 24.586L105.297 24.314L105.603 23.804L105.977 23.464L106.113 23.124L106.215 23.056H106.317L106.419 22.886L106.317 22.784L106.385 22.308L106.419 22.24L106.521 21.968L107.541 19.928V19.894L107.609 19.792L107.677 19.724L107.643 19.622L108.493 17.48L108.527 16.936L108.697 16.698L108.867 16.12L108.901 16.086L108.969 15.916L109.173 15.61L109.989 15.304L110.295 14.93L110.771 14.828L110.873 14.76L111.009 14.692L111.213 14.658L111.417 14.692L111.451 15.168L111.485 15.236L111.655 15.542L111.621 15.712V15.814L111.655 16.12L111.723 16.256L111.757 16.63L111.927 17.004L111.893 17.48L112.131 18.296L112.471 21.39L112.403 21.662L112.471 21.798L112.369 22.716L112.471 23.6L112.437 24.484L112.369 24.926L112.403 25.028L112.471 25.368L112.403 26.32ZM136.505 8.198L136.437 8.844H136.471L136.505 8.912L136.471 9.048L136.403 9.252L136.369 9.49L136.267 9.66L136.131 10.272L135.417 11.088L135.247 11.326L135.213 11.462L134.771 11.87L134.533 12.006L134.465 12.04L134.397 12.074L133.649 12.516L133.377 12.482L133.105 12.754L133.003 12.822L132.765 13.026L132.663 13.06L132.561 13.094L132.425 13.06V12.992L132.323 13.06L131.439 13.23L131.337 13.298L131.201 13.332H131.099L130.691 13.434L130.623 13.468L130.555 13.502L130.521 13.57L129.603 13.638L128.991 13.91L128.277 13.842L128.073 13.774H127.835L127.665 13.706H127.597L127.427 13.74L127.325 13.876V14.216L127.257 14.284V14.386V14.488L127.189 14.556L127.155 14.896L127.019 15.1V15.576L126.951 15.78L126.917 16.392L126.781 16.97L126.815 17.31L126.645 17.752V18.058L126.577 18.33L126.475 18.5L126.441 18.874L126.407 19.35L126.237 19.86L126.203 19.996L126.271 20.302L125.965 21.39L125.761 24.178L125.659 26.524L125.693 26.83L125.659 26.898L125.455 27.068L125.285 27.102L124.979 27.136V27.238L124.265 27.612H124.061L123.993 27.544L123.925 27.272L123.891 26.218L123.823 25.742L123.891 25.334L123.687 24.314L123.823 23.94L123.789 23.838L123.721 23.634L123.619 23.328L123.585 23.022L123.415 22.07L123.449 21.662L123.415 21.526V21.492V21.424L123.449 21.288V21.22V21.152L123.347 20.982L123.313 20.098L123.381 20.03V19.928L123.245 19.486V19.418L123.279 19.35L123.347 19.248L123.517 18.874L123.211 18.5L123.245 18.058L123.279 17.956V17.854L123.245 17.548L123.313 17.378L123.279 17.276L123.177 17.14L123.109 17.106L123.143 16.664L123.177 16.528L123.143 16.46L123.041 16.324L122.973 15.372H123.041V15.134L122.905 14.726L123.007 14.114L122.973 13.74L122.633 12.754L122.735 12.652L123.245 12.89L123.619 12.754L123.721 12.55L123.789 12.006L123.857 11.734V11.632H123.755L123.687 11.598L123.449 11.258L123.245 10.816L122.701 10.646L122.395 10.544L122.327 10.476L122.055 10.34L121.681 9.762L121.579 9.354L121.647 9.252V9.184V9.116L121.613 9.048L121.545 8.946V8.436L121.681 8.062L121.783 7.858L121.851 7.756L122.905 6.498L123.619 6.056H123.789L124.095 5.784L124.605 5.58L125.047 5.274L126.849 4.526L127.291 4.458L127.495 4.424L127.733 4.288H127.801V4.254L129.059 3.948L129.025 4.016L129.161 4.05H129.229L129.399 3.914L129.807 3.778H129.943L130.079 3.71L132.323 3.812L132.357 3.744H132.459L133.003 3.88L134.567 4.798L134.975 5.376L135.111 5.41L135.213 5.512L135.315 5.58L135.723 5.92L135.859 6.158L135.995 6.566L136.029 6.6L135.859 6.804V6.872L135.961 6.974L136.199 7.076L136.335 7.178L136.403 7.28L136.437 7.348L136.471 7.45L136.437 7.96L136.505 8.198ZM134.805 8.062L134.567 7.756V7.518L134.499 7.416V7.246L134.295 6.872L134.159 6.702L134.023 6.43L133.887 6.328L133.751 6.158L133.513 5.92L133.445 5.886V5.852L133.377 5.784L133.309 5.75L133.207 5.614L132.935 5.444L132.867 5.376L132.697 5.274L132.017 4.9L131.439 4.696H131.269L130.963 4.594L130.827 4.696L129.977 4.56L129.875 4.628L129.263 4.594V4.628L128.957 4.73H128.855L128.549 4.696V4.764H128.379L128.141 4.9L127.563 5.07L127.291 5.036L127.223 5.104L126.611 5.41L126.237 5.444L124.979 5.988L124.707 6.226L124.333 6.464L124.129 6.668L123.891 6.94L123.653 7.076L123.551 7.144H123.653L123.517 7.688L123.585 7.79L123.653 7.858V7.96L123.857 8.266L124.605 8.878L124.741 8.946L124.775 8.98L125.523 9.388L125.625 9.558V9.626L125.285 9.932L124.911 10.068L124.741 10.238L124.673 10.306L124.367 10.476L124.061 10.68L124.163 11.054L124.197 11.156L124.095 11.666L124.061 11.768L124.027 12.006V12.652L124.129 13.06L124.163 13.74L124.027 14.08H124.095V14.182V14.284L124.163 14.59L124.265 14.862L124.299 15.134L124.333 15.236L124.231 15.678L124.367 15.984V16.392L124.571 16.868L124.503 17.276L124.571 17.514L124.673 18.398L124.809 18.976L124.911 19.18L125.217 19.146L125.251 18.942L125.319 18.874L125.455 17.344L125.625 16.902L125.795 15.746L125.897 15.44V15.304L125.863 15.134V15.066L125.795 14.998L125.829 14.624L125.965 14.284V14.182L125.897 13.944L125.863 13.876V13.366L125.421 13.468L125.183 13.298L125.149 13.128L125.183 13.026L125.353 12.856L125.523 12.822L125.795 12.924L125.965 12.822L125.999 12.72L125.965 12.584L125.863 12.312L125.897 11.938L125.795 11.87L125.727 10.306L126.203 10.136L126.509 9.966L126.849 9.796L126.985 9.83L127.359 10.034V10.17L127.393 10.272L127.563 11.7L127.427 12.108L127.529 12.958L127.971 13.06L129.263 13.094L129.365 13.026L129.603 12.992L129.875 12.958L131.099 12.72L131.303 12.686L131.473 12.618L131.745 12.516H132.051L132.085 12.414H132.187L132.357 12.312L132.561 12.244L133.173 11.836L133.479 11.734V11.632L133.513 11.598L133.717 11.462L134.159 11.088L134.193 11.02L134.227 10.748L134.329 10.68L134.431 10.476L134.567 10.408L134.499 10.204L134.805 9.592L134.771 9.422L134.805 9.252L134.839 8.912L134.805 8.606L134.737 8.436L134.771 8.3L134.805 8.062ZM142.406 29.346V29.516L141.25 29.142L141.08 29.006L140.706 28.938L140.57 28.802L140.536 28.734L140.332 28.428L140.196 28.36L140.128 28.258L139.992 28.054L139.686 27.748L139.652 27.612L138.7 27L138.53 26.796L138.326 26.15L138.428 25.674L138.36 25.64L138.394 25.436L138.36 25.402L138.292 24.178L138.428 23.634L138.462 22.75V22.614L138.53 22.512L138.632 21.662V20.336H138.564L138.53 19.486L138.666 18.398L138.564 18.194L138.53 15.066L138.428 14.692L138.564 13.944L138.632 12.006V11.904L138.7 11.598V9.15L138.768 8.742L138.666 8.096L138.632 6.736L138.598 6.634L138.53 6.498L138.462 6.362H138.394L138.428 5.172V5.036L138.53 4.628L138.292 4.152V3.71L138.258 3.642L138.224 3.37V2.86L138.19 2.588L138.224 2.486L138.292 2.35L138.36 2.248L138.802 1.806L139.142 1.738L139.38 1.67V1.636L139.448 1.602H139.584L139.72 1.738L139.686 1.772L139.788 2.18L139.856 2.792L140.094 3.404V4.22L140.162 4.9L140.502 5.342L140.876 5.444L140.978 5.682V6.362L140.808 6.532L140.876 6.77V6.872V6.94L140.842 7.008L140.808 7.11L140.57 9.014V9.728L140.434 10.136V11.258L140.4 11.326L140.366 11.564V12.142L140.4 12.244L140.366 12.312V13.672L140.332 13.74L140.298 13.978L140.4 14.012L140.366 14.522L140.298 14.794L140.23 16.562L140.298 17.82L140.196 18.262L140.264 19.078L140.23 19.316L140.298 19.622L140.23 19.826L140.332 22.512L140.57 24.042L140.468 24.926L140.604 25.266L140.502 25.64L140.706 26.014L140.74 26.286V26.388L140.842 26.796L141.216 27.68L141.522 27.918L141.794 28.496L141.93 28.768L142.1 29.006L142.406 29.346ZM159.102 25.878V26.048L158.932 26.15L158.762 26.286L157.946 26.864L157.266 27.136L157.13 27.17L157.096 27.068H156.79L156.314 26.694L155.77 25.878L155.498 25.572L155.328 25.028L154.92 24.314L154.818 24.178L154.784 24.008L154.614 23.872L154.58 23.736L154.478 23.464L154.444 23.09L154.172 22.546L154.138 22.002L154.036 21.866L153.934 21.56L153.9 21.254L153.696 20.982H153.594H153.526L153.424 21.118V21.22H153.356V21.288L153.288 21.458L152.54 22.614L151.86 23.328L151.758 23.566L150.976 24.246L150.704 24.62L150.33 24.824L150.092 25.096L149.48 25.47L149.174 25.572L149.004 25.708L148.664 25.844L148.562 25.98L148.358 26.014L147.78 26.456L147.406 26.524L146.862 26.83L145.74 27.204L145.4 27.17L145.196 27.34L144.856 27.238L144.108 26.796L143.836 26.558H143.7L143.53 26.66L143.292 26.864L143.054 26.83L142.918 26.898L142.476 26.728L141.762 26.354L141.524 25.844L141.592 24.824L141.694 24.688V24.586L142.204 23.872L142.306 23.77L142.476 23.532L142.748 22.988L143.836 22.002L143.972 21.934L144.006 21.866L144.244 21.73L144.414 21.492L144.754 21.254L145.128 20.88L145.706 20.54L145.842 20.438L145.91 20.404L145.944 20.302L146.046 20.268L146.284 20.064L146.352 20.03L146.386 19.894L146.522 19.69L146.964 19.452H147.134L147.644 19.112L148.018 19.01L148.256 18.84L148.46 18.772V18.704L149.106 18.466L149.14 18.432L149.344 18.33L149.718 18.16L150.5 17.956L150.738 17.854L151.826 17.888L152.404 18.228L152.71 18.466L152.846 18.704H152.948L152.71 18.296L152.642 17.684L152.404 17.31L152.132 16.528L151.894 16.086L151.384 15.644L150.67 15.576L150.398 15.746L149.174 17.14L148.698 17.548L148.528 17.684L148.392 17.718L148.29 17.684L148.188 17.582V17.514L148.494 17.276V17.208L148.528 17.106L148.63 16.97L148.97 16.562L149.412 16.154L149.854 15.61L151.35 14.25L151.69 14.216L152.166 13.91L152.268 13.842H152.37L152.472 13.876L152.574 13.944L152.948 13.978L153.594 14.624L153.866 15.066L154.24 15.984L154.376 16.154L154.784 17.31V17.446L154.852 17.65L154.92 18.194L155.056 18.5V18.636L155.124 18.908L155.158 19.146L155.226 19.418L155.498 20.302L155.634 20.54L155.668 20.982L155.94 21.458L155.974 22.07L156.144 22.41L156.382 23.26L156.96 24.484L157.164 24.722L157.232 24.858L157.436 25.096L157.47 25.402L158.252 26.014L158.694 25.946L158.762 25.912L158.83 25.878H159H159.102ZM152.506 18.806L152.2 18.568L151.962 18.364L151.724 18.296L150.976 18.228L150.16 18.432L149.888 18.534L149.548 18.67L149.412 18.772L149.31 18.806L148.052 19.418L147.916 19.52L147.848 19.622L147.644 19.69L147.474 19.758L147.406 19.86L147.168 20.03L147.134 20.098L147.066 20.132L146.998 20.2L146.828 20.336L146.182 21.084L146.114 21.254L146.046 21.492L145.876 21.628L145.842 21.764L145.604 22.274L145.502 22.342L145.434 22.546L145.264 22.818L145.298 23.226L145.094 23.566L145.026 24.042L145.094 24.722L145.298 25.164L145.502 25.266L145.672 25.64L146.08 25.912L146.556 25.98L147.236 25.912L148.086 25.606L148.222 25.47L148.494 25.402L149.174 25.028L149.854 24.382L149.956 24.348L150.024 24.28L151.112 22.954L151.18 22.852L151.35 22.716L151.452 22.546L151.724 22.138L151.996 21.458L152.132 21.22L152.234 21.05V20.982L152.302 20.846L152.472 20.37V20.2L152.506 20.098L152.574 19.996V19.18L152.506 18.976V18.806ZM144.312 22.308L143.87 22.784L143.598 22.954L143.496 23.09L143.428 23.26L143.292 23.532L143.19 23.634V23.94L143.156 24.042L143.088 24.178L142.918 24.348L142.85 24.688L142.918 24.858L143.02 25.164L143.224 25.368L143.19 25.266H143.462L143.598 25.232L143.734 25.062L143.768 24.892V24.756L143.802 24.654L144.04 24.042L144.108 23.804L144.244 23.634V23.6L144.312 23.498L144.346 23.362L144.448 23.056L144.958 22.308L145.094 22.036L145.026 21.968L144.924 21.9L144.754 21.968L144.652 22.07V22.104L144.312 22.308ZM172.749 27.748H172.647L172.715 27.782L172.545 27.884L172.341 27.918L172.103 27.68L171.797 27.544L171.491 27.136L171.117 26.898L170.709 26.728L170.505 26.422L169.723 25.912L169.655 25.742L169.587 25.708L169.689 25.64L169.553 24.994L169.315 24.688L169.281 24.144V23.906L169.315 23.702L169.281 23.464L168.975 22.342L168.771 21.356L168.839 21.152L168.771 20.778L168.703 20.166L168.805 16.46L168.737 15.78L168.635 15.44L168.295 15.882L167.479 17.786L167.377 17.956L167.275 18.126L167.037 18.534L166.935 18.772L167.037 18.874L165.711 21.186L165.677 21.254L165.541 21.696L165.167 22.308L165.133 22.342V22.478L165.099 22.648L164.589 23.464H164.555L164.487 23.634L164.317 23.838L164.113 24.348L164.079 24.382L163.841 24.824L163.671 24.96L163.569 25.436L163.093 26.354L162.787 26.694L162.447 26.728L162.345 26.898L161.937 27.136L161.427 27.102L161.325 27.136L161.257 27.17H161.155L160.985 27.136L160.849 27V26.83L160.747 26.422L160.611 24.688H160.713L160.645 24.518L160.679 24.212V23.294L160.509 22.818L160.611 22.308L160.475 21.458V20.846L160.509 20.71V20.336L160.543 20.132L160.645 18.942L160.475 18.432L160.543 18.33L160.611 17.48L160.543 17.242L160.611 17.072L160.543 16.562L160.577 13.91L160.645 13.876L160.747 13.434L161.019 13.23L162.753 12.822L162.957 13.06L163.025 13.468L162.991 14.08L162.957 14.42L162.991 14.488L162.889 14.624L162.719 15.236L162.617 15.542L162.549 15.78L162.481 15.916L162.311 17.514L162.209 17.922L162.175 18.67L162.107 18.806L162.073 18.942V19.01L162.039 19.724L162.209 22.342L162.107 22.784L162.175 22.886V23.294L162.209 23.362L162.277 24.076V24.28L162.311 24.382L162.481 24.484H162.685L163.127 24.246L163.263 24.008L163.331 23.906L163.399 23.566L163.773 23.158L164.283 22.342V22.206L164.317 22.172L164.895 21.458L165.099 20.812L165.643 19.86L165.983 19.418L166.493 18.296V18.262L166.595 18.058L166.731 17.65L166.765 17.548L166.935 17.378L167.105 17.174L167.173 16.936L167.411 16.154L167.717 15.474L168.193 13.978L168.635 13.264L169.519 12.822H169.655L169.825 12.754L170.539 12.652L170.607 13.162L170.505 13.332L170.471 13.434L170.505 13.57L170.709 14.862L170.675 14.964L170.641 15.27L170.505 15.644L170.607 17.072L170.505 17.514V17.786L170.471 17.888L170.437 18.432L170.641 19.112L170.913 21.832L171.151 23.498L171.219 23.77L171.321 24.212V24.858L171.457 25.198L171.593 25.436L171.695 25.674L171.797 25.912L172.069 26.592L172.579 27.578L172.749 27.748Z" fill="#1E1E1E"/>
</svg>
